<?xml version="1.0" encoding="UTF-8" standalone="no"?>
<!-- This is a Stata 18.5 generated SVG file (http://www.stata.com) -->

<svg version="1.1" width="8.000in" height="4.500in" viewBox="0 0 5760 3240" xmlns="http://www.w3.org/2000/svg" xmlns:xlink="http://www.w3.org/1999/xlink">
	<desc>Stata Graph - Graph</desc>
	<rect x="0" y="0" width="5760" height="3240" style="fill:#FFFFFF;stroke:none"/>
	<rect x="0.00" y="0.00" width="5760.00" height="3240.00" style="fill:#FFFFFF"/>
	<rect x="3.24" y="3.24" width="5753.52" height="3233.52" style="fill:none;stroke:#FFFFFF;stroke-width:6.48"/>
	<rect x="555.30" y="290.52" width="1512.72" height="2610.90" style="fill:#FFFFFF"/>
	<rect x="558.05" y="293.27" width="1507.21" height="2605.39" style="fill:none;stroke:#FFFFFF;stroke-width:5.51"/>
	<line x1="555.30" y1="2901.42" x2="620.10" y2="2901.42" style="stroke:#F0F0F0;stroke-width:8.26"/>
	<line x1="652.50" y1="2901.42" x2="717.30" y2="2901.42" style="stroke:#F0F0F0;stroke-width:8.26"/>
	<line x1="749.70" y1="2901.42" x2="814.50" y2="2901.42" style="stroke:#F0F0F0;stroke-width:8.26"/>
	<line x1="846.90" y1="2901.42" x2="911.70" y2="2901.42" style="stroke:#F0F0F0;stroke-width:8.26"/>
	<line x1="944.10" y1="2901.42" x2="1008.90" y2="2901.42" style="stroke:#F0F0F0;stroke-width:8.26"/>
	<line x1="1041.30" y1="2901.42" x2="1106.10" y2="2901.42" style="stroke:#F0F0F0;stroke-width:8.26"/>
	<line x1="1138.50" y1="2901.42" x2="1203.30" y2="2901.42" style="stroke:#F0F0F0;stroke-width:8.26"/>
	<line x1="1235.70" y1="2901.42" x2="1300.50" y2="2901.42" style="stroke:#F0F0F0;stroke-width:8.26"/>
	<line x1="1332.90" y1="2901.42" x2="1397.70" y2="2901.42" style="stroke:#F0F0F0;stroke-width:8.26"/>
	<line x1="1430.10" y1="2901.42" x2="1494.90" y2="2901.42" style="stroke:#F0F0F0;stroke-width:8.26"/>
	<line x1="1527.30" y1="2901.42" x2="1592.10" y2="2901.42" style="stroke:#F0F0F0;stroke-width:8.26"/>
	<line x1="1624.50" y1="2901.42" x2="1689.30" y2="2901.42" style="stroke:#F0F0F0;stroke-width:8.26"/>
	<line x1="1721.88" y1="2901.42" x2="1786.50" y2="2901.42" style="stroke:#F0F0F0;stroke-width:8.26"/>
	<line x1="1819.08" y1="2901.42" x2="1883.70" y2="2901.42" style="stroke:#F0F0F0;stroke-width:8.26"/>
	<line x1="1916.28" y1="2901.42" x2="1981.08" y2="2901.42" style="stroke:#F0F0F0;stroke-width:8.26"/>
	<line x1="2013.48" y1="2901.42" x2="2068.02" y2="2901.42" style="stroke:#F0F0F0;stroke-width:8.26"/>
	<line x1="555.30" y1="2272.86" x2="620.10" y2="2272.86" style="stroke:#F0F0F0;stroke-width:8.26"/>
	<line x1="652.50" y1="2272.86" x2="717.30" y2="2272.86" style="stroke:#F0F0F0;stroke-width:8.26"/>
	<line x1="749.70" y1="2272.86" x2="814.50" y2="2272.86" style="stroke:#F0F0F0;stroke-width:8.26"/>
	<line x1="846.90" y1="2272.86" x2="911.70" y2="2272.86" style="stroke:#F0F0F0;stroke-width:8.26"/>
	<line x1="944.10" y1="2272.86" x2="1008.90" y2="2272.86" style="stroke:#F0F0F0;stroke-width:8.26"/>
	<line x1="1041.30" y1="2272.86" x2="1106.10" y2="2272.86" style="stroke:#F0F0F0;stroke-width:8.26"/>
	<line x1="1138.50" y1="2272.86" x2="1203.30" y2="2272.86" style="stroke:#F0F0F0;stroke-width:8.26"/>
	<line x1="1235.70" y1="2272.86" x2="1300.50" y2="2272.86" style="stroke:#F0F0F0;stroke-width:8.26"/>
	<line x1="1332.90" y1="2272.86" x2="1397.70" y2="2272.86" style="stroke:#F0F0F0;stroke-width:8.26"/>
	<line x1="1430.10" y1="2272.86" x2="1494.90" y2="2272.86" style="stroke:#F0F0F0;stroke-width:8.26"/>
	<line x1="1527.30" y1="2272.86" x2="1592.10" y2="2272.86" style="stroke:#F0F0F0;stroke-width:8.26"/>
	<line x1="1624.50" y1="2272.86" x2="1689.30" y2="2272.86" style="stroke:#F0F0F0;stroke-width:8.26"/>
	<line x1="1721.88" y1="2272.86" x2="1786.50" y2="2272.86" style="stroke:#F0F0F0;stroke-width:8.26"/>
	<line x1="1819.08" y1="2272.86" x2="1883.70" y2="2272.86" style="stroke:#F0F0F0;stroke-width:8.26"/>
	<line x1="1916.28" y1="2272.86" x2="1981.08" y2="2272.86" style="stroke:#F0F0F0;stroke-width:8.26"/>
	<line x1="2013.48" y1="2272.86" x2="2068.02" y2="2272.86" style="stroke:#F0F0F0;stroke-width:8.26"/>
	<line x1="555.30" y1="1644.12" x2="620.10" y2="1644.12" style="stroke:#F0F0F0;stroke-width:8.26"/>
	<line x1="652.50" y1="1644.12" x2="717.30" y2="1644.12" style="stroke:#F0F0F0;stroke-width:8.26"/>
	<line x1="749.70" y1="1644.12" x2="814.50" y2="1644.12" style="stroke:#F0F0F0;stroke-width:8.26"/>
	<line x1="846.90" y1="1644.12" x2="911.70" y2="1644.12" style="stroke:#F0F0F0;stroke-width:8.26"/>
	<line x1="944.10" y1="1644.12" x2="1008.90" y2="1644.12" style="stroke:#F0F0F0;stroke-width:8.26"/>
	<line x1="1041.30" y1="1644.12" x2="1106.10" y2="1644.12" style="stroke:#F0F0F0;stroke-width:8.26"/>
	<line x1="1138.50" y1="1644.12" x2="1203.30" y2="1644.12" style="stroke:#F0F0F0;stroke-width:8.26"/>
	<line x1="1235.70" y1="1644.12" x2="1300.50" y2="1644.12" style="stroke:#F0F0F0;stroke-width:8.26"/>
	<line x1="1332.90" y1="1644.12" x2="1397.70" y2="1644.12" style="stroke:#F0F0F0;stroke-width:8.26"/>
	<line x1="1430.10" y1="1644.12" x2="1494.90" y2="1644.12" style="stroke:#F0F0F0;stroke-width:8.26"/>
	<line x1="1527.30" y1="1644.12" x2="1592.10" y2="1644.12" style="stroke:#F0F0F0;stroke-width:8.26"/>
	<line x1="1624.50" y1="1644.12" x2="1689.30" y2="1644.12" style="stroke:#F0F0F0;stroke-width:8.26"/>
	<line x1="1721.88" y1="1644.12" x2="1786.50" y2="1644.12" style="stroke:#F0F0F0;stroke-width:8.26"/>
	<line x1="1819.08" y1="1644.12" x2="1883.70" y2="1644.12" style="stroke:#F0F0F0;stroke-width:8.26"/>
	<line x1="1916.28" y1="1644.12" x2="1981.08" y2="1644.12" style="stroke:#F0F0F0;stroke-width:8.26"/>
	<line x1="2013.48" y1="1644.12" x2="2068.02" y2="1644.12" style="stroke:#F0F0F0;stroke-width:8.26"/>
	<line x1="555.30" y1="1015.56" x2="620.10" y2="1015.56" style="stroke:#F0F0F0;stroke-width:8.26"/>
	<line x1="652.50" y1="1015.56" x2="717.30" y2="1015.56" style="stroke:#F0F0F0;stroke-width:8.26"/>
	<line x1="749.70" y1="1015.56" x2="814.50" y2="1015.56" style="stroke:#F0F0F0;stroke-width:8.26"/>
	<line x1="846.90" y1="1015.56" x2="911.70" y2="1015.56" style="stroke:#F0F0F0;stroke-width:8.26"/>
	<line x1="944.10" y1="1015.56" x2="1008.90" y2="1015.56" style="stroke:#F0F0F0;stroke-width:8.26"/>
	<line x1="1041.30" y1="1015.56" x2="1106.10" y2="1015.56" style="stroke:#F0F0F0;stroke-width:8.26"/>
	<line x1="1138.50" y1="1015.56" x2="1203.30" y2="1015.56" style="stroke:#F0F0F0;stroke-width:8.26"/>
	<line x1="1235.70" y1="1015.56" x2="1300.50" y2="1015.56" style="stroke:#F0F0F0;stroke-width:8.26"/>
	<line x1="1332.90" y1="1015.56" x2="1397.70" y2="1015.56" style="stroke:#F0F0F0;stroke-width:8.26"/>
	<line x1="1430.10" y1="1015.56" x2="1494.90" y2="1015.56" style="stroke:#F0F0F0;stroke-width:8.26"/>
	<line x1="1527.30" y1="1015.56" x2="1592.10" y2="1015.56" style="stroke:#F0F0F0;stroke-width:8.26"/>
	<line x1="1624.50" y1="1015.56" x2="1689.30" y2="1015.56" style="stroke:#F0F0F0;stroke-width:8.26"/>
	<line x1="1721.88" y1="1015.56" x2="1786.50" y2="1015.56" style="stroke:#F0F0F0;stroke-width:8.26"/>
	<line x1="1819.08" y1="1015.56" x2="1883.70" y2="1015.56" style="stroke:#F0F0F0;stroke-width:8.26"/>
	<line x1="1916.28" y1="1015.56" x2="1981.08" y2="1015.56" style="stroke:#F0F0F0;stroke-width:8.26"/>
	<line x1="2013.48" y1="1015.56" x2="2068.02" y2="1015.56" style="stroke:#F0F0F0;stroke-width:8.26"/>
	<line x1="555.30" y1="386.82" x2="620.10" y2="386.82" style="stroke:#F0F0F0;stroke-width:8.26"/>
	<line x1="652.50" y1="386.82" x2="717.30" y2="386.82" style="stroke:#F0F0F0;stroke-width:8.26"/>
	<line x1="749.70" y1="386.82" x2="814.50" y2="386.82" style="stroke:#F0F0F0;stroke-width:8.26"/>
	<line x1="846.90" y1="386.82" x2="911.70" y2="386.82" style="stroke:#F0F0F0;stroke-width:8.26"/>
	<line x1="944.10" y1="386.82" x2="1008.90" y2="386.82" style="stroke:#F0F0F0;stroke-width:8.26"/>
	<line x1="1041.30" y1="386.82" x2="1106.10" y2="386.82" style="stroke:#F0F0F0;stroke-width:8.26"/>
	<line x1="1138.50" y1="386.82" x2="1203.30" y2="386.82" style="stroke:#F0F0F0;stroke-width:8.26"/>
	<line x1="1235.70" y1="386.82" x2="1300.50" y2="386.82" style="stroke:#F0F0F0;stroke-width:8.26"/>
	<line x1="1332.90" y1="386.82" x2="1397.70" y2="386.82" style="stroke:#F0F0F0;stroke-width:8.26"/>
	<line x1="1430.10" y1="386.82" x2="1494.90" y2="386.82" style="stroke:#F0F0F0;stroke-width:8.26"/>
	<line x1="1527.30" y1="386.82" x2="1592.10" y2="386.82" style="stroke:#F0F0F0;stroke-width:8.26"/>
	<line x1="1624.50" y1="386.82" x2="1689.30" y2="386.82" style="stroke:#F0F0F0;stroke-width:8.26"/>
	<line x1="1721.88" y1="386.82" x2="1786.50" y2="386.82" style="stroke:#F0F0F0;stroke-width:8.26"/>
	<line x1="1819.08" y1="386.82" x2="1883.70" y2="386.82" style="stroke:#F0F0F0;stroke-width:8.26"/>
	<line x1="1916.28" y1="386.82" x2="1981.08" y2="386.82" style="stroke:#F0F0F0;stroke-width:8.26"/>
	<line x1="2013.48" y1="386.82" x2="2068.02" y2="386.82" style="stroke:#F0F0F0;stroke-width:8.26"/>
	<rect x="2294.82" y="290.52" width="1512.90" height="2610.90" style="fill:#FFFFFF"/>
	<rect x="2297.57" y="293.27" width="1507.39" height="2605.39" style="fill:none;stroke:#FFFFFF;stroke-width:5.51"/>
	<line x1="2294.82" y1="2901.42" x2="2359.62" y2="2901.42" style="stroke:#F0F0F0;stroke-width:8.26"/>
	<line x1="2392.02" y1="2901.42" x2="2456.82" y2="2901.42" style="stroke:#F0F0F0;stroke-width:8.26"/>
	<line x1="2489.22" y1="2901.42" x2="2554.02" y2="2901.42" style="stroke:#F0F0F0;stroke-width:8.26"/>
	<line x1="2586.42" y1="2901.42" x2="2651.22" y2="2901.42" style="stroke:#F0F0F0;stroke-width:8.26"/>
	<line x1="2683.62" y1="2901.42" x2="2748.42" y2="2901.42" style="stroke:#F0F0F0;stroke-width:8.26"/>
	<line x1="2780.82" y1="2901.42" x2="2845.62" y2="2901.42" style="stroke:#F0F0F0;stroke-width:8.26"/>
	<line x1="2878.02" y1="2901.42" x2="2942.82" y2="2901.42" style="stroke:#F0F0F0;stroke-width:8.26"/>
	<line x1="2975.22" y1="2901.42" x2="3040.02" y2="2901.42" style="stroke:#F0F0F0;stroke-width:8.26"/>
	<line x1="3072.42" y1="2901.42" x2="3137.22" y2="2901.42" style="stroke:#F0F0F0;stroke-width:8.26"/>
	<line x1="3169.62" y1="2901.42" x2="3234.42" y2="2901.42" style="stroke:#F0F0F0;stroke-width:8.26"/>
	<line x1="3266.82" y1="2901.42" x2="3331.62" y2="2901.42" style="stroke:#F0F0F0;stroke-width:8.26"/>
	<line x1="3364.02" y1="2901.42" x2="3428.82" y2="2901.42" style="stroke:#F0F0F0;stroke-width:8.26"/>
	<line x1="3461.40" y1="2901.42" x2="3526.02" y2="2901.42" style="stroke:#F0F0F0;stroke-width:8.26"/>
	<line x1="3558.60" y1="2901.42" x2="3623.22" y2="2901.42" style="stroke:#F0F0F0;stroke-width:8.26"/>
	<line x1="3655.80" y1="2901.42" x2="3720.60" y2="2901.42" style="stroke:#F0F0F0;stroke-width:8.26"/>
	<line x1="3753.00" y1="2901.42" x2="3807.72" y2="2901.42" style="stroke:#F0F0F0;stroke-width:8.26"/>
	<line x1="2294.82" y1="2272.86" x2="2359.62" y2="2272.86" style="stroke:#F0F0F0;stroke-width:8.26"/>
	<line x1="2392.02" y1="2272.86" x2="2456.82" y2="2272.86" style="stroke:#F0F0F0;stroke-width:8.26"/>
	<line x1="2489.22" y1="2272.86" x2="2554.02" y2="2272.86" style="stroke:#F0F0F0;stroke-width:8.26"/>
	<line x1="2586.42" y1="2272.86" x2="2651.22" y2="2272.86" style="stroke:#F0F0F0;stroke-width:8.26"/>
	<line x1="2683.62" y1="2272.86" x2="2748.42" y2="2272.86" style="stroke:#F0F0F0;stroke-width:8.26"/>
	<line x1="2780.82" y1="2272.86" x2="2845.62" y2="2272.86" style="stroke:#F0F0F0;stroke-width:8.26"/>
	<line x1="2878.02" y1="2272.86" x2="2942.82" y2="2272.86" style="stroke:#F0F0F0;stroke-width:8.26"/>
	<line x1="2975.22" y1="2272.86" x2="3040.02" y2="2272.86" style="stroke:#F0F0F0;stroke-width:8.26"/>
	<line x1="3072.42" y1="2272.86" x2="3137.22" y2="2272.86" style="stroke:#F0F0F0;stroke-width:8.26"/>
	<line x1="3169.62" y1="2272.86" x2="3234.42" y2="2272.86" style="stroke:#F0F0F0;stroke-width:8.26"/>
	<line x1="3266.82" y1="2272.86" x2="3331.62" y2="2272.86" style="stroke:#F0F0F0;stroke-width:8.26"/>
	<line x1="3364.02" y1="2272.86" x2="3428.82" y2="2272.86" style="stroke:#F0F0F0;stroke-width:8.26"/>
	<line x1="3461.40" y1="2272.86" x2="3526.02" y2="2272.86" style="stroke:#F0F0F0;stroke-width:8.26"/>
	<line x1="3558.60" y1="2272.86" x2="3623.22" y2="2272.86" style="stroke:#F0F0F0;stroke-width:8.26"/>
	<line x1="3655.80" y1="2272.86" x2="3720.60" y2="2272.86" style="stroke:#F0F0F0;stroke-width:8.26"/>
	<line x1="3753.00" y1="2272.86" x2="3807.72" y2="2272.86" style="stroke:#F0F0F0;stroke-width:8.26"/>
	<line x1="2294.82" y1="1644.12" x2="2359.62" y2="1644.12" style="stroke:#F0F0F0;stroke-width:8.26"/>
	<line x1="2392.02" y1="1644.12" x2="2456.82" y2="1644.12" style="stroke:#F0F0F0;stroke-width:8.26"/>
	<line x1="2489.22" y1="1644.12" x2="2554.02" y2="1644.12" style="stroke:#F0F0F0;stroke-width:8.26"/>
	<line x1="2586.42" y1="1644.12" x2="2651.22" y2="1644.12" style="stroke:#F0F0F0;stroke-width:8.26"/>
	<line x1="2683.62" y1="1644.12" x2="2748.42" y2="1644.12" style="stroke:#F0F0F0;stroke-width:8.26"/>
	<line x1="2780.82" y1="1644.12" x2="2845.62" y2="1644.12" style="stroke:#F0F0F0;stroke-width:8.26"/>
	<line x1="2878.02" y1="1644.12" x2="2942.82" y2="1644.12" style="stroke:#F0F0F0;stroke-width:8.26"/>
	<line x1="2975.22" y1="1644.12" x2="3040.02" y2="1644.12" style="stroke:#F0F0F0;stroke-width:8.26"/>
	<line x1="3072.42" y1="1644.12" x2="3137.22" y2="1644.12" style="stroke:#F0F0F0;stroke-width:8.26"/>
	<line x1="3169.62" y1="1644.12" x2="3234.42" y2="1644.12" style="stroke:#F0F0F0;stroke-width:8.26"/>
	<line x1="3266.82" y1="1644.12" x2="3331.62" y2="1644.12" style="stroke:#F0F0F0;stroke-width:8.26"/>
	<line x1="3364.02" y1="1644.12" x2="3428.82" y2="1644.12" style="stroke:#F0F0F0;stroke-width:8.26"/>
	<line x1="3461.40" y1="1644.12" x2="3526.02" y2="1644.12" style="stroke:#F0F0F0;stroke-width:8.26"/>
	<line x1="3558.60" y1="1644.12" x2="3623.22" y2="1644.12" style="stroke:#F0F0F0;stroke-width:8.26"/>
	<line x1="3655.80" y1="1644.12" x2="3720.60" y2="1644.12" style="stroke:#F0F0F0;stroke-width:8.26"/>
	<line x1="3753.00" y1="1644.12" x2="3807.72" y2="1644.12" style="stroke:#F0F0F0;stroke-width:8.26"/>
	<line x1="2294.82" y1="1015.56" x2="2359.62" y2="1015.56" style="stroke:#F0F0F0;stroke-width:8.26"/>
	<line x1="2392.02" y1="1015.56" x2="2456.82" y2="1015.56" style="stroke:#F0F0F0;stroke-width:8.26"/>
	<line x1="2489.22" y1="1015.56" x2="2554.02" y2="1015.56" style="stroke:#F0F0F0;stroke-width:8.26"/>
	<line x1="2586.42" y1="1015.56" x2="2651.22" y2="1015.56" style="stroke:#F0F0F0;stroke-width:8.26"/>
	<line x1="2683.62" y1="1015.56" x2="2748.42" y2="1015.56" style="stroke:#F0F0F0;stroke-width:8.26"/>
	<line x1="2780.82" y1="1015.56" x2="2845.62" y2="1015.56" style="stroke:#F0F0F0;stroke-width:8.26"/>
	<line x1="2878.02" y1="1015.56" x2="2942.82" y2="1015.56" style="stroke:#F0F0F0;stroke-width:8.26"/>
	<line x1="2975.22" y1="1015.56" x2="3040.02" y2="1015.56" style="stroke:#F0F0F0;stroke-width:8.26"/>
	<line x1="3072.42" y1="1015.56" x2="3137.22" y2="1015.56" style="stroke:#F0F0F0;stroke-width:8.26"/>
	<line x1="3169.62" y1="1015.56" x2="3234.42" y2="1015.56" style="stroke:#F0F0F0;stroke-width:8.26"/>
	<line x1="3266.82" y1="1015.56" x2="3331.62" y2="1015.56" style="stroke:#F0F0F0;stroke-width:8.26"/>
	<line x1="3364.02" y1="1015.56" x2="3428.82" y2="1015.56" style="stroke:#F0F0F0;stroke-width:8.26"/>
	<line x1="3461.40" y1="1015.56" x2="3526.02" y2="1015.56" style="stroke:#F0F0F0;stroke-width:8.26"/>
	<line x1="3558.60" y1="1015.56" x2="3623.22" y2="1015.56" style="stroke:#F0F0F0;stroke-width:8.26"/>
	<line x1="3655.80" y1="1015.56" x2="3720.60" y2="1015.56" style="stroke:#F0F0F0;stroke-width:8.26"/>
	<line x1="3753.00" y1="1015.56" x2="3807.72" y2="1015.56" style="stroke:#F0F0F0;stroke-width:8.26"/>
	<line x1="2294.82" y1="386.82" x2="2359.62" y2="386.82" style="stroke:#F0F0F0;stroke-width:8.26"/>
	<line x1="2392.02" y1="386.82" x2="2456.82" y2="386.82" style="stroke:#F0F0F0;stroke-width:8.26"/>
	<line x1="2489.22" y1="386.82" x2="2554.02" y2="386.82" style="stroke:#F0F0F0;stroke-width:8.26"/>
	<line x1="2586.42" y1="386.82" x2="2651.22" y2="386.82" style="stroke:#F0F0F0;stroke-width:8.26"/>
	<line x1="2683.62" y1="386.82" x2="2748.42" y2="386.82" style="stroke:#F0F0F0;stroke-width:8.26"/>
	<line x1="2780.82" y1="386.82" x2="2845.62" y2="386.82" style="stroke:#F0F0F0;stroke-width:8.26"/>
	<line x1="2878.02" y1="386.82" x2="2942.82" y2="386.82" style="stroke:#F0F0F0;stroke-width:8.26"/>
	<line x1="2975.22" y1="386.82" x2="3040.02" y2="386.82" style="stroke:#F0F0F0;stroke-width:8.26"/>
	<line x1="3072.42" y1="386.82" x2="3137.22" y2="386.82" style="stroke:#F0F0F0;stroke-width:8.26"/>
	<line x1="3169.62" y1="386.82" x2="3234.42" y2="386.82" style="stroke:#F0F0F0;stroke-width:8.26"/>
	<line x1="3266.82" y1="386.82" x2="3331.62" y2="386.82" style="stroke:#F0F0F0;stroke-width:8.26"/>
	<line x1="3364.02" y1="386.82" x2="3428.82" y2="386.82" style="stroke:#F0F0F0;stroke-width:8.26"/>
	<line x1="3461.40" y1="386.82" x2="3526.02" y2="386.82" style="stroke:#F0F0F0;stroke-width:8.26"/>
	<line x1="3558.60" y1="386.82" x2="3623.22" y2="386.82" style="stroke:#F0F0F0;stroke-width:8.26"/>
	<line x1="3655.80" y1="386.82" x2="3720.60" y2="386.82" style="stroke:#F0F0F0;stroke-width:8.26"/>
	<line x1="3753.00" y1="386.82" x2="3807.72" y2="386.82" style="stroke:#F0F0F0;stroke-width:8.26"/>
	<rect x="676.98" y="1477.44" width="126.90" height="1423.98" style="fill:#1A85FF"/>
	<rect x="679.73" y="1480.19" width="121.39" height="1418.47" style="fill:none;stroke:#1A85FF;stroke-width:5.51"/>
	<rect x="803.88" y="2762.64" width="127.08" height="138.78" style="fill:#D41159"/>
	<rect x="806.63" y="2765.39" width="121.57" height="133.27" style="fill:none;stroke:#D41159;stroke-width:5.51"/>
	<rect x="930.96" y="1720.62" width="126.90" height="1180.80" style="fill:#00BF7F"/>
	<rect x="933.71" y="1723.37" width="121.39" height="1175.29" style="fill:none;stroke:#00BF7F;stroke-width:5.51"/>
	<rect x="1057.86" y="1407.96" width="126.90" height="1493.46" style="fill:#FFD400"/>
	<rect x="1060.61" y="1410.71" width="121.39" height="1487.95" style="fill:none;stroke:#FFD400;stroke-width:5.51"/>
	<rect x="1184.76" y="1790.10" width="126.90" height="1111.32" style="fill:#4F2C99"/>
	<rect x="1187.51" y="1792.85" width="121.39" height="1105.81" style="fill:none;stroke:#4F2C99;stroke-width:5.51"/>
	<rect x="1311.66" y="2345.76" width="126.90" height="555.66" style="fill:#FF6333"/>
	<rect x="1314.41" y="2348.51" width="121.39" height="550.15" style="fill:none;stroke:#FF6333;stroke-width:5.51"/>
	<rect x="1438.56" y="2693.16" width="126.90" height="208.26" style="fill:#4DB7FF"/>
	<rect x="1441.31" y="2695.91" width="121.39" height="202.75" style="fill:none;stroke:#4DB7FF;stroke-width:5.51"/>
	<rect x="1692.36" y="2797.38" width="126.90" height="104.04" style="fill:#0FEFAF"/>
	<rect x="1695.11" y="2800.13" width="121.39" height="98.53" style="fill:none;stroke:#0FEFAF;stroke-width:5.51"/>
	<rect x="1819.26" y="2832.12" width="127.08" height="69.30" style="fill:#FAA307"/>
	<rect x="1822.01" y="2834.87" width="121.57" height="63.79" style="fill:none;stroke:#FAA307;stroke-width:5.51"/>
	<rect x="2416.68" y="744.30" width="126.90" height="2157.12" style="fill:#1A85FF"/>
	<rect x="2419.43" y="747.05" width="121.39" height="2151.61" style="fill:none;stroke:#1A85FF;stroke-width:5.51"/>
	<rect x="2543.58" y="2346.84" width="126.90" height="554.58" style="fill:#D41159"/>
	<rect x="2546.33" y="2349.59" width="121.39" height="549.07" style="fill:none;stroke:#D41159;stroke-width:5.51"/>
	<rect x="2670.48" y="2038.68" width="126.90" height="862.74" style="fill:#00BF7F"/>
	<rect x="2673.23" y="2041.43" width="121.39" height="857.23" style="fill:none;stroke:#00BF7F;stroke-width:5.51"/>
	<rect x="2797.38" y="2778.30" width="126.90" height="123.12" style="fill:#FFD400"/>
	<rect x="2800.13" y="2781.05" width="121.39" height="117.61" style="fill:none;stroke:#FFD400;stroke-width:5.51"/>
	<rect x="2924.28" y="2408.40" width="126.90" height="493.02" style="fill:#4F2C99"/>
	<rect x="2927.03" y="2411.15" width="121.39" height="487.51" style="fill:none;stroke:#4F2C99;stroke-width:5.51"/>
	<rect x="3051.18" y="1237.50" width="127.08" height="1663.92" style="fill:#FF6333"/>
	<rect x="3053.93" y="1240.25" width="121.57" height="1658.41" style="fill:none;stroke:#FF6333;stroke-width:5.51"/>
	<rect x="3178.26" y="2531.70" width="126.90" height="369.72" style="fill:#4DB7FF"/>
	<rect x="3181.01" y="2534.45" width="121.39" height="364.21" style="fill:none;stroke:#4DB7FF;stroke-width:5.51"/>
	<rect x="3305.16" y="2839.86" width="126.90" height="61.56" style="fill:#7C0015"/>
	<rect x="3307.91" y="2842.61" width="121.39" height="56.05" style="fill:none;stroke:#7C0015;stroke-width:5.51"/>
	<line x1="555.30" y1="2901.42" x2="555.30" y2="290.52" style="stroke:#000000;stroke-width:5.51"/>
	<line x1="555.30" y1="2901.42" x2="516.96" y2="2901.42" style="stroke:#000000;stroke-width:5.51"/>
	<text x="497.88" y="2934.92" style="font-family:'Helvetica';font-size:95.58px;fill:#000000" text-anchor="end">0</text>
	<line x1="555.30" y1="2272.86" x2="516.96" y2="2272.86" style="stroke:#000000;stroke-width:5.51"/>
	<text x="497.88" y="2306.36" style="font-family:'Helvetica';font-size:95.58px;fill:#000000" text-anchor="end">10</text>
	<line x1="555.30" y1="1644.12" x2="516.96" y2="1644.12" style="stroke:#000000;stroke-width:5.51"/>
	<text x="497.88" y="1677.62" style="font-family:'Helvetica';font-size:95.58px;fill:#000000" text-anchor="end">20</text>
	<line x1="555.30" y1="1015.56" x2="516.96" y2="1015.56" style="stroke:#000000;stroke-width:5.51"/>
	<text x="497.88" y="1049.06" style="font-family:'Helvetica';font-size:95.58px;fill:#000000" text-anchor="end">30</text>
	<line x1="555.30" y1="386.82" x2="516.96" y2="386.82" style="stroke:#000000;stroke-width:5.51"/>
	<text x="497.88" y="420.32" style="font-family:'Helvetica';font-size:95.58px;fill:#000000" text-anchor="end">40</text>
	<line x1="555.30" y1="2901.42" x2="2068.02" y2="2901.42" style="stroke:#000000;stroke-width:5.51"/>
	<line x1="2294.82" y1="2901.42" x2="3807.72" y2="2901.42" style="stroke:#000000;stroke-width:5.51"/>
	<rect x="555.30" y="152.28" width="1512.72" height="138.24" style="fill:#F0F0F0;stroke:#F0F0F0;stroke-width:5.51"/>
	<text x="1311.66" y="258.24" style="font-family:'Helvetica';font-size:105.12px;fill:#000000" text-anchor="middle">Madrid</text>
	<rect x="2294.82" y="152.28" width="1512.90" height="138.24" style="fill:#F0F0F0;stroke:#F0F0F0;stroke-width:5.51"/>
	<text x="3051.18" y="258.24" style="font-family:'Helvetica';font-size:105.12px;fill:#000000" text-anchor="middle">Outside Madrid</text>
	<rect x="3960.00" y="741.96" width="1647.72" height="1627.20" style="fill:#FFFFFF"/>
	<rect x="3963.24" y="745.20" width="1641.24" height="1620.72" style="fill:none;stroke:#FFFFFF;stroke-width:6.48"/>
	<rect x="4008.60" y="790.56" width="259.20" height="112.50" style="fill:#1A85FF"/>
	<rect x="4011.84" y="793.80" width="252.72" height="106.02" style="fill:none;stroke:#1A85FF;stroke-width:6.48"/>
	<rect x="4008.60" y="948.06" width="259.20" height="112.50" style="fill:#D41159"/>
	<rect x="4011.84" y="951.30" width="252.72" height="106.02" style="fill:none;stroke:#D41159;stroke-width:6.48"/>
	<rect x="4008.60" y="1105.56" width="259.20" height="112.50" style="fill:#00BF7F"/>
	<rect x="4011.84" y="1108.80" width="252.72" height="106.02" style="fill:none;stroke:#00BF7F;stroke-width:6.48"/>
	<rect x="4008.60" y="1263.06" width="259.20" height="112.50" style="fill:#FFD400"/>
	<rect x="4011.84" y="1266.30" width="252.72" height="106.02" style="fill:none;stroke:#FFD400;stroke-width:6.48"/>
	<rect x="4008.60" y="1420.56" width="259.20" height="112.50" style="fill:#4F2C99"/>
	<rect x="4011.84" y="1423.80" width="252.72" height="106.02" style="fill:none;stroke:#4F2C99;stroke-width:6.48"/>
	<rect x="4008.60" y="1578.06" width="259.20" height="112.50" style="fill:#FF6333"/>
	<rect x="4011.84" y="1581.30" width="252.72" height="106.02" style="fill:none;stroke:#FF6333;stroke-width:6.48"/>
	<rect x="4008.60" y="1735.56" width="259.20" height="112.50" style="fill:#4DB7FF"/>
	<rect x="4011.84" y="1738.80" width="252.72" height="106.02" style="fill:none;stroke:#4DB7FF;stroke-width:6.48"/>
	<rect x="4008.60" y="1893.06" width="259.20" height="112.50" style="fill:#7C0015"/>
	<rect x="4011.84" y="1896.30" width="252.72" height="106.02" style="fill:none;stroke:#7C0015;stroke-width:6.48"/>
	<rect x="4008.60" y="2050.56" width="259.20" height="112.50" style="fill:#0FEFAF"/>
	<rect x="4011.84" y="2053.80" width="252.72" height="106.02" style="fill:none;stroke:#0FEFAF;stroke-width:6.48"/>
	<rect x="4008.60" y="2208.06" width="259.20" height="112.50" style="fill:#FAA307"/>
	<rect x="4011.84" y="2211.30" width="252.72" height="106.02" style="fill:none;stroke:#FAA307;stroke-width:6.48"/>
	<text x="4335.30" y="886.32" style="font-family:'Helvetica';font-size:112.50px;fill:#000000">Private car (driver)</text>
	<text x="4335.30" y="1043.82" style="font-family:'Helvetica';font-size:112.50px;fill:#000000">Private car (passenger)</text>
	<text x="4335.30" y="1201.32" style="font-family:'Helvetica';font-size:112.50px;fill:#000000">Bus</text>
	<text x="4335.30" y="1358.82" style="font-family:'Helvetica';font-size:112.50px;fill:#000000">Metro/tram/light rail</text>
	<text x="4335.30" y="1516.32" style="font-family:'Helvetica';font-size:112.50px;fill:#000000">Train</text>
	<text x="4335.30" y="1673.82" style="font-family:'Helvetica';font-size:112.50px;fill:#000000">Walk</text>
	<text x="4335.30" y="1831.32" style="font-family:'Helvetica';font-size:112.50px;fill:#000000">Bike</text>
	<text x="4335.30" y="1988.82" style="font-family:'Helvetica';font-size:112.50px;fill:#000000">E-scooter</text>
	<text x="4335.30" y="2146.32" style="font-family:'Helvetica';font-size:112.50px;fill:#000000">Motorcycle</text>
	<text x="4335.30" y="2303.64" style="font-family:'Helvetica';font-size:112.50px;fill:#000000">Other</text>
	<text x="192.06" y="1555.56" style="font-family:'Helvetica';font-size:112.50px;fill:#000000" transform="rotate(-90 192.06,1555.56)" text-anchor="middle">percent</text>
	<text x="245.34" y="3080.07" style="font-family:'Helvetica';font-size:90.00px;fill:#000000">Graphs by Madrid</text>
</svg>
