<?xml version="1.0" encoding="UTF-8" standalone="no"?>
<!-- This is a Stata 18.5 generated SVG file (http://www.stata.com) -->

<svg version="1.1" width="10.000in" height="4.500in" viewBox="0 0 7200 3240" xmlns="http://www.w3.org/2000/svg" xmlns:xlink="http://www.w3.org/1999/xlink">
	<desc>Stata Graph - Graph</desc>
	<rect x="0" y="0" width="7200" height="3240" style="fill:#FFFFFF;stroke:none"/>
	<rect x="0.00" y="0.00" width="7200.00" height="3240.00" style="fill:#FFFFFF"/>
	<rect x="3.24" y="3.24" width="7193.52" height="3233.52" style="fill:none;stroke:#FFFFFF;stroke-width:6.48"/>
	<rect x="71.33" y="71.32" width="3528.68" height="3097.35" style="fill:#FFFFFF"/>
	<rect x="75.54" y="75.54" width="3520.25" height="3088.93" style="fill:none;stroke:#FFFFFF;stroke-width:8.42"/>
	<rect x="564.75" y="430.20" width="2887.88" height="2210.85" style="fill:#FFFFFF"/>
	<rect x="568.96" y="434.41" width="2879.45" height="2202.43" style="fill:none;stroke:#FFFFFF;stroke-width:8.42"/>
	<line x1="564.75" y1="2641.05" x2="629.55" y2="2641.05" style="stroke:#F0F0F0;stroke-width:12.64"/>
	<line x1="661.95" y1="2641.05" x2="726.75" y2="2641.05" style="stroke:#F0F0F0;stroke-width:12.64"/>
	<line x1="759.15" y1="2641.05" x2="823.95" y2="2641.05" style="stroke:#F0F0F0;stroke-width:12.64"/>
	<line x1="856.58" y1="2641.05" x2="921.38" y2="2641.05" style="stroke:#F0F0F0;stroke-width:12.64"/>
	<line x1="953.78" y1="2641.05" x2="1018.58" y2="2641.05" style="stroke:#F0F0F0;stroke-width:12.64"/>
	<line x1="1050.97" y1="2641.05" x2="1115.78" y2="2641.05" style="stroke:#F0F0F0;stroke-width:12.64"/>
	<line x1="1148.18" y1="2641.05" x2="1212.97" y2="2641.05" style="stroke:#F0F0F0;stroke-width:12.64"/>
	<line x1="1245.60" y1="2641.05" x2="1310.40" y2="2641.05" style="stroke:#F0F0F0;stroke-width:12.64"/>
	<line x1="1342.80" y1="2641.05" x2="1407.60" y2="2641.05" style="stroke:#F0F0F0;stroke-width:12.64"/>
	<line x1="1440.00" y1="2641.05" x2="1504.80" y2="2641.05" style="stroke:#F0F0F0;stroke-width:12.64"/>
	<line x1="1537.20" y1="2641.05" x2="1602.00" y2="2641.05" style="stroke:#F0F0F0;stroke-width:12.64"/>
	<line x1="1634.40" y1="2641.05" x2="1699.20" y2="2641.05" style="stroke:#F0F0F0;stroke-width:12.64"/>
	<line x1="1731.83" y1="2641.05" x2="1796.63" y2="2641.05" style="stroke:#F0F0F0;stroke-width:12.64"/>
	<line x1="1829.03" y1="2641.05" x2="1893.83" y2="2641.05" style="stroke:#F0F0F0;stroke-width:12.64"/>
	<line x1="1926.23" y1="2641.05" x2="1991.03" y2="2641.05" style="stroke:#F0F0F0;stroke-width:12.64"/>
	<line x1="2023.43" y1="2641.05" x2="2088.23" y2="2641.05" style="stroke:#F0F0F0;stroke-width:12.64"/>
	<line x1="2120.85" y1="2641.05" x2="2185.65" y2="2641.05" style="stroke:#F0F0F0;stroke-width:12.64"/>
	<line x1="2218.05" y1="2641.05" x2="2282.85" y2="2641.05" style="stroke:#F0F0F0;stroke-width:12.64"/>
	<line x1="2315.25" y1="2641.05" x2="2380.05" y2="2641.05" style="stroke:#F0F0F0;stroke-width:12.64"/>
	<line x1="2412.45" y1="2641.05" x2="2477.25" y2="2641.05" style="stroke:#F0F0F0;stroke-width:12.64"/>
	<line x1="2509.88" y1="2641.05" x2="2574.68" y2="2641.05" style="stroke:#F0F0F0;stroke-width:12.64"/>
	<line x1="2607.07" y1="2641.05" x2="2671.88" y2="2641.05" style="stroke:#F0F0F0;stroke-width:12.64"/>
	<line x1="2704.28" y1="2641.05" x2="2769.08" y2="2641.05" style="stroke:#F0F0F0;stroke-width:12.64"/>
	<line x1="2801.48" y1="2641.05" x2="2866.28" y2="2641.05" style="stroke:#F0F0F0;stroke-width:12.64"/>
	<line x1="2898.90" y1="2641.05" x2="2963.70" y2="2641.05" style="stroke:#F0F0F0;stroke-width:12.64"/>
	<line x1="2996.10" y1="2641.05" x2="3060.90" y2="2641.05" style="stroke:#F0F0F0;stroke-width:12.64"/>
	<line x1="3093.30" y1="2641.05" x2="3158.10" y2="2641.05" style="stroke:#F0F0F0;stroke-width:12.64"/>
	<line x1="3190.50" y1="2641.05" x2="3255.30" y2="2641.05" style="stroke:#F0F0F0;stroke-width:12.64"/>
	<line x1="3287.93" y1="2641.05" x2="3352.73" y2="2641.05" style="stroke:#F0F0F0;stroke-width:12.64"/>
	<line x1="3385.13" y1="2641.05" x2="3449.93" y2="2641.05" style="stroke:#F0F0F0;stroke-width:12.64"/>
	<line x1="564.75" y1="2174.85" x2="629.55" y2="2174.85" style="stroke:#F0F0F0;stroke-width:12.64"/>
	<line x1="661.95" y1="2174.85" x2="726.75" y2="2174.85" style="stroke:#F0F0F0;stroke-width:12.64"/>
	<line x1="759.15" y1="2174.85" x2="823.95" y2="2174.85" style="stroke:#F0F0F0;stroke-width:12.64"/>
	<line x1="856.58" y1="2174.85" x2="921.38" y2="2174.85" style="stroke:#F0F0F0;stroke-width:12.64"/>
	<line x1="953.78" y1="2174.85" x2="1018.58" y2="2174.85" style="stroke:#F0F0F0;stroke-width:12.64"/>
	<line x1="1050.97" y1="2174.85" x2="1115.78" y2="2174.85" style="stroke:#F0F0F0;stroke-width:12.64"/>
	<line x1="1148.18" y1="2174.85" x2="1212.97" y2="2174.85" style="stroke:#F0F0F0;stroke-width:12.64"/>
	<line x1="1245.60" y1="2174.85" x2="1310.40" y2="2174.85" style="stroke:#F0F0F0;stroke-width:12.64"/>
	<line x1="1342.80" y1="2174.85" x2="1407.60" y2="2174.85" style="stroke:#F0F0F0;stroke-width:12.64"/>
	<line x1="1440.00" y1="2174.85" x2="1504.80" y2="2174.85" style="stroke:#F0F0F0;stroke-width:12.64"/>
	<line x1="1537.20" y1="2174.85" x2="1602.00" y2="2174.85" style="stroke:#F0F0F0;stroke-width:12.64"/>
	<line x1="1634.40" y1="2174.85" x2="1699.20" y2="2174.85" style="stroke:#F0F0F0;stroke-width:12.64"/>
	<line x1="1731.83" y1="2174.85" x2="1796.63" y2="2174.85" style="stroke:#F0F0F0;stroke-width:12.64"/>
	<line x1="1829.03" y1="2174.85" x2="1893.83" y2="2174.85" style="stroke:#F0F0F0;stroke-width:12.64"/>
	<line x1="1926.23" y1="2174.85" x2="1991.03" y2="2174.85" style="stroke:#F0F0F0;stroke-width:12.64"/>
	<line x1="2023.43" y1="2174.85" x2="2088.23" y2="2174.85" style="stroke:#F0F0F0;stroke-width:12.64"/>
	<line x1="2120.85" y1="2174.85" x2="2185.65" y2="2174.85" style="stroke:#F0F0F0;stroke-width:12.64"/>
	<line x1="2218.05" y1="2174.85" x2="2282.85" y2="2174.85" style="stroke:#F0F0F0;stroke-width:12.64"/>
	<line x1="2315.25" y1="2174.85" x2="2380.05" y2="2174.85" style="stroke:#F0F0F0;stroke-width:12.64"/>
	<line x1="2412.45" y1="2174.85" x2="2477.25" y2="2174.85" style="stroke:#F0F0F0;stroke-width:12.64"/>
	<line x1="2509.88" y1="2174.85" x2="2574.68" y2="2174.85" style="stroke:#F0F0F0;stroke-width:12.64"/>
	<line x1="2607.07" y1="2174.85" x2="2671.88" y2="2174.85" style="stroke:#F0F0F0;stroke-width:12.64"/>
	<line x1="2704.28" y1="2174.85" x2="2769.08" y2="2174.85" style="stroke:#F0F0F0;stroke-width:12.64"/>
	<line x1="2801.48" y1="2174.85" x2="2866.28" y2="2174.85" style="stroke:#F0F0F0;stroke-width:12.64"/>
	<line x1="2898.90" y1="2174.85" x2="2963.70" y2="2174.85" style="stroke:#F0F0F0;stroke-width:12.64"/>
	<line x1="2996.10" y1="2174.85" x2="3060.90" y2="2174.85" style="stroke:#F0F0F0;stroke-width:12.64"/>
	<line x1="3093.30" y1="2174.85" x2="3158.10" y2="2174.85" style="stroke:#F0F0F0;stroke-width:12.64"/>
	<line x1="3190.50" y1="2174.85" x2="3255.30" y2="2174.85" style="stroke:#F0F0F0;stroke-width:12.64"/>
	<line x1="3287.93" y1="2174.85" x2="3352.73" y2="2174.85" style="stroke:#F0F0F0;stroke-width:12.64"/>
	<line x1="3385.13" y1="2174.85" x2="3449.93" y2="2174.85" style="stroke:#F0F0F0;stroke-width:12.64"/>
	<line x1="564.75" y1="1708.88" x2="629.55" y2="1708.88" style="stroke:#F0F0F0;stroke-width:12.64"/>
	<line x1="661.95" y1="1708.88" x2="726.75" y2="1708.88" style="stroke:#F0F0F0;stroke-width:12.64"/>
	<line x1="759.15" y1="1708.88" x2="823.95" y2="1708.88" style="stroke:#F0F0F0;stroke-width:12.64"/>
	<line x1="856.58" y1="1708.88" x2="921.38" y2="1708.88" style="stroke:#F0F0F0;stroke-width:12.64"/>
	<line x1="953.78" y1="1708.88" x2="1018.58" y2="1708.88" style="stroke:#F0F0F0;stroke-width:12.64"/>
	<line x1="1050.97" y1="1708.88" x2="1115.78" y2="1708.88" style="stroke:#F0F0F0;stroke-width:12.64"/>
	<line x1="1148.18" y1="1708.88" x2="1212.97" y2="1708.88" style="stroke:#F0F0F0;stroke-width:12.64"/>
	<line x1="1245.60" y1="1708.88" x2="1310.40" y2="1708.88" style="stroke:#F0F0F0;stroke-width:12.64"/>
	<line x1="1342.80" y1="1708.88" x2="1407.60" y2="1708.88" style="stroke:#F0F0F0;stroke-width:12.64"/>
	<line x1="1440.00" y1="1708.88" x2="1504.80" y2="1708.88" style="stroke:#F0F0F0;stroke-width:12.64"/>
	<line x1="1537.20" y1="1708.88" x2="1602.00" y2="1708.88" style="stroke:#F0F0F0;stroke-width:12.64"/>
	<line x1="1634.40" y1="1708.88" x2="1699.20" y2="1708.88" style="stroke:#F0F0F0;stroke-width:12.64"/>
	<line x1="1731.83" y1="1708.88" x2="1796.63" y2="1708.88" style="stroke:#F0F0F0;stroke-width:12.64"/>
	<line x1="1829.03" y1="1708.88" x2="1893.83" y2="1708.88" style="stroke:#F0F0F0;stroke-width:12.64"/>
	<line x1="1926.23" y1="1708.88" x2="1991.03" y2="1708.88" style="stroke:#F0F0F0;stroke-width:12.64"/>
	<line x1="2023.43" y1="1708.88" x2="2088.23" y2="1708.88" style="stroke:#F0F0F0;stroke-width:12.64"/>
	<line x1="2120.85" y1="1708.88" x2="2185.65" y2="1708.88" style="stroke:#F0F0F0;stroke-width:12.64"/>
	<line x1="2218.05" y1="1708.88" x2="2282.85" y2="1708.88" style="stroke:#F0F0F0;stroke-width:12.64"/>
	<line x1="2315.25" y1="1708.88" x2="2380.05" y2="1708.88" style="stroke:#F0F0F0;stroke-width:12.64"/>
	<line x1="2412.45" y1="1708.88" x2="2477.25" y2="1708.88" style="stroke:#F0F0F0;stroke-width:12.64"/>
	<line x1="2509.88" y1="1708.88" x2="2574.68" y2="1708.88" style="stroke:#F0F0F0;stroke-width:12.64"/>
	<line x1="2607.07" y1="1708.88" x2="2671.88" y2="1708.88" style="stroke:#F0F0F0;stroke-width:12.64"/>
	<line x1="2704.28" y1="1708.88" x2="2769.08" y2="1708.88" style="stroke:#F0F0F0;stroke-width:12.64"/>
	<line x1="2801.48" y1="1708.88" x2="2866.28" y2="1708.88" style="stroke:#F0F0F0;stroke-width:12.64"/>
	<line x1="2898.90" y1="1708.88" x2="2963.70" y2="1708.88" style="stroke:#F0F0F0;stroke-width:12.64"/>
	<line x1="2996.10" y1="1708.88" x2="3060.90" y2="1708.88" style="stroke:#F0F0F0;stroke-width:12.64"/>
	<line x1="3093.30" y1="1708.88" x2="3158.10" y2="1708.88" style="stroke:#F0F0F0;stroke-width:12.64"/>
	<line x1="3190.50" y1="1708.88" x2="3255.30" y2="1708.88" style="stroke:#F0F0F0;stroke-width:12.64"/>
	<line x1="3287.93" y1="1708.88" x2="3352.73" y2="1708.88" style="stroke:#F0F0F0;stroke-width:12.64"/>
	<line x1="3385.13" y1="1708.88" x2="3449.93" y2="1708.88" style="stroke:#F0F0F0;stroke-width:12.64"/>
	<line x1="564.75" y1="1242.68" x2="629.55" y2="1242.68" style="stroke:#F0F0F0;stroke-width:12.64"/>
	<line x1="661.95" y1="1242.68" x2="726.75" y2="1242.68" style="stroke:#F0F0F0;stroke-width:12.64"/>
	<line x1="759.15" y1="1242.68" x2="823.95" y2="1242.68" style="stroke:#F0F0F0;stroke-width:12.64"/>
	<line x1="856.58" y1="1242.68" x2="921.38" y2="1242.68" style="stroke:#F0F0F0;stroke-width:12.64"/>
	<line x1="953.78" y1="1242.68" x2="1018.58" y2="1242.68" style="stroke:#F0F0F0;stroke-width:12.64"/>
	<line x1="1050.97" y1="1242.68" x2="1115.78" y2="1242.68" style="stroke:#F0F0F0;stroke-width:12.64"/>
	<line x1="1148.18" y1="1242.68" x2="1212.97" y2="1242.68" style="stroke:#F0F0F0;stroke-width:12.64"/>
	<line x1="1245.60" y1="1242.68" x2="1310.40" y2="1242.68" style="stroke:#F0F0F0;stroke-width:12.64"/>
	<line x1="1342.80" y1="1242.68" x2="1407.60" y2="1242.68" style="stroke:#F0F0F0;stroke-width:12.64"/>
	<line x1="1440.00" y1="1242.68" x2="1504.80" y2="1242.68" style="stroke:#F0F0F0;stroke-width:12.64"/>
	<line x1="1537.20" y1="1242.68" x2="1602.00" y2="1242.68" style="stroke:#F0F0F0;stroke-width:12.64"/>
	<line x1="1634.40" y1="1242.68" x2="1699.20" y2="1242.68" style="stroke:#F0F0F0;stroke-width:12.64"/>
	<line x1="1731.83" y1="1242.68" x2="1796.63" y2="1242.68" style="stroke:#F0F0F0;stroke-width:12.64"/>
	<line x1="1829.03" y1="1242.68" x2="1893.83" y2="1242.68" style="stroke:#F0F0F0;stroke-width:12.64"/>
	<line x1="1926.23" y1="1242.68" x2="1991.03" y2="1242.68" style="stroke:#F0F0F0;stroke-width:12.64"/>
	<line x1="2023.43" y1="1242.68" x2="2088.23" y2="1242.68" style="stroke:#F0F0F0;stroke-width:12.64"/>
	<line x1="2120.85" y1="1242.68" x2="2185.65" y2="1242.68" style="stroke:#F0F0F0;stroke-width:12.64"/>
	<line x1="2218.05" y1="1242.68" x2="2282.85" y2="1242.68" style="stroke:#F0F0F0;stroke-width:12.64"/>
	<line x1="2315.25" y1="1242.68" x2="2380.05" y2="1242.68" style="stroke:#F0F0F0;stroke-width:12.64"/>
	<line x1="2412.45" y1="1242.68" x2="2477.25" y2="1242.68" style="stroke:#F0F0F0;stroke-width:12.64"/>
	<line x1="2509.88" y1="1242.68" x2="2574.68" y2="1242.68" style="stroke:#F0F0F0;stroke-width:12.64"/>
	<line x1="2607.07" y1="1242.68" x2="2671.88" y2="1242.68" style="stroke:#F0F0F0;stroke-width:12.64"/>
	<line x1="2704.28" y1="1242.68" x2="2769.08" y2="1242.68" style="stroke:#F0F0F0;stroke-width:12.64"/>
	<line x1="2801.48" y1="1242.68" x2="2866.28" y2="1242.68" style="stroke:#F0F0F0;stroke-width:12.64"/>
	<line x1="2898.90" y1="1242.68" x2="2963.70" y2="1242.68" style="stroke:#F0F0F0;stroke-width:12.64"/>
	<line x1="2996.10" y1="1242.68" x2="3060.90" y2="1242.68" style="stroke:#F0F0F0;stroke-width:12.64"/>
	<line x1="3093.30" y1="1242.68" x2="3158.10" y2="1242.68" style="stroke:#F0F0F0;stroke-width:12.64"/>
	<line x1="3190.50" y1="1242.68" x2="3255.30" y2="1242.68" style="stroke:#F0F0F0;stroke-width:12.64"/>
	<line x1="3287.93" y1="1242.68" x2="3352.73" y2="1242.68" style="stroke:#F0F0F0;stroke-width:12.64"/>
	<line x1="3385.13" y1="1242.68" x2="3449.93" y2="1242.68" style="stroke:#F0F0F0;stroke-width:12.64"/>
	<line x1="564.75" y1="776.70" x2="629.55" y2="776.70" style="stroke:#F0F0F0;stroke-width:12.64"/>
	<line x1="661.95" y1="776.70" x2="726.75" y2="776.70" style="stroke:#F0F0F0;stroke-width:12.64"/>
	<line x1="759.15" y1="776.70" x2="823.95" y2="776.70" style="stroke:#F0F0F0;stroke-width:12.64"/>
	<line x1="856.58" y1="776.70" x2="921.38" y2="776.70" style="stroke:#F0F0F0;stroke-width:12.64"/>
	<line x1="953.78" y1="776.70" x2="1018.58" y2="776.70" style="stroke:#F0F0F0;stroke-width:12.64"/>
	<line x1="1050.97" y1="776.70" x2="1115.78" y2="776.70" style="stroke:#F0F0F0;stroke-width:12.64"/>
	<line x1="1148.18" y1="776.70" x2="1212.97" y2="776.70" style="stroke:#F0F0F0;stroke-width:12.64"/>
	<line x1="1245.60" y1="776.70" x2="1310.40" y2="776.70" style="stroke:#F0F0F0;stroke-width:12.64"/>
	<line x1="1342.80" y1="776.70" x2="1407.60" y2="776.70" style="stroke:#F0F0F0;stroke-width:12.64"/>
	<line x1="1440.00" y1="776.70" x2="1504.80" y2="776.70" style="stroke:#F0F0F0;stroke-width:12.64"/>
	<line x1="1537.20" y1="776.70" x2="1602.00" y2="776.70" style="stroke:#F0F0F0;stroke-width:12.64"/>
	<line x1="1634.40" y1="776.70" x2="1699.20" y2="776.70" style="stroke:#F0F0F0;stroke-width:12.64"/>
	<line x1="1731.83" y1="776.70" x2="1796.63" y2="776.70" style="stroke:#F0F0F0;stroke-width:12.64"/>
	<line x1="1829.03" y1="776.70" x2="1893.83" y2="776.70" style="stroke:#F0F0F0;stroke-width:12.64"/>
	<line x1="1926.23" y1="776.70" x2="1991.03" y2="776.70" style="stroke:#F0F0F0;stroke-width:12.64"/>
	<line x1="2023.43" y1="776.70" x2="2088.23" y2="776.70" style="stroke:#F0F0F0;stroke-width:12.64"/>
	<line x1="2120.85" y1="776.70" x2="2185.65" y2="776.70" style="stroke:#F0F0F0;stroke-width:12.64"/>
	<line x1="2218.05" y1="776.70" x2="2282.85" y2="776.70" style="stroke:#F0F0F0;stroke-width:12.64"/>
	<line x1="2315.25" y1="776.70" x2="2380.05" y2="776.70" style="stroke:#F0F0F0;stroke-width:12.64"/>
	<line x1="2412.45" y1="776.70" x2="2477.25" y2="776.70" style="stroke:#F0F0F0;stroke-width:12.64"/>
	<line x1="2509.88" y1="776.70" x2="2574.68" y2="776.70" style="stroke:#F0F0F0;stroke-width:12.64"/>
	<line x1="2607.07" y1="776.70" x2="2671.88" y2="776.70" style="stroke:#F0F0F0;stroke-width:12.64"/>
	<line x1="2704.28" y1="776.70" x2="2769.08" y2="776.70" style="stroke:#F0F0F0;stroke-width:12.64"/>
	<line x1="2801.48" y1="776.70" x2="2866.28" y2="776.70" style="stroke:#F0F0F0;stroke-width:12.64"/>
	<line x1="2898.90" y1="776.70" x2="2963.70" y2="776.70" style="stroke:#F0F0F0;stroke-width:12.64"/>
	<line x1="2996.10" y1="776.70" x2="3060.90" y2="776.70" style="stroke:#F0F0F0;stroke-width:12.64"/>
	<line x1="3093.30" y1="776.70" x2="3158.10" y2="776.70" style="stroke:#F0F0F0;stroke-width:12.64"/>
	<line x1="3190.50" y1="776.70" x2="3255.30" y2="776.70" style="stroke:#F0F0F0;stroke-width:12.64"/>
	<line x1="3287.93" y1="776.70" x2="3352.73" y2="776.70" style="stroke:#F0F0F0;stroke-width:12.64"/>
	<line x1="3385.13" y1="776.70" x2="3449.93" y2="776.70" style="stroke:#F0F0F0;stroke-width:12.64"/>
	<rect x="776.48" y="918.00" width="320.85" height="1723.05" style="fill:#1A85FF"/>
	<rect x="780.69" y="922.21" width="312.43" height="1714.63" style="fill:none;stroke:#1A85FF;stroke-width:8.42"/>
	<rect x="1312.43" y="952.88" width="320.85" height="1688.18" style="fill:#1A85FF"/>
	<rect x="1316.64" y="957.09" width="312.43" height="1679.75" style="fill:none;stroke:#1A85FF;stroke-width:8.42"/>
	<rect x="1848.15" y="1066.72" width="321.07" height="1574.33" style="fill:#1A85FF"/>
	<rect x="1852.36" y="1070.94" width="312.65" height="1565.90" style="fill:none;stroke:#1A85FF;stroke-width:8.42"/>
	<rect x="2384.10" y="979.88" width="321.08" height="1661.18" style="fill:#1A85FF"/>
	<rect x="2388.31" y="984.09" width="312.65" height="1652.75" style="fill:none;stroke:#1A85FF;stroke-width:8.42"/>
	<rect x="2920.05" y="1014.53" width="320.85" height="1626.53" style="fill:#1A85FF"/>
	<rect x="2924.26" y="1018.74" width="312.43" height="1618.10" style="fill:none;stroke:#1A85FF;stroke-width:8.42"/>
	<line x1="564.75" y1="2641.05" x2="564.75" y2="430.20" style="stroke:#000000;stroke-width:8.42"/>
	<line x1="564.75" y1="2641.05" x2="506.25" y2="2641.05" style="stroke:#000000;stroke-width:8.42"/>
	<text x="477.00" y="2692.29" style="font-family:'Helvetica';font-size:146.25px;fill:#000000" text-anchor="end">0</text>
	<line x1="564.75" y1="2174.85" x2="506.25" y2="2174.85" style="stroke:#000000;stroke-width:8.42"/>
	<text x="477.00" y="2226.09" style="font-family:'Helvetica';font-size:146.25px;fill:#000000" text-anchor="end">.1</text>
	<line x1="564.75" y1="1708.88" x2="506.25" y2="1708.88" style="stroke:#000000;stroke-width:8.42"/>
	<text x="477.00" y="1760.12" style="font-family:'Helvetica';font-size:146.25px;fill:#000000" text-anchor="end">.2</text>
	<line x1="564.75" y1="1242.68" x2="506.25" y2="1242.68" style="stroke:#000000;stroke-width:8.42"/>
	<text x="477.00" y="1293.92" style="font-family:'Helvetica';font-size:146.25px;fill:#000000" text-anchor="end">.3</text>
	<line x1="564.75" y1="776.70" x2="506.25" y2="776.70" style="stroke:#000000;stroke-width:8.42"/>
	<text x="477.00" y="827.94" style="font-family:'Helvetica';font-size:146.25px;fill:#000000" text-anchor="end">.4</text>
	<line x1="564.75" y1="2641.05" x2="3452.63" y2="2641.05" style="stroke:#000000;stroke-width:8.42"/>
	<text x="936.90" y="2801.81" style="font-family:'Helvetica';font-size:146.25px;fill:#000000" text-anchor="middle">Baseline</text>
	<text x="1472.85" y="2948.06" style="font-family:'Helvetica';font-size:146.25px;fill:#000000" text-anchor="middle">Pollution</text>
	<text x="2008.80" y="2801.81" style="font-family:'Helvetica';font-size:146.25px;fill:#000000" text-anchor="middle">Public Services</text>
	<text x="2544.53" y="2948.06" style="font-family:'Helvetica';font-size:146.25px;fill:#000000" text-anchor="middle">Road Pricing</text>
	<text x="3080.48" y="2801.81" style="font-family:'Helvetica';font-size:146.25px;fill:#000000" text-anchor="middle">Social Norm</text>
	<text x="2008.80" y="380.81" style="font-family:'Helvetica';font-size:160.88px;fill:#000000" text-anchor="middle">Alternative 1</text>
	<rect x="3600.00" y="71.32" width="3528.68" height="3097.35" style="fill:#FFFFFF"/>
	<rect x="3604.21" y="75.54" width="3520.25" height="3088.93" style="fill:none;stroke:#FFFFFF;stroke-width:8.42"/>
	<rect x="4093.43" y="430.20" width="2887.88" height="2210.85" style="fill:#FFFFFF"/>
	<rect x="4097.64" y="434.41" width="2879.45" height="2202.43" style="fill:none;stroke:#FFFFFF;stroke-width:8.42"/>
	<line x1="4093.43" y1="2641.05" x2="4158.23" y2="2641.05" style="stroke:#F0F0F0;stroke-width:12.64"/>
	<line x1="4190.63" y1="2641.05" x2="4255.43" y2="2641.05" style="stroke:#F0F0F0;stroke-width:12.64"/>
	<line x1="4288.05" y1="2641.05" x2="4352.85" y2="2641.05" style="stroke:#F0F0F0;stroke-width:12.64"/>
	<line x1="4385.25" y1="2641.05" x2="4450.05" y2="2641.05" style="stroke:#F0F0F0;stroke-width:12.64"/>
	<line x1="4482.45" y1="2641.05" x2="4547.25" y2="2641.05" style="stroke:#F0F0F0;stroke-width:12.64"/>
	<line x1="4579.65" y1="2641.05" x2="4644.45" y2="2641.05" style="stroke:#F0F0F0;stroke-width:12.64"/>
	<line x1="4677.08" y1="2641.05" x2="4741.88" y2="2641.05" style="stroke:#F0F0F0;stroke-width:12.64"/>
	<line x1="4774.27" y1="2641.05" x2="4839.08" y2="2641.05" style="stroke:#F0F0F0;stroke-width:12.64"/>
	<line x1="4871.48" y1="2641.05" x2="4936.27" y2="2641.05" style="stroke:#F0F0F0;stroke-width:12.64"/>
	<line x1="4968.68" y1="2641.05" x2="5033.48" y2="2641.05" style="stroke:#F0F0F0;stroke-width:12.64"/>
	<line x1="5066.10" y1="2641.05" x2="5130.90" y2="2641.05" style="stroke:#F0F0F0;stroke-width:12.64"/>
	<line x1="5163.30" y1="2641.05" x2="5228.10" y2="2641.05" style="stroke:#F0F0F0;stroke-width:12.64"/>
	<line x1="5260.50" y1="2641.05" x2="5325.30" y2="2641.05" style="stroke:#F0F0F0;stroke-width:12.64"/>
	<line x1="5357.70" y1="2641.05" x2="5422.50" y2="2641.05" style="stroke:#F0F0F0;stroke-width:12.64"/>
	<line x1="5455.13" y1="2641.05" x2="5519.93" y2="2641.05" style="stroke:#F0F0F0;stroke-width:12.64"/>
	<line x1="5552.33" y1="2641.05" x2="5617.13" y2="2641.05" style="stroke:#F0F0F0;stroke-width:12.64"/>
	<line x1="5649.53" y1="2641.05" x2="5714.33" y2="2641.05" style="stroke:#F0F0F0;stroke-width:12.64"/>
	<line x1="5746.73" y1="2641.05" x2="5811.53" y2="2641.05" style="stroke:#F0F0F0;stroke-width:12.64"/>
	<line x1="5844.15" y1="2641.05" x2="5908.95" y2="2641.05" style="stroke:#F0F0F0;stroke-width:12.64"/>
	<line x1="5941.35" y1="2641.05" x2="6006.15" y2="2641.05" style="stroke:#F0F0F0;stroke-width:12.64"/>
	<line x1="6038.55" y1="2641.05" x2="6103.35" y2="2641.05" style="stroke:#F0F0F0;stroke-width:12.64"/>
	<line x1="6135.75" y1="2641.05" x2="6200.55" y2="2641.05" style="stroke:#F0F0F0;stroke-width:12.64"/>
	<line x1="6233.18" y1="2641.05" x2="6297.98" y2="2641.05" style="stroke:#F0F0F0;stroke-width:12.64"/>
	<line x1="6330.38" y1="2641.05" x2="6395.18" y2="2641.05" style="stroke:#F0F0F0;stroke-width:12.64"/>
	<line x1="6427.58" y1="2641.05" x2="6492.38" y2="2641.05" style="stroke:#F0F0F0;stroke-width:12.64"/>
	<line x1="6524.78" y1="2641.05" x2="6589.58" y2="2641.05" style="stroke:#F0F0F0;stroke-width:12.64"/>
	<line x1="6622.20" y1="2641.05" x2="6687.00" y2="2641.05" style="stroke:#F0F0F0;stroke-width:12.64"/>
	<line x1="6719.40" y1="2641.05" x2="6784.20" y2="2641.05" style="stroke:#F0F0F0;stroke-width:12.64"/>
	<line x1="6816.60" y1="2641.05" x2="6881.40" y2="2641.05" style="stroke:#F0F0F0;stroke-width:12.64"/>
	<line x1="6913.80" y1="2641.05" x2="6978.60" y2="2641.05" style="stroke:#F0F0F0;stroke-width:12.64"/>
	<line x1="4093.43" y1="2174.85" x2="4158.23" y2="2174.85" style="stroke:#F0F0F0;stroke-width:12.64"/>
	<line x1="4190.63" y1="2174.85" x2="4255.43" y2="2174.85" style="stroke:#F0F0F0;stroke-width:12.64"/>
	<line x1="4288.05" y1="2174.85" x2="4352.85" y2="2174.85" style="stroke:#F0F0F0;stroke-width:12.64"/>
	<line x1="4385.25" y1="2174.85" x2="4450.05" y2="2174.85" style="stroke:#F0F0F0;stroke-width:12.64"/>
	<line x1="4482.45" y1="2174.85" x2="4547.25" y2="2174.85" style="stroke:#F0F0F0;stroke-width:12.64"/>
	<line x1="4579.65" y1="2174.85" x2="4644.45" y2="2174.85" style="stroke:#F0F0F0;stroke-width:12.64"/>
	<line x1="4677.08" y1="2174.85" x2="4741.88" y2="2174.85" style="stroke:#F0F0F0;stroke-width:12.64"/>
	<line x1="4774.27" y1="2174.85" x2="4839.08" y2="2174.85" style="stroke:#F0F0F0;stroke-width:12.64"/>
	<line x1="4871.48" y1="2174.85" x2="4936.27" y2="2174.85" style="stroke:#F0F0F0;stroke-width:12.64"/>
	<line x1="4968.68" y1="2174.85" x2="5033.48" y2="2174.85" style="stroke:#F0F0F0;stroke-width:12.64"/>
	<line x1="5066.10" y1="2174.85" x2="5130.90" y2="2174.85" style="stroke:#F0F0F0;stroke-width:12.64"/>
	<line x1="5163.30" y1="2174.85" x2="5228.10" y2="2174.85" style="stroke:#F0F0F0;stroke-width:12.64"/>
	<line x1="5260.50" y1="2174.85" x2="5325.30" y2="2174.85" style="stroke:#F0F0F0;stroke-width:12.64"/>
	<line x1="5357.70" y1="2174.85" x2="5422.50" y2="2174.85" style="stroke:#F0F0F0;stroke-width:12.64"/>
	<line x1="5455.13" y1="2174.85" x2="5519.93" y2="2174.85" style="stroke:#F0F0F0;stroke-width:12.64"/>
	<line x1="5552.33" y1="2174.85" x2="5617.13" y2="2174.85" style="stroke:#F0F0F0;stroke-width:12.64"/>
	<line x1="5649.53" y1="2174.85" x2="5714.33" y2="2174.85" style="stroke:#F0F0F0;stroke-width:12.64"/>
	<line x1="5746.73" y1="2174.85" x2="5811.53" y2="2174.85" style="stroke:#F0F0F0;stroke-width:12.64"/>
	<line x1="5844.15" y1="2174.85" x2="5908.95" y2="2174.85" style="stroke:#F0F0F0;stroke-width:12.64"/>
	<line x1="5941.35" y1="2174.85" x2="6006.15" y2="2174.85" style="stroke:#F0F0F0;stroke-width:12.64"/>
	<line x1="6038.55" y1="2174.85" x2="6103.35" y2="2174.85" style="stroke:#F0F0F0;stroke-width:12.64"/>
	<line x1="6135.75" y1="2174.85" x2="6200.55" y2="2174.85" style="stroke:#F0F0F0;stroke-width:12.64"/>
	<line x1="6233.18" y1="2174.85" x2="6297.98" y2="2174.85" style="stroke:#F0F0F0;stroke-width:12.64"/>
	<line x1="6330.38" y1="2174.85" x2="6395.18" y2="2174.85" style="stroke:#F0F0F0;stroke-width:12.64"/>
	<line x1="6427.58" y1="2174.85" x2="6492.38" y2="2174.85" style="stroke:#F0F0F0;stroke-width:12.64"/>
	<line x1="6524.78" y1="2174.85" x2="6589.58" y2="2174.85" style="stroke:#F0F0F0;stroke-width:12.64"/>
	<line x1="6622.20" y1="2174.85" x2="6687.00" y2="2174.85" style="stroke:#F0F0F0;stroke-width:12.64"/>
	<line x1="6719.40" y1="2174.85" x2="6784.20" y2="2174.85" style="stroke:#F0F0F0;stroke-width:12.64"/>
	<line x1="6816.60" y1="2174.85" x2="6881.40" y2="2174.85" style="stroke:#F0F0F0;stroke-width:12.64"/>
	<line x1="6913.80" y1="2174.85" x2="6978.60" y2="2174.85" style="stroke:#F0F0F0;stroke-width:12.64"/>
	<line x1="4093.43" y1="1708.88" x2="4158.23" y2="1708.88" style="stroke:#F0F0F0;stroke-width:12.64"/>
	<line x1="4190.63" y1="1708.88" x2="4255.43" y2="1708.88" style="stroke:#F0F0F0;stroke-width:12.64"/>
	<line x1="4288.05" y1="1708.88" x2="4352.85" y2="1708.88" style="stroke:#F0F0F0;stroke-width:12.64"/>
	<line x1="4385.25" y1="1708.88" x2="4450.05" y2="1708.88" style="stroke:#F0F0F0;stroke-width:12.64"/>
	<line x1="4482.45" y1="1708.88" x2="4547.25" y2="1708.88" style="stroke:#F0F0F0;stroke-width:12.64"/>
	<line x1="4579.65" y1="1708.88" x2="4644.45" y2="1708.88" style="stroke:#F0F0F0;stroke-width:12.64"/>
	<line x1="4677.08" y1="1708.88" x2="4741.88" y2="1708.88" style="stroke:#F0F0F0;stroke-width:12.64"/>
	<line x1="4774.27" y1="1708.88" x2="4839.08" y2="1708.88" style="stroke:#F0F0F0;stroke-width:12.64"/>
	<line x1="4871.48" y1="1708.88" x2="4936.27" y2="1708.88" style="stroke:#F0F0F0;stroke-width:12.64"/>
	<line x1="4968.68" y1="1708.88" x2="5033.48" y2="1708.88" style="stroke:#F0F0F0;stroke-width:12.64"/>
	<line x1="5066.10" y1="1708.88" x2="5130.90" y2="1708.88" style="stroke:#F0F0F0;stroke-width:12.64"/>
	<line x1="5163.30" y1="1708.88" x2="5228.10" y2="1708.88" style="stroke:#F0F0F0;stroke-width:12.64"/>
	<line x1="5260.50" y1="1708.88" x2="5325.30" y2="1708.88" style="stroke:#F0F0F0;stroke-width:12.64"/>
	<line x1="5357.70" y1="1708.88" x2="5422.50" y2="1708.88" style="stroke:#F0F0F0;stroke-width:12.64"/>
	<line x1="5455.13" y1="1708.88" x2="5519.93" y2="1708.88" style="stroke:#F0F0F0;stroke-width:12.64"/>
	<line x1="5552.33" y1="1708.88" x2="5617.13" y2="1708.88" style="stroke:#F0F0F0;stroke-width:12.64"/>
	<line x1="5649.53" y1="1708.88" x2="5714.33" y2="1708.88" style="stroke:#F0F0F0;stroke-width:12.64"/>
	<line x1="5746.73" y1="1708.88" x2="5811.53" y2="1708.88" style="stroke:#F0F0F0;stroke-width:12.64"/>
	<line x1="5844.15" y1="1708.88" x2="5908.95" y2="1708.88" style="stroke:#F0F0F0;stroke-width:12.64"/>
	<line x1="5941.35" y1="1708.88" x2="6006.15" y2="1708.88" style="stroke:#F0F0F0;stroke-width:12.64"/>
	<line x1="6038.55" y1="1708.88" x2="6103.35" y2="1708.88" style="stroke:#F0F0F0;stroke-width:12.64"/>
	<line x1="6135.75" y1="1708.88" x2="6200.55" y2="1708.88" style="stroke:#F0F0F0;stroke-width:12.64"/>
	<line x1="6233.18" y1="1708.88" x2="6297.98" y2="1708.88" style="stroke:#F0F0F0;stroke-width:12.64"/>
	<line x1="6330.38" y1="1708.88" x2="6395.18" y2="1708.88" style="stroke:#F0F0F0;stroke-width:12.64"/>
	<line x1="6427.58" y1="1708.88" x2="6492.38" y2="1708.88" style="stroke:#F0F0F0;stroke-width:12.64"/>
	<line x1="6524.78" y1="1708.88" x2="6589.58" y2="1708.88" style="stroke:#F0F0F0;stroke-width:12.64"/>
	<line x1="6622.20" y1="1708.88" x2="6687.00" y2="1708.88" style="stroke:#F0F0F0;stroke-width:12.64"/>
	<line x1="6719.40" y1="1708.88" x2="6784.20" y2="1708.88" style="stroke:#F0F0F0;stroke-width:12.64"/>
	<line x1="6816.60" y1="1708.88" x2="6881.40" y2="1708.88" style="stroke:#F0F0F0;stroke-width:12.64"/>
	<line x1="6913.80" y1="1708.88" x2="6978.60" y2="1708.88" style="stroke:#F0F0F0;stroke-width:12.64"/>
	<line x1="4093.43" y1="1242.68" x2="4158.23" y2="1242.68" style="stroke:#F0F0F0;stroke-width:12.64"/>
	<line x1="4190.63" y1="1242.68" x2="4255.43" y2="1242.68" style="stroke:#F0F0F0;stroke-width:12.64"/>
	<line x1="4288.05" y1="1242.68" x2="4352.85" y2="1242.68" style="stroke:#F0F0F0;stroke-width:12.64"/>
	<line x1="4385.25" y1="1242.68" x2="4450.05" y2="1242.68" style="stroke:#F0F0F0;stroke-width:12.64"/>
	<line x1="4482.45" y1="1242.68" x2="4547.25" y2="1242.68" style="stroke:#F0F0F0;stroke-width:12.64"/>
	<line x1="4579.65" y1="1242.68" x2="4644.45" y2="1242.68" style="stroke:#F0F0F0;stroke-width:12.64"/>
	<line x1="4677.08" y1="1242.68" x2="4741.88" y2="1242.68" style="stroke:#F0F0F0;stroke-width:12.64"/>
	<line x1="4774.27" y1="1242.68" x2="4839.08" y2="1242.68" style="stroke:#F0F0F0;stroke-width:12.64"/>
	<line x1="4871.48" y1="1242.68" x2="4936.27" y2="1242.68" style="stroke:#F0F0F0;stroke-width:12.64"/>
	<line x1="4968.68" y1="1242.68" x2="5033.48" y2="1242.68" style="stroke:#F0F0F0;stroke-width:12.64"/>
	<line x1="5066.10" y1="1242.68" x2="5130.90" y2="1242.68" style="stroke:#F0F0F0;stroke-width:12.64"/>
	<line x1="5163.30" y1="1242.68" x2="5228.10" y2="1242.68" style="stroke:#F0F0F0;stroke-width:12.64"/>
	<line x1="5260.50" y1="1242.68" x2="5325.30" y2="1242.68" style="stroke:#F0F0F0;stroke-width:12.64"/>
	<line x1="5357.70" y1="1242.68" x2="5422.50" y2="1242.68" style="stroke:#F0F0F0;stroke-width:12.64"/>
	<line x1="5455.13" y1="1242.68" x2="5519.93" y2="1242.68" style="stroke:#F0F0F0;stroke-width:12.64"/>
	<line x1="5552.33" y1="1242.68" x2="5617.13" y2="1242.68" style="stroke:#F0F0F0;stroke-width:12.64"/>
	<line x1="5649.53" y1="1242.68" x2="5714.33" y2="1242.68" style="stroke:#F0F0F0;stroke-width:12.64"/>
	<line x1="5746.73" y1="1242.68" x2="5811.53" y2="1242.68" style="stroke:#F0F0F0;stroke-width:12.64"/>
	<line x1="5844.15" y1="1242.68" x2="5908.95" y2="1242.68" style="stroke:#F0F0F0;stroke-width:12.64"/>
	<line x1="5941.35" y1="1242.68" x2="6006.15" y2="1242.68" style="stroke:#F0F0F0;stroke-width:12.64"/>
	<line x1="6038.55" y1="1242.68" x2="6103.35" y2="1242.68" style="stroke:#F0F0F0;stroke-width:12.64"/>
	<line x1="6135.75" y1="1242.68" x2="6200.55" y2="1242.68" style="stroke:#F0F0F0;stroke-width:12.64"/>
	<line x1="6233.18" y1="1242.68" x2="6297.98" y2="1242.68" style="stroke:#F0F0F0;stroke-width:12.64"/>
	<line x1="6330.38" y1="1242.68" x2="6395.18" y2="1242.68" style="stroke:#F0F0F0;stroke-width:12.64"/>
	<line x1="6427.58" y1="1242.68" x2="6492.38" y2="1242.68" style="stroke:#F0F0F0;stroke-width:12.64"/>
	<line x1="6524.78" y1="1242.68" x2="6589.58" y2="1242.68" style="stroke:#F0F0F0;stroke-width:12.64"/>
	<line x1="6622.20" y1="1242.68" x2="6687.00" y2="1242.68" style="stroke:#F0F0F0;stroke-width:12.64"/>
	<line x1="6719.40" y1="1242.68" x2="6784.20" y2="1242.68" style="stroke:#F0F0F0;stroke-width:12.64"/>
	<line x1="6816.60" y1="1242.68" x2="6881.40" y2="1242.68" style="stroke:#F0F0F0;stroke-width:12.64"/>
	<line x1="6913.80" y1="1242.68" x2="6978.60" y2="1242.68" style="stroke:#F0F0F0;stroke-width:12.64"/>
	<line x1="4093.43" y1="776.70" x2="4158.23" y2="776.70" style="stroke:#F0F0F0;stroke-width:12.64"/>
	<line x1="4190.63" y1="776.70" x2="4255.43" y2="776.70" style="stroke:#F0F0F0;stroke-width:12.64"/>
	<line x1="4288.05" y1="776.70" x2="4352.85" y2="776.70" style="stroke:#F0F0F0;stroke-width:12.64"/>
	<line x1="4385.25" y1="776.70" x2="4450.05" y2="776.70" style="stroke:#F0F0F0;stroke-width:12.64"/>
	<line x1="4482.45" y1="776.70" x2="4547.25" y2="776.70" style="stroke:#F0F0F0;stroke-width:12.64"/>
	<line x1="4579.65" y1="776.70" x2="4644.45" y2="776.70" style="stroke:#F0F0F0;stroke-width:12.64"/>
	<line x1="4677.08" y1="776.70" x2="4741.88" y2="776.70" style="stroke:#F0F0F0;stroke-width:12.64"/>
	<line x1="4774.27" y1="776.70" x2="4839.08" y2="776.70" style="stroke:#F0F0F0;stroke-width:12.64"/>
	<line x1="4871.48" y1="776.70" x2="4936.27" y2="776.70" style="stroke:#F0F0F0;stroke-width:12.64"/>
	<line x1="4968.68" y1="776.70" x2="5033.48" y2="776.70" style="stroke:#F0F0F0;stroke-width:12.64"/>
	<line x1="5066.10" y1="776.70" x2="5130.90" y2="776.70" style="stroke:#F0F0F0;stroke-width:12.64"/>
	<line x1="5163.30" y1="776.70" x2="5228.10" y2="776.70" style="stroke:#F0F0F0;stroke-width:12.64"/>
	<line x1="5260.50" y1="776.70" x2="5325.30" y2="776.70" style="stroke:#F0F0F0;stroke-width:12.64"/>
	<line x1="5357.70" y1="776.70" x2="5422.50" y2="776.70" style="stroke:#F0F0F0;stroke-width:12.64"/>
	<line x1="5455.13" y1="776.70" x2="5519.93" y2="776.70" style="stroke:#F0F0F0;stroke-width:12.64"/>
	<line x1="5552.33" y1="776.70" x2="5617.13" y2="776.70" style="stroke:#F0F0F0;stroke-width:12.64"/>
	<line x1="5649.53" y1="776.70" x2="5714.33" y2="776.70" style="stroke:#F0F0F0;stroke-width:12.64"/>
	<line x1="5746.73" y1="776.70" x2="5811.53" y2="776.70" style="stroke:#F0F0F0;stroke-width:12.64"/>
	<line x1="5844.15" y1="776.70" x2="5908.95" y2="776.70" style="stroke:#F0F0F0;stroke-width:12.64"/>
	<line x1="5941.35" y1="776.70" x2="6006.15" y2="776.70" style="stroke:#F0F0F0;stroke-width:12.64"/>
	<line x1="6038.55" y1="776.70" x2="6103.35" y2="776.70" style="stroke:#F0F0F0;stroke-width:12.64"/>
	<line x1="6135.75" y1="776.70" x2="6200.55" y2="776.70" style="stroke:#F0F0F0;stroke-width:12.64"/>
	<line x1="6233.18" y1="776.70" x2="6297.98" y2="776.70" style="stroke:#F0F0F0;stroke-width:12.64"/>
	<line x1="6330.38" y1="776.70" x2="6395.18" y2="776.70" style="stroke:#F0F0F0;stroke-width:12.64"/>
	<line x1="6427.58" y1="776.70" x2="6492.38" y2="776.70" style="stroke:#F0F0F0;stroke-width:12.64"/>
	<line x1="6524.78" y1="776.70" x2="6589.58" y2="776.70" style="stroke:#F0F0F0;stroke-width:12.64"/>
	<line x1="6622.20" y1="776.70" x2="6687.00" y2="776.70" style="stroke:#F0F0F0;stroke-width:12.64"/>
	<line x1="6719.40" y1="776.70" x2="6784.20" y2="776.70" style="stroke:#F0F0F0;stroke-width:12.64"/>
	<line x1="6816.60" y1="776.70" x2="6881.40" y2="776.70" style="stroke:#F0F0F0;stroke-width:12.64"/>
	<line x1="6913.80" y1="776.70" x2="6978.60" y2="776.70" style="stroke:#F0F0F0;stroke-width:12.64"/>
	<rect x="4305.15" y="725.85" width="320.85" height="1915.20" style="fill:#1A85FF"/>
	<rect x="4309.36" y="730.06" width="312.43" height="1906.78" style="fill:none;stroke:#1A85FF;stroke-width:8.42"/>
	<rect x="4841.10" y="757.80" width="320.85" height="1883.25" style="fill:#1A85FF"/>
	<rect x="4845.31" y="762.01" width="312.43" height="1874.83" style="fill:none;stroke:#1A85FF;stroke-width:8.42"/>
	<rect x="5377.05" y="921.15" width="320.85" height="1719.90" style="fill:#1A85FF"/>
	<rect x="5381.26" y="925.36" width="312.43" height="1711.48" style="fill:none;stroke:#1A85FF;stroke-width:8.42"/>
	<rect x="5912.78" y="725.85" width="321.08" height="1915.20" style="fill:#1A85FF"/>
	<rect x="5916.99" y="730.06" width="312.65" height="1906.78" style="fill:none;stroke:#1A85FF;stroke-width:8.42"/>
	<rect x="6448.73" y="577.57" width="321.07" height="2063.48" style="fill:#1A85FF"/>
	<rect x="6452.94" y="581.79" width="312.65" height="2055.05" style="fill:none;stroke:#1A85FF;stroke-width:8.42"/>
	<line x1="4093.43" y1="2641.05" x2="4093.43" y2="430.20" style="stroke:#000000;stroke-width:8.42"/>
	<line x1="4093.43" y1="2641.05" x2="4034.93" y2="2641.05" style="stroke:#000000;stroke-width:8.42"/>
	<text x="4005.90" y="2692.29" style="font-family:'Helvetica';font-size:146.25px;fill:#000000" text-anchor="end">0</text>
	<line x1="4093.43" y1="2174.85" x2="4034.93" y2="2174.85" style="stroke:#000000;stroke-width:8.42"/>
	<text x="4005.90" y="2226.09" style="font-family:'Helvetica';font-size:146.25px;fill:#000000" text-anchor="end">.1</text>
	<line x1="4093.43" y1="1708.88" x2="4034.93" y2="1708.88" style="stroke:#000000;stroke-width:8.42"/>
	<text x="4005.90" y="1760.12" style="font-family:'Helvetica';font-size:146.25px;fill:#000000" text-anchor="end">.2</text>
	<line x1="4093.43" y1="1242.68" x2="4034.93" y2="1242.68" style="stroke:#000000;stroke-width:8.42"/>
	<text x="4005.90" y="1293.92" style="font-family:'Helvetica';font-size:146.25px;fill:#000000" text-anchor="end">.3</text>
	<line x1="4093.43" y1="776.70" x2="4034.93" y2="776.70" style="stroke:#000000;stroke-width:8.42"/>
	<text x="4005.90" y="827.94" style="font-family:'Helvetica';font-size:146.25px;fill:#000000" text-anchor="end">.4</text>
	<line x1="4093.43" y1="2641.05" x2="6981.30" y2="2641.05" style="stroke:#000000;stroke-width:8.42"/>
	<text x="4465.58" y="2801.81" style="font-family:'Helvetica';font-size:146.25px;fill:#000000" text-anchor="middle">Baseline</text>
	<text x="5001.52" y="2948.06" style="font-family:'Helvetica';font-size:146.25px;fill:#000000" text-anchor="middle">Pollution</text>
	<text x="5537.48" y="2801.81" style="font-family:'Helvetica';font-size:146.25px;fill:#000000" text-anchor="middle">Public Services</text>
	<text x="6073.43" y="2948.06" style="font-family:'Helvetica';font-size:146.25px;fill:#000000" text-anchor="middle">Road Pricing</text>
	<text x="6609.15" y="2801.81" style="font-family:'Helvetica';font-size:146.25px;fill:#000000" text-anchor="middle">Social Norm</text>
	<text x="5537.48" y="380.81" style="font-family:'Helvetica';font-size:160.88px;fill:#000000" text-anchor="middle">Alternative 2</text>
</svg>
