<?xml version="1.0" encoding="UTF-8" standalone="no"?>
<!-- This is a Stata 18.5 generated SVG file (http://www.stata.com) -->

<svg version="1.1" width="10.000in" height="4.500in" viewBox="0 0 7200 3240" xmlns="http://www.w3.org/2000/svg" xmlns:xlink="http://www.w3.org/1999/xlink">
	<desc>Stata Graph - Graph</desc>
	<rect x="0" y="0" width="7200" height="3240" style="fill:#FFFFFF;stroke:none"/>
	<rect x="0.00" y="0.00" width="7200.00" height="3240.00" style="fill:#FFFFFF"/>
	<rect x="3.24" y="3.24" width="7193.52" height="3233.52" style="fill:none;stroke:#FFFFFF;stroke-width:6.48"/>
	<rect x="71.33" y="71.32" width="2352.38" height="3097.35" style="fill:#FFFFFF"/>
	<rect x="75.54" y="75.54" width="2343.95" height="3088.93" style="fill:none;stroke:#FFFFFF;stroke-width:8.42"/>
	<rect x="564.75" y="430.20" width="1711.57" height="2357.10" style="fill:#FFFFFF"/>
	<rect x="568.96" y="434.41" width="1703.15" height="2348.68" style="fill:none;stroke:#FFFFFF;stroke-width:8.42"/>
	<line x1="564.75" y1="2787.30" x2="629.55" y2="2787.30" style="stroke:#F0F0F0;stroke-width:12.64"/>
	<line x1="661.95" y1="2787.30" x2="726.75" y2="2787.30" style="stroke:#F0F0F0;stroke-width:12.64"/>
	<line x1="759.15" y1="2787.30" x2="823.95" y2="2787.30" style="stroke:#F0F0F0;stroke-width:12.64"/>
	<line x1="856.58" y1="2787.30" x2="921.38" y2="2787.30" style="stroke:#F0F0F0;stroke-width:12.64"/>
	<line x1="953.78" y1="2787.30" x2="1018.58" y2="2787.30" style="stroke:#F0F0F0;stroke-width:12.64"/>
	<line x1="1050.97" y1="2787.30" x2="1115.78" y2="2787.30" style="stroke:#F0F0F0;stroke-width:12.64"/>
	<line x1="1148.18" y1="2787.30" x2="1212.97" y2="2787.30" style="stroke:#F0F0F0;stroke-width:12.64"/>
	<line x1="1245.60" y1="2787.30" x2="1310.40" y2="2787.30" style="stroke:#F0F0F0;stroke-width:12.64"/>
	<line x1="1342.80" y1="2787.30" x2="1407.60" y2="2787.30" style="stroke:#F0F0F0;stroke-width:12.64"/>
	<line x1="1440.00" y1="2787.30" x2="1504.80" y2="2787.30" style="stroke:#F0F0F0;stroke-width:12.64"/>
	<line x1="1537.20" y1="2787.30" x2="1602.00" y2="2787.30" style="stroke:#F0F0F0;stroke-width:12.64"/>
	<line x1="1634.40" y1="2787.30" x2="1699.20" y2="2787.30" style="stroke:#F0F0F0;stroke-width:12.64"/>
	<line x1="1731.83" y1="2787.30" x2="1796.63" y2="2787.30" style="stroke:#F0F0F0;stroke-width:12.64"/>
	<line x1="1829.03" y1="2787.30" x2="1893.83" y2="2787.30" style="stroke:#F0F0F0;stroke-width:12.64"/>
	<line x1="1926.23" y1="2787.30" x2="1991.03" y2="2787.30" style="stroke:#F0F0F0;stroke-width:12.64"/>
	<line x1="2023.43" y1="2787.30" x2="2088.23" y2="2787.30" style="stroke:#F0F0F0;stroke-width:12.64"/>
	<line x1="2120.85" y1="2787.30" x2="2185.65" y2="2787.30" style="stroke:#F0F0F0;stroke-width:12.64"/>
	<line x1="2218.05" y1="2787.30" x2="2276.32" y2="2787.30" style="stroke:#F0F0F0;stroke-width:12.64"/>
	<line x1="564.75" y1="2345.40" x2="629.55" y2="2345.40" style="stroke:#F0F0F0;stroke-width:12.64"/>
	<line x1="661.95" y1="2345.40" x2="726.75" y2="2345.40" style="stroke:#F0F0F0;stroke-width:12.64"/>
	<line x1="759.15" y1="2345.40" x2="823.95" y2="2345.40" style="stroke:#F0F0F0;stroke-width:12.64"/>
	<line x1="856.58" y1="2345.40" x2="921.38" y2="2345.40" style="stroke:#F0F0F0;stroke-width:12.64"/>
	<line x1="953.78" y1="2345.40" x2="1018.58" y2="2345.40" style="stroke:#F0F0F0;stroke-width:12.64"/>
	<line x1="1050.97" y1="2345.40" x2="1115.78" y2="2345.40" style="stroke:#F0F0F0;stroke-width:12.64"/>
	<line x1="1148.18" y1="2345.40" x2="1212.97" y2="2345.40" style="stroke:#F0F0F0;stroke-width:12.64"/>
	<line x1="1245.60" y1="2345.40" x2="1310.40" y2="2345.40" style="stroke:#F0F0F0;stroke-width:12.64"/>
	<line x1="1342.80" y1="2345.40" x2="1407.60" y2="2345.40" style="stroke:#F0F0F0;stroke-width:12.64"/>
	<line x1="1440.00" y1="2345.40" x2="1504.80" y2="2345.40" style="stroke:#F0F0F0;stroke-width:12.64"/>
	<line x1="1537.20" y1="2345.40" x2="1602.00" y2="2345.40" style="stroke:#F0F0F0;stroke-width:12.64"/>
	<line x1="1634.40" y1="2345.40" x2="1699.20" y2="2345.40" style="stroke:#F0F0F0;stroke-width:12.64"/>
	<line x1="1731.83" y1="2345.40" x2="1796.63" y2="2345.40" style="stroke:#F0F0F0;stroke-width:12.64"/>
	<line x1="1829.03" y1="2345.40" x2="1893.83" y2="2345.40" style="stroke:#F0F0F0;stroke-width:12.64"/>
	<line x1="1926.23" y1="2345.40" x2="1991.03" y2="2345.40" style="stroke:#F0F0F0;stroke-width:12.64"/>
	<line x1="2023.43" y1="2345.40" x2="2088.23" y2="2345.40" style="stroke:#F0F0F0;stroke-width:12.64"/>
	<line x1="2120.85" y1="2345.40" x2="2185.65" y2="2345.40" style="stroke:#F0F0F0;stroke-width:12.64"/>
	<line x1="2218.05" y1="2345.40" x2="2276.32" y2="2345.40" style="stroke:#F0F0F0;stroke-width:12.64"/>
	<line x1="564.75" y1="1903.50" x2="629.55" y2="1903.50" style="stroke:#F0F0F0;stroke-width:12.64"/>
	<line x1="661.95" y1="1903.50" x2="726.75" y2="1903.50" style="stroke:#F0F0F0;stroke-width:12.64"/>
	<line x1="759.15" y1="1903.50" x2="823.95" y2="1903.50" style="stroke:#F0F0F0;stroke-width:12.64"/>
	<line x1="856.58" y1="1903.50" x2="921.38" y2="1903.50" style="stroke:#F0F0F0;stroke-width:12.64"/>
	<line x1="953.78" y1="1903.50" x2="1018.58" y2="1903.50" style="stroke:#F0F0F0;stroke-width:12.64"/>
	<line x1="1050.97" y1="1903.50" x2="1115.78" y2="1903.50" style="stroke:#F0F0F0;stroke-width:12.64"/>
	<line x1="1148.18" y1="1903.50" x2="1212.97" y2="1903.50" style="stroke:#F0F0F0;stroke-width:12.64"/>
	<line x1="1245.60" y1="1903.50" x2="1310.40" y2="1903.50" style="stroke:#F0F0F0;stroke-width:12.64"/>
	<line x1="1342.80" y1="1903.50" x2="1407.60" y2="1903.50" style="stroke:#F0F0F0;stroke-width:12.64"/>
	<line x1="1440.00" y1="1903.50" x2="1504.80" y2="1903.50" style="stroke:#F0F0F0;stroke-width:12.64"/>
	<line x1="1537.20" y1="1903.50" x2="1602.00" y2="1903.50" style="stroke:#F0F0F0;stroke-width:12.64"/>
	<line x1="1634.40" y1="1903.50" x2="1699.20" y2="1903.50" style="stroke:#F0F0F0;stroke-width:12.64"/>
	<line x1="1731.83" y1="1903.50" x2="1796.63" y2="1903.50" style="stroke:#F0F0F0;stroke-width:12.64"/>
	<line x1="1829.03" y1="1903.50" x2="1893.83" y2="1903.50" style="stroke:#F0F0F0;stroke-width:12.64"/>
	<line x1="1926.23" y1="1903.50" x2="1991.03" y2="1903.50" style="stroke:#F0F0F0;stroke-width:12.64"/>
	<line x1="2023.43" y1="1903.50" x2="2088.23" y2="1903.50" style="stroke:#F0F0F0;stroke-width:12.64"/>
	<line x1="2120.85" y1="1903.50" x2="2185.65" y2="1903.50" style="stroke:#F0F0F0;stroke-width:12.64"/>
	<line x1="2218.05" y1="1903.50" x2="2276.32" y2="1903.50" style="stroke:#F0F0F0;stroke-width:12.64"/>
	<line x1="564.75" y1="1461.38" x2="629.55" y2="1461.38" style="stroke:#F0F0F0;stroke-width:12.64"/>
	<line x1="661.95" y1="1461.38" x2="726.75" y2="1461.38" style="stroke:#F0F0F0;stroke-width:12.64"/>
	<line x1="759.15" y1="1461.38" x2="823.95" y2="1461.38" style="stroke:#F0F0F0;stroke-width:12.64"/>
	<line x1="856.58" y1="1461.38" x2="921.38" y2="1461.38" style="stroke:#F0F0F0;stroke-width:12.64"/>
	<line x1="953.78" y1="1461.38" x2="1018.58" y2="1461.38" style="stroke:#F0F0F0;stroke-width:12.64"/>
	<line x1="1050.97" y1="1461.38" x2="1115.78" y2="1461.38" style="stroke:#F0F0F0;stroke-width:12.64"/>
	<line x1="1148.18" y1="1461.38" x2="1212.97" y2="1461.38" style="stroke:#F0F0F0;stroke-width:12.64"/>
	<line x1="1245.60" y1="1461.38" x2="1310.40" y2="1461.38" style="stroke:#F0F0F0;stroke-width:12.64"/>
	<line x1="1342.80" y1="1461.38" x2="1407.60" y2="1461.38" style="stroke:#F0F0F0;stroke-width:12.64"/>
	<line x1="1440.00" y1="1461.38" x2="1504.80" y2="1461.38" style="stroke:#F0F0F0;stroke-width:12.64"/>
	<line x1="1537.20" y1="1461.38" x2="1602.00" y2="1461.38" style="stroke:#F0F0F0;stroke-width:12.64"/>
	<line x1="1634.40" y1="1461.38" x2="1699.20" y2="1461.38" style="stroke:#F0F0F0;stroke-width:12.64"/>
	<line x1="1731.83" y1="1461.38" x2="1796.63" y2="1461.38" style="stroke:#F0F0F0;stroke-width:12.64"/>
	<line x1="1829.03" y1="1461.38" x2="1893.83" y2="1461.38" style="stroke:#F0F0F0;stroke-width:12.64"/>
	<line x1="1926.23" y1="1461.38" x2="1991.03" y2="1461.38" style="stroke:#F0F0F0;stroke-width:12.64"/>
	<line x1="2023.43" y1="1461.38" x2="2088.23" y2="1461.38" style="stroke:#F0F0F0;stroke-width:12.64"/>
	<line x1="2120.85" y1="1461.38" x2="2185.65" y2="1461.38" style="stroke:#F0F0F0;stroke-width:12.64"/>
	<line x1="2218.05" y1="1461.38" x2="2276.32" y2="1461.38" style="stroke:#F0F0F0;stroke-width:12.64"/>
	<line x1="564.75" y1="1019.47" x2="629.55" y2="1019.47" style="stroke:#F0F0F0;stroke-width:12.64"/>
	<line x1="661.95" y1="1019.47" x2="726.75" y2="1019.47" style="stroke:#F0F0F0;stroke-width:12.64"/>
	<line x1="759.15" y1="1019.47" x2="823.95" y2="1019.47" style="stroke:#F0F0F0;stroke-width:12.64"/>
	<line x1="856.58" y1="1019.47" x2="921.38" y2="1019.47" style="stroke:#F0F0F0;stroke-width:12.64"/>
	<line x1="953.78" y1="1019.47" x2="1018.58" y2="1019.47" style="stroke:#F0F0F0;stroke-width:12.64"/>
	<line x1="1050.97" y1="1019.47" x2="1115.78" y2="1019.47" style="stroke:#F0F0F0;stroke-width:12.64"/>
	<line x1="1148.18" y1="1019.47" x2="1212.97" y2="1019.47" style="stroke:#F0F0F0;stroke-width:12.64"/>
	<line x1="1245.60" y1="1019.47" x2="1310.40" y2="1019.47" style="stroke:#F0F0F0;stroke-width:12.64"/>
	<line x1="1342.80" y1="1019.47" x2="1407.60" y2="1019.47" style="stroke:#F0F0F0;stroke-width:12.64"/>
	<line x1="1440.00" y1="1019.47" x2="1504.80" y2="1019.47" style="stroke:#F0F0F0;stroke-width:12.64"/>
	<line x1="1537.20" y1="1019.47" x2="1602.00" y2="1019.47" style="stroke:#F0F0F0;stroke-width:12.64"/>
	<line x1="1634.40" y1="1019.47" x2="1699.20" y2="1019.47" style="stroke:#F0F0F0;stroke-width:12.64"/>
	<line x1="1731.83" y1="1019.47" x2="1796.63" y2="1019.47" style="stroke:#F0F0F0;stroke-width:12.64"/>
	<line x1="1829.03" y1="1019.47" x2="1893.83" y2="1019.47" style="stroke:#F0F0F0;stroke-width:12.64"/>
	<line x1="1926.23" y1="1019.47" x2="1991.03" y2="1019.47" style="stroke:#F0F0F0;stroke-width:12.64"/>
	<line x1="2023.43" y1="1019.47" x2="2088.23" y2="1019.47" style="stroke:#F0F0F0;stroke-width:12.64"/>
	<line x1="2120.85" y1="1019.47" x2="2185.65" y2="1019.47" style="stroke:#F0F0F0;stroke-width:12.64"/>
	<line x1="2218.05" y1="1019.47" x2="2276.32" y2="1019.47" style="stroke:#F0F0F0;stroke-width:12.64"/>
	<line x1="564.75" y1="577.57" x2="629.55" y2="577.57" style="stroke:#F0F0F0;stroke-width:12.64"/>
	<line x1="661.95" y1="577.57" x2="726.75" y2="577.57" style="stroke:#F0F0F0;stroke-width:12.64"/>
	<line x1="759.15" y1="577.57" x2="823.95" y2="577.57" style="stroke:#F0F0F0;stroke-width:12.64"/>
	<line x1="856.58" y1="577.57" x2="921.38" y2="577.57" style="stroke:#F0F0F0;stroke-width:12.64"/>
	<line x1="953.78" y1="577.57" x2="1018.58" y2="577.57" style="stroke:#F0F0F0;stroke-width:12.64"/>
	<line x1="1050.97" y1="577.57" x2="1115.78" y2="577.57" style="stroke:#F0F0F0;stroke-width:12.64"/>
	<line x1="1148.18" y1="577.57" x2="1212.97" y2="577.57" style="stroke:#F0F0F0;stroke-width:12.64"/>
	<line x1="1245.60" y1="577.57" x2="1310.40" y2="577.57" style="stroke:#F0F0F0;stroke-width:12.64"/>
	<line x1="1342.80" y1="577.57" x2="1407.60" y2="577.57" style="stroke:#F0F0F0;stroke-width:12.64"/>
	<line x1="1440.00" y1="577.57" x2="1504.80" y2="577.57" style="stroke:#F0F0F0;stroke-width:12.64"/>
	<line x1="1537.20" y1="577.57" x2="1602.00" y2="577.57" style="stroke:#F0F0F0;stroke-width:12.64"/>
	<line x1="1634.40" y1="577.57" x2="1699.20" y2="577.57" style="stroke:#F0F0F0;stroke-width:12.64"/>
	<line x1="1731.83" y1="577.57" x2="1796.63" y2="577.57" style="stroke:#F0F0F0;stroke-width:12.64"/>
	<line x1="1829.03" y1="577.57" x2="1893.83" y2="577.57" style="stroke:#F0F0F0;stroke-width:12.64"/>
	<line x1="1926.23" y1="577.57" x2="1991.03" y2="577.57" style="stroke:#F0F0F0;stroke-width:12.64"/>
	<line x1="2023.43" y1="577.57" x2="2088.23" y2="577.57" style="stroke:#F0F0F0;stroke-width:12.64"/>
	<line x1="2120.85" y1="577.57" x2="2185.65" y2="577.57" style="stroke:#F0F0F0;stroke-width:12.64"/>
	<line x1="2218.05" y1="577.57" x2="2276.32" y2="577.57" style="stroke:#F0F0F0;stroke-width:12.64"/>
	<rect x="756.45" y="680.63" width="220.95" height="2106.68" style="fill:#1A85FF"/>
	<rect x="760.66" y="684.84" width="212.53" height="2098.25" style="fill:none;stroke:#1A85FF;stroke-width:8.42"/>
	<rect x="1125.45" y="827.78" width="221.17" height="1959.53" style="fill:#1A85FF"/>
	<rect x="1129.66" y="831.99" width="212.75" height="1951.10" style="fill:none;stroke:#1A85FF;stroke-width:8.42"/>
	<rect x="1494.68" y="1185.07" width="220.95" height="1602.23" style="fill:#1A85FF"/>
	<rect x="1498.89" y="1189.29" width="212.53" height="1593.80" style="fill:none;stroke:#1A85FF;stroke-width:8.42"/>
	<rect x="1863.68" y="1369.35" width="220.95" height="1417.95" style="fill:#1A85FF"/>
	<rect x="1867.89" y="1373.56" width="212.53" height="1409.53" style="fill:none;stroke:#1A85FF;stroke-width:8.42"/>
	<line x1="564.75" y1="2787.30" x2="564.75" y2="430.20" style="stroke:#000000;stroke-width:8.42"/>
	<line x1="564.75" y1="2787.30" x2="506.25" y2="2787.30" style="stroke:#000000;stroke-width:8.42"/>
	<text x="477.00" y="2838.54" style="font-family:'Helvetica';font-size:146.25px;fill:#000000" text-anchor="end">0</text>
	<line x1="564.75" y1="2345.40" x2="506.25" y2="2345.40" style="stroke:#000000;stroke-width:8.42"/>
	<text x="477.00" y="2396.64" style="font-family:'Helvetica';font-size:146.25px;fill:#000000" text-anchor="end">.1</text>
	<line x1="564.75" y1="1903.50" x2="506.25" y2="1903.50" style="stroke:#000000;stroke-width:8.42"/>
	<text x="477.00" y="1954.74" style="font-family:'Helvetica';font-size:146.25px;fill:#000000" text-anchor="end">.2</text>
	<line x1="564.75" y1="1461.38" x2="506.25" y2="1461.38" style="stroke:#000000;stroke-width:8.42"/>
	<text x="477.00" y="1512.62" style="font-family:'Helvetica';font-size:146.25px;fill:#000000" text-anchor="end">.3</text>
	<line x1="564.75" y1="1019.47" x2="506.25" y2="1019.47" style="stroke:#000000;stroke-width:8.42"/>
	<text x="477.00" y="1070.72" style="font-family:'Helvetica';font-size:146.25px;fill:#000000" text-anchor="end">.4</text>
	<line x1="564.75" y1="577.57" x2="506.25" y2="577.57" style="stroke:#000000;stroke-width:8.42"/>
	<text x="477.00" y="628.82" style="font-family:'Helvetica';font-size:146.25px;fill:#000000" text-anchor="end">.5</text>
	<line x1="564.75" y1="2787.30" x2="2276.32" y2="2787.30" style="stroke:#000000;stroke-width:8.42"/>
	<text x="866.93" y="2948.06" style="font-family:'Helvetica';font-size:146.25px;fill:#000000" text-anchor="middle">.05</text>
	<text x="1235.93" y="2948.06" style="font-family:'Helvetica';font-size:146.25px;fill:#000000" text-anchor="middle">.1</text>
	<text x="1605.15" y="2948.06" style="font-family:'Helvetica';font-size:146.25px;fill:#000000" text-anchor="middle">.3</text>
	<text x="1974.15" y="2948.06" style="font-family:'Helvetica';font-size:146.25px;fill:#000000" text-anchor="middle">.5</text>
	<text x="1420.65" y="380.81" style="font-family:'Helvetica';font-size:160.88px;fill:#000000" text-anchor="middle">Choice, by Price ur</text>
	<rect x="2423.70" y="71.32" width="2352.60" height="3097.35" style="fill:#FFFFFF"/>
	<rect x="2427.91" y="75.54" width="2344.18" height="3088.93" style="fill:none;stroke:#FFFFFF;stroke-width:8.42"/>
	<rect x="2917.35" y="430.20" width="1711.58" height="2357.10" style="fill:#FFFFFF"/>
	<rect x="2921.56" y="434.41" width="1703.15" height="2348.68" style="fill:none;stroke:#FFFFFF;stroke-width:8.42"/>
	<line x1="2917.35" y1="2787.30" x2="2982.15" y2="2787.30" style="stroke:#F0F0F0;stroke-width:12.64"/>
	<line x1="3014.55" y1="2787.30" x2="3079.35" y2="2787.30" style="stroke:#F0F0F0;stroke-width:12.64"/>
	<line x1="3111.75" y1="2787.30" x2="3176.55" y2="2787.30" style="stroke:#F0F0F0;stroke-width:12.64"/>
	<line x1="3209.18" y1="2787.30" x2="3273.98" y2="2787.30" style="stroke:#F0F0F0;stroke-width:12.64"/>
	<line x1="3306.38" y1="2787.30" x2="3371.18" y2="2787.30" style="stroke:#F0F0F0;stroke-width:12.64"/>
	<line x1="3403.58" y1="2787.30" x2="3468.38" y2="2787.30" style="stroke:#F0F0F0;stroke-width:12.64"/>
	<line x1="3500.78" y1="2787.30" x2="3565.58" y2="2787.30" style="stroke:#F0F0F0;stroke-width:12.64"/>
	<line x1="3598.20" y1="2787.30" x2="3663.00" y2="2787.30" style="stroke:#F0F0F0;stroke-width:12.64"/>
	<line x1="3695.40" y1="2787.30" x2="3760.20" y2="2787.30" style="stroke:#F0F0F0;stroke-width:12.64"/>
	<line x1="3792.60" y1="2787.30" x2="3857.40" y2="2787.30" style="stroke:#F0F0F0;stroke-width:12.64"/>
	<line x1="3889.80" y1="2787.30" x2="3954.60" y2="2787.30" style="stroke:#F0F0F0;stroke-width:12.64"/>
	<line x1="3987.23" y1="2787.30" x2="4052.03" y2="2787.30" style="stroke:#F0F0F0;stroke-width:12.64"/>
	<line x1="4084.43" y1="2787.30" x2="4149.23" y2="2787.30" style="stroke:#F0F0F0;stroke-width:12.64"/>
	<line x1="4181.63" y1="2787.30" x2="4246.43" y2="2787.30" style="stroke:#F0F0F0;stroke-width:12.64"/>
	<line x1="4278.83" y1="2787.30" x2="4343.63" y2="2787.30" style="stroke:#F0F0F0;stroke-width:12.64"/>
	<line x1="4376.25" y1="2787.30" x2="4441.05" y2="2787.30" style="stroke:#F0F0F0;stroke-width:12.64"/>
	<line x1="4473.45" y1="2787.30" x2="4538.25" y2="2787.30" style="stroke:#F0F0F0;stroke-width:12.64"/>
	<line x1="4570.65" y1="2787.30" x2="4628.93" y2="2787.30" style="stroke:#F0F0F0;stroke-width:12.64"/>
	<line x1="2917.35" y1="2345.40" x2="2982.15" y2="2345.40" style="stroke:#F0F0F0;stroke-width:12.64"/>
	<line x1="3014.55" y1="2345.40" x2="3079.35" y2="2345.40" style="stroke:#F0F0F0;stroke-width:12.64"/>
	<line x1="3111.75" y1="2345.40" x2="3176.55" y2="2345.40" style="stroke:#F0F0F0;stroke-width:12.64"/>
	<line x1="3209.18" y1="2345.40" x2="3273.98" y2="2345.40" style="stroke:#F0F0F0;stroke-width:12.64"/>
	<line x1="3306.38" y1="2345.40" x2="3371.18" y2="2345.40" style="stroke:#F0F0F0;stroke-width:12.64"/>
	<line x1="3403.58" y1="2345.40" x2="3468.38" y2="2345.40" style="stroke:#F0F0F0;stroke-width:12.64"/>
	<line x1="3500.78" y1="2345.40" x2="3565.58" y2="2345.40" style="stroke:#F0F0F0;stroke-width:12.64"/>
	<line x1="3598.20" y1="2345.40" x2="3663.00" y2="2345.40" style="stroke:#F0F0F0;stroke-width:12.64"/>
	<line x1="3695.40" y1="2345.40" x2="3760.20" y2="2345.40" style="stroke:#F0F0F0;stroke-width:12.64"/>
	<line x1="3792.60" y1="2345.40" x2="3857.40" y2="2345.40" style="stroke:#F0F0F0;stroke-width:12.64"/>
	<line x1="3889.80" y1="2345.40" x2="3954.60" y2="2345.40" style="stroke:#F0F0F0;stroke-width:12.64"/>
	<line x1="3987.23" y1="2345.40" x2="4052.03" y2="2345.40" style="stroke:#F0F0F0;stroke-width:12.64"/>
	<line x1="4084.43" y1="2345.40" x2="4149.23" y2="2345.40" style="stroke:#F0F0F0;stroke-width:12.64"/>
	<line x1="4181.63" y1="2345.40" x2="4246.43" y2="2345.40" style="stroke:#F0F0F0;stroke-width:12.64"/>
	<line x1="4278.83" y1="2345.40" x2="4343.63" y2="2345.40" style="stroke:#F0F0F0;stroke-width:12.64"/>
	<line x1="4376.25" y1="2345.40" x2="4441.05" y2="2345.40" style="stroke:#F0F0F0;stroke-width:12.64"/>
	<line x1="4473.45" y1="2345.40" x2="4538.25" y2="2345.40" style="stroke:#F0F0F0;stroke-width:12.64"/>
	<line x1="4570.65" y1="2345.40" x2="4628.93" y2="2345.40" style="stroke:#F0F0F0;stroke-width:12.64"/>
	<line x1="2917.35" y1="1903.50" x2="2982.15" y2="1903.50" style="stroke:#F0F0F0;stroke-width:12.64"/>
	<line x1="3014.55" y1="1903.50" x2="3079.35" y2="1903.50" style="stroke:#F0F0F0;stroke-width:12.64"/>
	<line x1="3111.75" y1="1903.50" x2="3176.55" y2="1903.50" style="stroke:#F0F0F0;stroke-width:12.64"/>
	<line x1="3209.18" y1="1903.50" x2="3273.98" y2="1903.50" style="stroke:#F0F0F0;stroke-width:12.64"/>
	<line x1="3306.38" y1="1903.50" x2="3371.18" y2="1903.50" style="stroke:#F0F0F0;stroke-width:12.64"/>
	<line x1="3403.58" y1="1903.50" x2="3468.38" y2="1903.50" style="stroke:#F0F0F0;stroke-width:12.64"/>
	<line x1="3500.78" y1="1903.50" x2="3565.58" y2="1903.50" style="stroke:#F0F0F0;stroke-width:12.64"/>
	<line x1="3598.20" y1="1903.50" x2="3663.00" y2="1903.50" style="stroke:#F0F0F0;stroke-width:12.64"/>
	<line x1="3695.40" y1="1903.50" x2="3760.20" y2="1903.50" style="stroke:#F0F0F0;stroke-width:12.64"/>
	<line x1="3792.60" y1="1903.50" x2="3857.40" y2="1903.50" style="stroke:#F0F0F0;stroke-width:12.64"/>
	<line x1="3889.80" y1="1903.50" x2="3954.60" y2="1903.50" style="stroke:#F0F0F0;stroke-width:12.64"/>
	<line x1="3987.23" y1="1903.50" x2="4052.03" y2="1903.50" style="stroke:#F0F0F0;stroke-width:12.64"/>
	<line x1="4084.43" y1="1903.50" x2="4149.23" y2="1903.50" style="stroke:#F0F0F0;stroke-width:12.64"/>
	<line x1="4181.63" y1="1903.50" x2="4246.43" y2="1903.50" style="stroke:#F0F0F0;stroke-width:12.64"/>
	<line x1="4278.83" y1="1903.50" x2="4343.63" y2="1903.50" style="stroke:#F0F0F0;stroke-width:12.64"/>
	<line x1="4376.25" y1="1903.50" x2="4441.05" y2="1903.50" style="stroke:#F0F0F0;stroke-width:12.64"/>
	<line x1="4473.45" y1="1903.50" x2="4538.25" y2="1903.50" style="stroke:#F0F0F0;stroke-width:12.64"/>
	<line x1="4570.65" y1="1903.50" x2="4628.93" y2="1903.50" style="stroke:#F0F0F0;stroke-width:12.64"/>
	<line x1="2917.35" y1="1461.38" x2="2982.15" y2="1461.38" style="stroke:#F0F0F0;stroke-width:12.64"/>
	<line x1="3014.55" y1="1461.38" x2="3079.35" y2="1461.38" style="stroke:#F0F0F0;stroke-width:12.64"/>
	<line x1="3111.75" y1="1461.38" x2="3176.55" y2="1461.38" style="stroke:#F0F0F0;stroke-width:12.64"/>
	<line x1="3209.18" y1="1461.38" x2="3273.98" y2="1461.38" style="stroke:#F0F0F0;stroke-width:12.64"/>
	<line x1="3306.38" y1="1461.38" x2="3371.18" y2="1461.38" style="stroke:#F0F0F0;stroke-width:12.64"/>
	<line x1="3403.58" y1="1461.38" x2="3468.38" y2="1461.38" style="stroke:#F0F0F0;stroke-width:12.64"/>
	<line x1="3500.78" y1="1461.38" x2="3565.58" y2="1461.38" style="stroke:#F0F0F0;stroke-width:12.64"/>
	<line x1="3598.20" y1="1461.38" x2="3663.00" y2="1461.38" style="stroke:#F0F0F0;stroke-width:12.64"/>
	<line x1="3695.40" y1="1461.38" x2="3760.20" y2="1461.38" style="stroke:#F0F0F0;stroke-width:12.64"/>
	<line x1="3792.60" y1="1461.38" x2="3857.40" y2="1461.38" style="stroke:#F0F0F0;stroke-width:12.64"/>
	<line x1="3889.80" y1="1461.38" x2="3954.60" y2="1461.38" style="stroke:#F0F0F0;stroke-width:12.64"/>
	<line x1="3987.23" y1="1461.38" x2="4052.03" y2="1461.38" style="stroke:#F0F0F0;stroke-width:12.64"/>
	<line x1="4084.43" y1="1461.38" x2="4149.23" y2="1461.38" style="stroke:#F0F0F0;stroke-width:12.64"/>
	<line x1="4181.63" y1="1461.38" x2="4246.43" y2="1461.38" style="stroke:#F0F0F0;stroke-width:12.64"/>
	<line x1="4278.83" y1="1461.38" x2="4343.63" y2="1461.38" style="stroke:#F0F0F0;stroke-width:12.64"/>
	<line x1="4376.25" y1="1461.38" x2="4441.05" y2="1461.38" style="stroke:#F0F0F0;stroke-width:12.64"/>
	<line x1="4473.45" y1="1461.38" x2="4538.25" y2="1461.38" style="stroke:#F0F0F0;stroke-width:12.64"/>
	<line x1="4570.65" y1="1461.38" x2="4628.93" y2="1461.38" style="stroke:#F0F0F0;stroke-width:12.64"/>
	<line x1="2917.35" y1="1019.47" x2="2982.15" y2="1019.47" style="stroke:#F0F0F0;stroke-width:12.64"/>
	<line x1="3014.55" y1="1019.47" x2="3079.35" y2="1019.47" style="stroke:#F0F0F0;stroke-width:12.64"/>
	<line x1="3111.75" y1="1019.47" x2="3176.55" y2="1019.47" style="stroke:#F0F0F0;stroke-width:12.64"/>
	<line x1="3209.18" y1="1019.47" x2="3273.98" y2="1019.47" style="stroke:#F0F0F0;stroke-width:12.64"/>
	<line x1="3306.38" y1="1019.47" x2="3371.18" y2="1019.47" style="stroke:#F0F0F0;stroke-width:12.64"/>
	<line x1="3403.58" y1="1019.47" x2="3468.38" y2="1019.47" style="stroke:#F0F0F0;stroke-width:12.64"/>
	<line x1="3500.78" y1="1019.47" x2="3565.58" y2="1019.47" style="stroke:#F0F0F0;stroke-width:12.64"/>
	<line x1="3598.20" y1="1019.47" x2="3663.00" y2="1019.47" style="stroke:#F0F0F0;stroke-width:12.64"/>
	<line x1="3695.40" y1="1019.47" x2="3760.20" y2="1019.47" style="stroke:#F0F0F0;stroke-width:12.64"/>
	<line x1="3792.60" y1="1019.47" x2="3857.40" y2="1019.47" style="stroke:#F0F0F0;stroke-width:12.64"/>
	<line x1="3889.80" y1="1019.47" x2="3954.60" y2="1019.47" style="stroke:#F0F0F0;stroke-width:12.64"/>
	<line x1="3987.23" y1="1019.47" x2="4052.03" y2="1019.47" style="stroke:#F0F0F0;stroke-width:12.64"/>
	<line x1="4084.43" y1="1019.47" x2="4149.23" y2="1019.47" style="stroke:#F0F0F0;stroke-width:12.64"/>
	<line x1="4181.63" y1="1019.47" x2="4246.43" y2="1019.47" style="stroke:#F0F0F0;stroke-width:12.64"/>
	<line x1="4278.83" y1="1019.47" x2="4343.63" y2="1019.47" style="stroke:#F0F0F0;stroke-width:12.64"/>
	<line x1="4376.25" y1="1019.47" x2="4441.05" y2="1019.47" style="stroke:#F0F0F0;stroke-width:12.64"/>
	<line x1="4473.45" y1="1019.47" x2="4538.25" y2="1019.47" style="stroke:#F0F0F0;stroke-width:12.64"/>
	<line x1="4570.65" y1="1019.47" x2="4628.93" y2="1019.47" style="stroke:#F0F0F0;stroke-width:12.64"/>
	<line x1="2917.35" y1="577.57" x2="2982.15" y2="577.57" style="stroke:#F0F0F0;stroke-width:12.64"/>
	<line x1="3014.55" y1="577.57" x2="3079.35" y2="577.57" style="stroke:#F0F0F0;stroke-width:12.64"/>
	<line x1="3111.75" y1="577.57" x2="3176.55" y2="577.57" style="stroke:#F0F0F0;stroke-width:12.64"/>
	<line x1="3209.18" y1="577.57" x2="3273.98" y2="577.57" style="stroke:#F0F0F0;stroke-width:12.64"/>
	<line x1="3306.38" y1="577.57" x2="3371.18" y2="577.57" style="stroke:#F0F0F0;stroke-width:12.64"/>
	<line x1="3403.58" y1="577.57" x2="3468.38" y2="577.57" style="stroke:#F0F0F0;stroke-width:12.64"/>
	<line x1="3500.78" y1="577.57" x2="3565.58" y2="577.57" style="stroke:#F0F0F0;stroke-width:12.64"/>
	<line x1="3598.20" y1="577.57" x2="3663.00" y2="577.57" style="stroke:#F0F0F0;stroke-width:12.64"/>
	<line x1="3695.40" y1="577.57" x2="3760.20" y2="577.57" style="stroke:#F0F0F0;stroke-width:12.64"/>
	<line x1="3792.60" y1="577.57" x2="3857.40" y2="577.57" style="stroke:#F0F0F0;stroke-width:12.64"/>
	<line x1="3889.80" y1="577.57" x2="3954.60" y2="577.57" style="stroke:#F0F0F0;stroke-width:12.64"/>
	<line x1="3987.23" y1="577.57" x2="4052.03" y2="577.57" style="stroke:#F0F0F0;stroke-width:12.64"/>
	<line x1="4084.43" y1="577.57" x2="4149.23" y2="577.57" style="stroke:#F0F0F0;stroke-width:12.64"/>
	<line x1="4181.63" y1="577.57" x2="4246.43" y2="577.57" style="stroke:#F0F0F0;stroke-width:12.64"/>
	<line x1="4278.83" y1="577.57" x2="4343.63" y2="577.57" style="stroke:#F0F0F0;stroke-width:12.64"/>
	<line x1="4376.25" y1="577.57" x2="4441.05" y2="577.57" style="stroke:#F0F0F0;stroke-width:12.64"/>
	<line x1="4473.45" y1="577.57" x2="4538.25" y2="577.57" style="stroke:#F0F0F0;stroke-width:12.64"/>
	<line x1="4570.65" y1="577.57" x2="4628.93" y2="577.57" style="stroke:#F0F0F0;stroke-width:12.64"/>
	<rect x="3108.83" y="867.60" width="221.18" height="1919.70" style="fill:#1A85FF"/>
	<rect x="3113.04" y="871.81" width="212.75" height="1911.28" style="fill:none;stroke:#1A85FF;stroke-width:8.42"/>
	<rect x="3478.05" y="1113.75" width="220.95" height="1673.55" style="fill:#1A85FF"/>
	<rect x="3482.26" y="1117.96" width="212.53" height="1665.13" style="fill:none;stroke:#1A85FF;stroke-width:8.42"/>
	<rect x="3847.05" y="1218.38" width="220.95" height="1568.93" style="fill:#1A85FF"/>
	<rect x="3851.26" y="1222.59" width="212.53" height="1560.50" style="fill:none;stroke:#1A85FF;stroke-width:8.42"/>
	<rect x="4216.27" y="1495.35" width="220.95" height="1291.95" style="fill:#1A85FF"/>
	<rect x="4220.49" y="1499.56" width="212.53" height="1283.53" style="fill:none;stroke:#1A85FF;stroke-width:8.42"/>
	<line x1="2917.35" y1="2787.30" x2="2917.35" y2="430.20" style="stroke:#000000;stroke-width:8.42"/>
	<line x1="2917.35" y1="2787.30" x2="2858.85" y2="2787.30" style="stroke:#000000;stroke-width:8.42"/>
	<text x="2829.60" y="2838.54" style="font-family:'Helvetica';font-size:146.25px;fill:#000000" text-anchor="end">0</text>
	<line x1="2917.35" y1="2345.40" x2="2858.85" y2="2345.40" style="stroke:#000000;stroke-width:8.42"/>
	<text x="2829.60" y="2396.64" style="font-family:'Helvetica';font-size:146.25px;fill:#000000" text-anchor="end">.1</text>
	<line x1="2917.35" y1="1903.50" x2="2858.85" y2="1903.50" style="stroke:#000000;stroke-width:8.42"/>
	<text x="2829.60" y="1954.74" style="font-family:'Helvetica';font-size:146.25px;fill:#000000" text-anchor="end">.2</text>
	<line x1="2917.35" y1="1461.38" x2="2858.85" y2="1461.38" style="stroke:#000000;stroke-width:8.42"/>
	<text x="2829.60" y="1512.62" style="font-family:'Helvetica';font-size:146.25px;fill:#000000" text-anchor="end">.3</text>
	<line x1="2917.35" y1="1019.47" x2="2858.85" y2="1019.47" style="stroke:#000000;stroke-width:8.42"/>
	<text x="2829.60" y="1070.72" style="font-family:'Helvetica';font-size:146.25px;fill:#000000" text-anchor="end">.4</text>
	<line x1="2917.35" y1="577.57" x2="2858.85" y2="577.57" style="stroke:#000000;stroke-width:8.42"/>
	<text x="2829.60" y="628.82" style="font-family:'Helvetica';font-size:146.25px;fill:#000000" text-anchor="end">.5</text>
	<line x1="2917.35" y1="2787.30" x2="4628.93" y2="2787.30" style="stroke:#000000;stroke-width:8.42"/>
	<text x="3219.53" y="2948.06" style="font-family:'Helvetica';font-size:146.25px;fill:#000000" text-anchor="middle">.05</text>
	<text x="3588.53" y="2948.06" style="font-family:'Helvetica';font-size:146.25px;fill:#000000" text-anchor="middle">.1</text>
	<text x="3957.53" y="2948.06" style="font-family:'Helvetica';font-size:146.25px;fill:#000000" text-anchor="middle">.2</text>
	<text x="4326.75" y="2948.06" style="font-family:'Helvetica';font-size:146.25px;fill:#000000" text-anchor="middle">.3</text>
	<text x="3773.03" y="380.81" style="font-family:'Helvetica';font-size:160.88px;fill:#000000" text-anchor="middle">Choice, by Price un</text>
	<rect x="4776.30" y="71.32" width="2352.38" height="3097.35" style="fill:#FFFFFF"/>
	<rect x="4780.51" y="75.54" width="2343.95" height="3088.93" style="fill:none;stroke:#FFFFFF;stroke-width:8.42"/>
	<rect x="5269.73" y="430.20" width="1711.57" height="2357.10" style="fill:#FFFFFF"/>
	<rect x="5273.94" y="434.41" width="1703.15" height="2348.68" style="fill:none;stroke:#FFFFFF;stroke-width:8.42"/>
	<line x1="5269.73" y1="2787.30" x2="5334.53" y2="2787.30" style="stroke:#F0F0F0;stroke-width:12.64"/>
	<line x1="5366.93" y1="2787.30" x2="5431.73" y2="2787.30" style="stroke:#F0F0F0;stroke-width:12.64"/>
	<line x1="5464.35" y1="2787.30" x2="5529.15" y2="2787.30" style="stroke:#F0F0F0;stroke-width:12.64"/>
	<line x1="5561.55" y1="2787.30" x2="5626.35" y2="2787.30" style="stroke:#F0F0F0;stroke-width:12.64"/>
	<line x1="5658.75" y1="2787.30" x2="5723.55" y2="2787.30" style="stroke:#F0F0F0;stroke-width:12.64"/>
	<line x1="5755.95" y1="2787.30" x2="5820.75" y2="2787.30" style="stroke:#F0F0F0;stroke-width:12.64"/>
	<line x1="5853.38" y1="2787.30" x2="5918.18" y2="2787.30" style="stroke:#F0F0F0;stroke-width:12.64"/>
	<line x1="5950.58" y1="2787.30" x2="6015.38" y2="2787.30" style="stroke:#F0F0F0;stroke-width:12.64"/>
	<line x1="6047.78" y1="2787.30" x2="6112.58" y2="2787.30" style="stroke:#F0F0F0;stroke-width:12.64"/>
	<line x1="6144.98" y1="2787.30" x2="6209.78" y2="2787.30" style="stroke:#F0F0F0;stroke-width:12.64"/>
	<line x1="6242.40" y1="2787.30" x2="6307.20" y2="2787.30" style="stroke:#F0F0F0;stroke-width:12.64"/>
	<line x1="6339.60" y1="2787.30" x2="6404.40" y2="2787.30" style="stroke:#F0F0F0;stroke-width:12.64"/>
	<line x1="6436.80" y1="2787.30" x2="6501.60" y2="2787.30" style="stroke:#F0F0F0;stroke-width:12.64"/>
	<line x1="6534.00" y1="2787.30" x2="6598.80" y2="2787.30" style="stroke:#F0F0F0;stroke-width:12.64"/>
	<line x1="6631.20" y1="2787.30" x2="6696.00" y2="2787.30" style="stroke:#F0F0F0;stroke-width:12.64"/>
	<line x1="6728.63" y1="2787.30" x2="6793.43" y2="2787.30" style="stroke:#F0F0F0;stroke-width:12.64"/>
	<line x1="6825.83" y1="2787.30" x2="6890.63" y2="2787.30" style="stroke:#F0F0F0;stroke-width:12.64"/>
	<line x1="6923.03" y1="2787.30" x2="6981.30" y2="2787.30" style="stroke:#F0F0F0;stroke-width:12.64"/>
	<line x1="5269.73" y1="2345.40" x2="5334.53" y2="2345.40" style="stroke:#F0F0F0;stroke-width:12.64"/>
	<line x1="5366.93" y1="2345.40" x2="5431.73" y2="2345.40" style="stroke:#F0F0F0;stroke-width:12.64"/>
	<line x1="5464.35" y1="2345.40" x2="5529.15" y2="2345.40" style="stroke:#F0F0F0;stroke-width:12.64"/>
	<line x1="5561.55" y1="2345.40" x2="5626.35" y2="2345.40" style="stroke:#F0F0F0;stroke-width:12.64"/>
	<line x1="5658.75" y1="2345.40" x2="5723.55" y2="2345.40" style="stroke:#F0F0F0;stroke-width:12.64"/>
	<line x1="5755.95" y1="2345.40" x2="5820.75" y2="2345.40" style="stroke:#F0F0F0;stroke-width:12.64"/>
	<line x1="5853.38" y1="2345.40" x2="5918.18" y2="2345.40" style="stroke:#F0F0F0;stroke-width:12.64"/>
	<line x1="5950.58" y1="2345.40" x2="6015.38" y2="2345.40" style="stroke:#F0F0F0;stroke-width:12.64"/>
	<line x1="6047.78" y1="2345.40" x2="6112.58" y2="2345.40" style="stroke:#F0F0F0;stroke-width:12.64"/>
	<line x1="6144.98" y1="2345.40" x2="6209.78" y2="2345.40" style="stroke:#F0F0F0;stroke-width:12.64"/>
	<line x1="6242.40" y1="2345.40" x2="6307.20" y2="2345.40" style="stroke:#F0F0F0;stroke-width:12.64"/>
	<line x1="6339.60" y1="2345.40" x2="6404.40" y2="2345.40" style="stroke:#F0F0F0;stroke-width:12.64"/>
	<line x1="6436.80" y1="2345.40" x2="6501.60" y2="2345.40" style="stroke:#F0F0F0;stroke-width:12.64"/>
	<line x1="6534.00" y1="2345.40" x2="6598.80" y2="2345.40" style="stroke:#F0F0F0;stroke-width:12.64"/>
	<line x1="6631.20" y1="2345.40" x2="6696.00" y2="2345.40" style="stroke:#F0F0F0;stroke-width:12.64"/>
	<line x1="6728.63" y1="2345.40" x2="6793.43" y2="2345.40" style="stroke:#F0F0F0;stroke-width:12.64"/>
	<line x1="6825.83" y1="2345.40" x2="6890.63" y2="2345.40" style="stroke:#F0F0F0;stroke-width:12.64"/>
	<line x1="6923.03" y1="2345.40" x2="6981.30" y2="2345.40" style="stroke:#F0F0F0;stroke-width:12.64"/>
	<line x1="5269.73" y1="1903.50" x2="5334.53" y2="1903.50" style="stroke:#F0F0F0;stroke-width:12.64"/>
	<line x1="5366.93" y1="1903.50" x2="5431.73" y2="1903.50" style="stroke:#F0F0F0;stroke-width:12.64"/>
	<line x1="5464.35" y1="1903.50" x2="5529.15" y2="1903.50" style="stroke:#F0F0F0;stroke-width:12.64"/>
	<line x1="5561.55" y1="1903.50" x2="5626.35" y2="1903.50" style="stroke:#F0F0F0;stroke-width:12.64"/>
	<line x1="5658.75" y1="1903.50" x2="5723.55" y2="1903.50" style="stroke:#F0F0F0;stroke-width:12.64"/>
	<line x1="5755.95" y1="1903.50" x2="5820.75" y2="1903.50" style="stroke:#F0F0F0;stroke-width:12.64"/>
	<line x1="5853.38" y1="1903.50" x2="5918.18" y2="1903.50" style="stroke:#F0F0F0;stroke-width:12.64"/>
	<line x1="5950.58" y1="1903.50" x2="6015.38" y2="1903.50" style="stroke:#F0F0F0;stroke-width:12.64"/>
	<line x1="6047.78" y1="1903.50" x2="6112.58" y2="1903.50" style="stroke:#F0F0F0;stroke-width:12.64"/>
	<line x1="6144.98" y1="1903.50" x2="6209.78" y2="1903.50" style="stroke:#F0F0F0;stroke-width:12.64"/>
	<line x1="6242.40" y1="1903.50" x2="6307.20" y2="1903.50" style="stroke:#F0F0F0;stroke-width:12.64"/>
	<line x1="6339.60" y1="1903.50" x2="6404.40" y2="1903.50" style="stroke:#F0F0F0;stroke-width:12.64"/>
	<line x1="6436.80" y1="1903.50" x2="6501.60" y2="1903.50" style="stroke:#F0F0F0;stroke-width:12.64"/>
	<line x1="6534.00" y1="1903.50" x2="6598.80" y2="1903.50" style="stroke:#F0F0F0;stroke-width:12.64"/>
	<line x1="6631.20" y1="1903.50" x2="6696.00" y2="1903.50" style="stroke:#F0F0F0;stroke-width:12.64"/>
	<line x1="6728.63" y1="1903.50" x2="6793.43" y2="1903.50" style="stroke:#F0F0F0;stroke-width:12.64"/>
	<line x1="6825.83" y1="1903.50" x2="6890.63" y2="1903.50" style="stroke:#F0F0F0;stroke-width:12.64"/>
	<line x1="6923.03" y1="1903.50" x2="6981.30" y2="1903.50" style="stroke:#F0F0F0;stroke-width:12.64"/>
	<line x1="5269.73" y1="1461.38" x2="5334.53" y2="1461.38" style="stroke:#F0F0F0;stroke-width:12.64"/>
	<line x1="5366.93" y1="1461.38" x2="5431.73" y2="1461.38" style="stroke:#F0F0F0;stroke-width:12.64"/>
	<line x1="5464.35" y1="1461.38" x2="5529.15" y2="1461.38" style="stroke:#F0F0F0;stroke-width:12.64"/>
	<line x1="5561.55" y1="1461.38" x2="5626.35" y2="1461.38" style="stroke:#F0F0F0;stroke-width:12.64"/>
	<line x1="5658.75" y1="1461.38" x2="5723.55" y2="1461.38" style="stroke:#F0F0F0;stroke-width:12.64"/>
	<line x1="5755.95" y1="1461.38" x2="5820.75" y2="1461.38" style="stroke:#F0F0F0;stroke-width:12.64"/>
	<line x1="5853.38" y1="1461.38" x2="5918.18" y2="1461.38" style="stroke:#F0F0F0;stroke-width:12.64"/>
	<line x1="5950.58" y1="1461.38" x2="6015.38" y2="1461.38" style="stroke:#F0F0F0;stroke-width:12.64"/>
	<line x1="6047.78" y1="1461.38" x2="6112.58" y2="1461.38" style="stroke:#F0F0F0;stroke-width:12.64"/>
	<line x1="6144.98" y1="1461.38" x2="6209.78" y2="1461.38" style="stroke:#F0F0F0;stroke-width:12.64"/>
	<line x1="6242.40" y1="1461.38" x2="6307.20" y2="1461.38" style="stroke:#F0F0F0;stroke-width:12.64"/>
	<line x1="6339.60" y1="1461.38" x2="6404.40" y2="1461.38" style="stroke:#F0F0F0;stroke-width:12.64"/>
	<line x1="6436.80" y1="1461.38" x2="6501.60" y2="1461.38" style="stroke:#F0F0F0;stroke-width:12.64"/>
	<line x1="6534.00" y1="1461.38" x2="6598.80" y2="1461.38" style="stroke:#F0F0F0;stroke-width:12.64"/>
	<line x1="6631.20" y1="1461.38" x2="6696.00" y2="1461.38" style="stroke:#F0F0F0;stroke-width:12.64"/>
	<line x1="6728.63" y1="1461.38" x2="6793.43" y2="1461.38" style="stroke:#F0F0F0;stroke-width:12.64"/>
	<line x1="6825.83" y1="1461.38" x2="6890.63" y2="1461.38" style="stroke:#F0F0F0;stroke-width:12.64"/>
	<line x1="6923.03" y1="1461.38" x2="6981.30" y2="1461.38" style="stroke:#F0F0F0;stroke-width:12.64"/>
	<line x1="5269.73" y1="1019.47" x2="5334.53" y2="1019.47" style="stroke:#F0F0F0;stroke-width:12.64"/>
	<line x1="5366.93" y1="1019.47" x2="5431.73" y2="1019.47" style="stroke:#F0F0F0;stroke-width:12.64"/>
	<line x1="5464.35" y1="1019.47" x2="5529.15" y2="1019.47" style="stroke:#F0F0F0;stroke-width:12.64"/>
	<line x1="5561.55" y1="1019.47" x2="5626.35" y2="1019.47" style="stroke:#F0F0F0;stroke-width:12.64"/>
	<line x1="5658.75" y1="1019.47" x2="5723.55" y2="1019.47" style="stroke:#F0F0F0;stroke-width:12.64"/>
	<line x1="5755.95" y1="1019.47" x2="5820.75" y2="1019.47" style="stroke:#F0F0F0;stroke-width:12.64"/>
	<line x1="5853.38" y1="1019.47" x2="5918.18" y2="1019.47" style="stroke:#F0F0F0;stroke-width:12.64"/>
	<line x1="5950.58" y1="1019.47" x2="6015.38" y2="1019.47" style="stroke:#F0F0F0;stroke-width:12.64"/>
	<line x1="6047.78" y1="1019.47" x2="6112.58" y2="1019.47" style="stroke:#F0F0F0;stroke-width:12.64"/>
	<line x1="6144.98" y1="1019.47" x2="6209.78" y2="1019.47" style="stroke:#F0F0F0;stroke-width:12.64"/>
	<line x1="6242.40" y1="1019.47" x2="6307.20" y2="1019.47" style="stroke:#F0F0F0;stroke-width:12.64"/>
	<line x1="6339.60" y1="1019.47" x2="6404.40" y2="1019.47" style="stroke:#F0F0F0;stroke-width:12.64"/>
	<line x1="6436.80" y1="1019.47" x2="6501.60" y2="1019.47" style="stroke:#F0F0F0;stroke-width:12.64"/>
	<line x1="6534.00" y1="1019.47" x2="6598.80" y2="1019.47" style="stroke:#F0F0F0;stroke-width:12.64"/>
	<line x1="6631.20" y1="1019.47" x2="6696.00" y2="1019.47" style="stroke:#F0F0F0;stroke-width:12.64"/>
	<line x1="6728.63" y1="1019.47" x2="6793.43" y2="1019.47" style="stroke:#F0F0F0;stroke-width:12.64"/>
	<line x1="6825.83" y1="1019.47" x2="6890.63" y2="1019.47" style="stroke:#F0F0F0;stroke-width:12.64"/>
	<line x1="6923.03" y1="1019.47" x2="6981.30" y2="1019.47" style="stroke:#F0F0F0;stroke-width:12.64"/>
	<line x1="5269.73" y1="577.57" x2="5334.53" y2="577.57" style="stroke:#F0F0F0;stroke-width:12.64"/>
	<line x1="5366.93" y1="577.57" x2="5431.73" y2="577.57" style="stroke:#F0F0F0;stroke-width:12.64"/>
	<line x1="5464.35" y1="577.57" x2="5529.15" y2="577.57" style="stroke:#F0F0F0;stroke-width:12.64"/>
	<line x1="5561.55" y1="577.57" x2="5626.35" y2="577.57" style="stroke:#F0F0F0;stroke-width:12.64"/>
	<line x1="5658.75" y1="577.57" x2="5723.55" y2="577.57" style="stroke:#F0F0F0;stroke-width:12.64"/>
	<line x1="5755.95" y1="577.57" x2="5820.75" y2="577.57" style="stroke:#F0F0F0;stroke-width:12.64"/>
	<line x1="5853.38" y1="577.57" x2="5918.18" y2="577.57" style="stroke:#F0F0F0;stroke-width:12.64"/>
	<line x1="5950.58" y1="577.57" x2="6015.38" y2="577.57" style="stroke:#F0F0F0;stroke-width:12.64"/>
	<line x1="6047.78" y1="577.57" x2="6112.58" y2="577.57" style="stroke:#F0F0F0;stroke-width:12.64"/>
	<line x1="6144.98" y1="577.57" x2="6209.78" y2="577.57" style="stroke:#F0F0F0;stroke-width:12.64"/>
	<line x1="6242.40" y1="577.57" x2="6307.20" y2="577.57" style="stroke:#F0F0F0;stroke-width:12.64"/>
	<line x1="6339.60" y1="577.57" x2="6404.40" y2="577.57" style="stroke:#F0F0F0;stroke-width:12.64"/>
	<line x1="6436.80" y1="577.57" x2="6501.60" y2="577.57" style="stroke:#F0F0F0;stroke-width:12.64"/>
	<line x1="6534.00" y1="577.57" x2="6598.80" y2="577.57" style="stroke:#F0F0F0;stroke-width:12.64"/>
	<line x1="6631.20" y1="577.57" x2="6696.00" y2="577.57" style="stroke:#F0F0F0;stroke-width:12.64"/>
	<line x1="6728.63" y1="577.57" x2="6793.43" y2="577.57" style="stroke:#F0F0F0;stroke-width:12.64"/>
	<line x1="6825.83" y1="577.57" x2="6890.63" y2="577.57" style="stroke:#F0F0F0;stroke-width:12.64"/>
	<line x1="6923.03" y1="577.57" x2="6981.30" y2="577.57" style="stroke:#F0F0F0;stroke-width:12.64"/>
	<rect x="5461.43" y="996.30" width="220.95" height="1791.00" style="fill:#1A85FF"/>
	<rect x="5465.64" y="1000.51" width="212.53" height="1782.58" style="fill:none;stroke:#1A85FF;stroke-width:8.42"/>
	<rect x="5830.43" y="1088.78" width="221.18" height="1698.53" style="fill:#1A85FF"/>
	<rect x="5834.64" y="1092.99" width="212.75" height="1690.10" style="fill:none;stroke:#1A85FF;stroke-width:8.42"/>
	<rect x="6199.65" y="1122.07" width="220.95" height="1665.23" style="fill:#1A85FF"/>
	<rect x="6203.86" y="1126.29" width="212.53" height="1656.80" style="fill:none;stroke:#1A85FF;stroke-width:8.42"/>
	<rect x="6568.65" y="1211.18" width="220.95" height="1576.13" style="fill:#1A85FF"/>
	<rect x="6572.86" y="1215.39" width="212.53" height="1567.70" style="fill:none;stroke:#1A85FF;stroke-width:8.42"/>
	<line x1="5269.73" y1="2787.30" x2="5269.73" y2="430.20" style="stroke:#000000;stroke-width:8.42"/>
	<line x1="5269.73" y1="2787.30" x2="5211.23" y2="2787.30" style="stroke:#000000;stroke-width:8.42"/>
	<text x="5181.98" y="2838.54" style="font-family:'Helvetica';font-size:146.25px;fill:#000000" text-anchor="end">0</text>
	<line x1="5269.73" y1="2345.40" x2="5211.23" y2="2345.40" style="stroke:#000000;stroke-width:8.42"/>
	<text x="5181.98" y="2396.64" style="font-family:'Helvetica';font-size:146.25px;fill:#000000" text-anchor="end">.1</text>
	<line x1="5269.73" y1="1903.50" x2="5211.23" y2="1903.50" style="stroke:#000000;stroke-width:8.42"/>
	<text x="5181.98" y="1954.74" style="font-family:'Helvetica';font-size:146.25px;fill:#000000" text-anchor="end">.2</text>
	<line x1="5269.73" y1="1461.38" x2="5211.23" y2="1461.38" style="stroke:#000000;stroke-width:8.42"/>
	<text x="5181.98" y="1512.62" style="font-family:'Helvetica';font-size:146.25px;fill:#000000" text-anchor="end">.3</text>
	<line x1="5269.73" y1="1019.47" x2="5211.23" y2="1019.47" style="stroke:#000000;stroke-width:8.42"/>
	<text x="5181.98" y="1070.72" style="font-family:'Helvetica';font-size:146.25px;fill:#000000" text-anchor="end">.4</text>
	<line x1="5269.73" y1="577.57" x2="5211.23" y2="577.57" style="stroke:#000000;stroke-width:8.42"/>
	<text x="5181.98" y="628.82" style="font-family:'Helvetica';font-size:146.25px;fill:#000000" text-anchor="end">.5</text>
	<line x1="5269.73" y1="2787.30" x2="6981.30" y2="2787.30" style="stroke:#000000;stroke-width:8.42"/>
	<text x="5571.90" y="2948.06" style="font-family:'Helvetica';font-size:146.25px;fill:#000000" text-anchor="middle">.01</text>
	<text x="5940.90" y="2948.06" style="font-family:'Helvetica';font-size:146.25px;fill:#000000" text-anchor="middle">.02</text>
	<text x="6310.13" y="2948.06" style="font-family:'Helvetica';font-size:146.25px;fill:#000000" text-anchor="middle">.03</text>
	<text x="6679.13" y="2948.06" style="font-family:'Helvetica';font-size:146.25px;fill:#000000" text-anchor="middle">.05</text>
	<text x="6125.63" y="380.81" style="font-family:'Helvetica';font-size:160.88px;fill:#000000" text-anchor="middle">Choice, by Price o</text>
</svg>
