<?xml version="1.0" encoding="UTF-8" standalone="no"?>
<!-- This is a Stata 18.5 generated SVG file (http://www.stata.com) -->

<svg version="1.1" width="10.000in" height="4.500in" viewBox="0 0 7200 3240" xmlns="http://www.w3.org/2000/svg" xmlns:xlink="http://www.w3.org/1999/xlink">
	<desc>Stata Graph - Graph</desc>
	<rect x="0" y="0" width="7200" height="3240" style="fill:#FFFFFF;stroke:none"/>
	<rect x="0.00" y="0.00" width="7200.00" height="3240.00" style="fill:#FFFFFF"/>
	<rect x="3.24" y="3.24" width="7193.52" height="3233.52" style="fill:none;stroke:#FFFFFF;stroke-width:6.48"/>
	<rect x="71.33" y="71.32" width="3528.68" height="3097.35" style="fill:#FFFFFF"/>
	<rect x="75.54" y="75.54" width="3520.25" height="3088.93" style="fill:none;stroke:#FFFFFF;stroke-width:8.42"/>
	<rect x="607.50" y="430.20" width="2845.13" height="2357.10" style="fill:#FFFFFF"/>
	<rect x="611.71" y="434.41" width="2836.70" height="2348.68" style="fill:none;stroke:#FFFFFF;stroke-width:8.42"/>
	<line x1="607.50" y1="2787.30" x2="672.30" y2="2787.30" style="stroke:#F0F0F0;stroke-width:12.64"/>
	<line x1="704.70" y1="2787.30" x2="769.50" y2="2787.30" style="stroke:#F0F0F0;stroke-width:12.64"/>
	<line x1="801.90" y1="2787.30" x2="866.70" y2="2787.30" style="stroke:#F0F0F0;stroke-width:12.64"/>
	<line x1="899.33" y1="2787.30" x2="964.13" y2="2787.30" style="stroke:#F0F0F0;stroke-width:12.64"/>
	<line x1="996.53" y1="2787.30" x2="1061.33" y2="2787.30" style="stroke:#F0F0F0;stroke-width:12.64"/>
	<line x1="1093.72" y1="2787.30" x2="1158.53" y2="2787.30" style="stroke:#F0F0F0;stroke-width:12.64"/>
	<line x1="1190.93" y1="2787.30" x2="1255.72" y2="2787.30" style="stroke:#F0F0F0;stroke-width:12.64"/>
	<line x1="1288.35" y1="2787.30" x2="1353.15" y2="2787.30" style="stroke:#F0F0F0;stroke-width:12.64"/>
	<line x1="1385.55" y1="2787.30" x2="1450.35" y2="2787.30" style="stroke:#F0F0F0;stroke-width:12.64"/>
	<line x1="1482.75" y1="2787.30" x2="1547.55" y2="2787.30" style="stroke:#F0F0F0;stroke-width:12.64"/>
	<line x1="1579.95" y1="2787.30" x2="1644.75" y2="2787.30" style="stroke:#F0F0F0;stroke-width:12.64"/>
	<line x1="1677.38" y1="2787.30" x2="1742.18" y2="2787.30" style="stroke:#F0F0F0;stroke-width:12.64"/>
	<line x1="1774.58" y1="2787.30" x2="1839.38" y2="2787.30" style="stroke:#F0F0F0;stroke-width:12.64"/>
	<line x1="1871.78" y1="2787.30" x2="1936.58" y2="2787.30" style="stroke:#F0F0F0;stroke-width:12.64"/>
	<line x1="1968.98" y1="2787.30" x2="2033.78" y2="2787.30" style="stroke:#F0F0F0;stroke-width:12.64"/>
	<line x1="2066.40" y1="2787.30" x2="2131.20" y2="2787.30" style="stroke:#F0F0F0;stroke-width:12.64"/>
	<line x1="2163.60" y1="2787.30" x2="2228.40" y2="2787.30" style="stroke:#F0F0F0;stroke-width:12.64"/>
	<line x1="2260.80" y1="2787.30" x2="2325.60" y2="2787.30" style="stroke:#F0F0F0;stroke-width:12.64"/>
	<line x1="2358.00" y1="2787.30" x2="2422.80" y2="2787.30" style="stroke:#F0F0F0;stroke-width:12.64"/>
	<line x1="2455.20" y1="2787.30" x2="2520.00" y2="2787.30" style="stroke:#F0F0F0;stroke-width:12.64"/>
	<line x1="2552.63" y1="2787.30" x2="2617.43" y2="2787.30" style="stroke:#F0F0F0;stroke-width:12.64"/>
	<line x1="2649.83" y1="2787.30" x2="2714.63" y2="2787.30" style="stroke:#F0F0F0;stroke-width:12.64"/>
	<line x1="2747.03" y1="2787.30" x2="2811.83" y2="2787.30" style="stroke:#F0F0F0;stroke-width:12.64"/>
	<line x1="2844.23" y1="2787.30" x2="2909.03" y2="2787.30" style="stroke:#F0F0F0;stroke-width:12.64"/>
	<line x1="2941.65" y1="2787.30" x2="3006.45" y2="2787.30" style="stroke:#F0F0F0;stroke-width:12.64"/>
	<line x1="3038.85" y1="2787.30" x2="3103.65" y2="2787.30" style="stroke:#F0F0F0;stroke-width:12.64"/>
	<line x1="3136.05" y1="2787.30" x2="3200.85" y2="2787.30" style="stroke:#F0F0F0;stroke-width:12.64"/>
	<line x1="3233.25" y1="2787.30" x2="3298.05" y2="2787.30" style="stroke:#F0F0F0;stroke-width:12.64"/>
	<line x1="3330.68" y1="2787.30" x2="3395.48" y2="2787.30" style="stroke:#F0F0F0;stroke-width:12.64"/>
	<line x1="3427.88" y1="2787.30" x2="3452.63" y2="2787.30" style="stroke:#F0F0F0;stroke-width:12.64"/>
	<line x1="607.50" y1="2244.15" x2="672.30" y2="2244.15" style="stroke:#F0F0F0;stroke-width:12.64"/>
	<line x1="704.70" y1="2244.15" x2="769.50" y2="2244.15" style="stroke:#F0F0F0;stroke-width:12.64"/>
	<line x1="801.90" y1="2244.15" x2="866.70" y2="2244.15" style="stroke:#F0F0F0;stroke-width:12.64"/>
	<line x1="899.33" y1="2244.15" x2="964.13" y2="2244.15" style="stroke:#F0F0F0;stroke-width:12.64"/>
	<line x1="996.53" y1="2244.15" x2="1061.33" y2="2244.15" style="stroke:#F0F0F0;stroke-width:12.64"/>
	<line x1="1093.72" y1="2244.15" x2="1158.53" y2="2244.15" style="stroke:#F0F0F0;stroke-width:12.64"/>
	<line x1="1190.93" y1="2244.15" x2="1255.72" y2="2244.15" style="stroke:#F0F0F0;stroke-width:12.64"/>
	<line x1="1288.35" y1="2244.15" x2="1353.15" y2="2244.15" style="stroke:#F0F0F0;stroke-width:12.64"/>
	<line x1="1385.55" y1="2244.15" x2="1450.35" y2="2244.15" style="stroke:#F0F0F0;stroke-width:12.64"/>
	<line x1="1482.75" y1="2244.15" x2="1547.55" y2="2244.15" style="stroke:#F0F0F0;stroke-width:12.64"/>
	<line x1="1579.95" y1="2244.15" x2="1644.75" y2="2244.15" style="stroke:#F0F0F0;stroke-width:12.64"/>
	<line x1="1677.38" y1="2244.15" x2="1742.18" y2="2244.15" style="stroke:#F0F0F0;stroke-width:12.64"/>
	<line x1="1774.58" y1="2244.15" x2="1839.38" y2="2244.15" style="stroke:#F0F0F0;stroke-width:12.64"/>
	<line x1="1871.78" y1="2244.15" x2="1936.58" y2="2244.15" style="stroke:#F0F0F0;stroke-width:12.64"/>
	<line x1="1968.98" y1="2244.15" x2="2033.78" y2="2244.15" style="stroke:#F0F0F0;stroke-width:12.64"/>
	<line x1="2066.40" y1="2244.15" x2="2131.20" y2="2244.15" style="stroke:#F0F0F0;stroke-width:12.64"/>
	<line x1="2163.60" y1="2244.15" x2="2228.40" y2="2244.15" style="stroke:#F0F0F0;stroke-width:12.64"/>
	<line x1="2260.80" y1="2244.15" x2="2325.60" y2="2244.15" style="stroke:#F0F0F0;stroke-width:12.64"/>
	<line x1="2358.00" y1="2244.15" x2="2422.80" y2="2244.15" style="stroke:#F0F0F0;stroke-width:12.64"/>
	<line x1="2455.20" y1="2244.15" x2="2520.00" y2="2244.15" style="stroke:#F0F0F0;stroke-width:12.64"/>
	<line x1="2552.63" y1="2244.15" x2="2617.43" y2="2244.15" style="stroke:#F0F0F0;stroke-width:12.64"/>
	<line x1="2649.83" y1="2244.15" x2="2714.63" y2="2244.15" style="stroke:#F0F0F0;stroke-width:12.64"/>
	<line x1="2747.03" y1="2244.15" x2="2811.83" y2="2244.15" style="stroke:#F0F0F0;stroke-width:12.64"/>
	<line x1="2844.23" y1="2244.15" x2="2909.03" y2="2244.15" style="stroke:#F0F0F0;stroke-width:12.64"/>
	<line x1="2941.65" y1="2244.15" x2="3006.45" y2="2244.15" style="stroke:#F0F0F0;stroke-width:12.64"/>
	<line x1="3038.85" y1="2244.15" x2="3103.65" y2="2244.15" style="stroke:#F0F0F0;stroke-width:12.64"/>
	<line x1="3136.05" y1="2244.15" x2="3200.85" y2="2244.15" style="stroke:#F0F0F0;stroke-width:12.64"/>
	<line x1="3233.25" y1="2244.15" x2="3298.05" y2="2244.15" style="stroke:#F0F0F0;stroke-width:12.64"/>
	<line x1="3330.68" y1="2244.15" x2="3395.48" y2="2244.15" style="stroke:#F0F0F0;stroke-width:12.64"/>
	<line x1="3427.88" y1="2244.15" x2="3452.63" y2="2244.15" style="stroke:#F0F0F0;stroke-width:12.64"/>
	<line x1="607.50" y1="1701.00" x2="672.30" y2="1701.00" style="stroke:#F0F0F0;stroke-width:12.64"/>
	<line x1="704.70" y1="1701.00" x2="769.50" y2="1701.00" style="stroke:#F0F0F0;stroke-width:12.64"/>
	<line x1="801.90" y1="1701.00" x2="866.70" y2="1701.00" style="stroke:#F0F0F0;stroke-width:12.64"/>
	<line x1="899.33" y1="1701.00" x2="964.13" y2="1701.00" style="stroke:#F0F0F0;stroke-width:12.64"/>
	<line x1="996.53" y1="1701.00" x2="1061.33" y2="1701.00" style="stroke:#F0F0F0;stroke-width:12.64"/>
	<line x1="1093.72" y1="1701.00" x2="1158.53" y2="1701.00" style="stroke:#F0F0F0;stroke-width:12.64"/>
	<line x1="1190.93" y1="1701.00" x2="1255.72" y2="1701.00" style="stroke:#F0F0F0;stroke-width:12.64"/>
	<line x1="1288.35" y1="1701.00" x2="1353.15" y2="1701.00" style="stroke:#F0F0F0;stroke-width:12.64"/>
	<line x1="1385.55" y1="1701.00" x2="1450.35" y2="1701.00" style="stroke:#F0F0F0;stroke-width:12.64"/>
	<line x1="1482.75" y1="1701.00" x2="1547.55" y2="1701.00" style="stroke:#F0F0F0;stroke-width:12.64"/>
	<line x1="1579.95" y1="1701.00" x2="1644.75" y2="1701.00" style="stroke:#F0F0F0;stroke-width:12.64"/>
	<line x1="1677.38" y1="1701.00" x2="1742.18" y2="1701.00" style="stroke:#F0F0F0;stroke-width:12.64"/>
	<line x1="1774.58" y1="1701.00" x2="1839.38" y2="1701.00" style="stroke:#F0F0F0;stroke-width:12.64"/>
	<line x1="1871.78" y1="1701.00" x2="1936.58" y2="1701.00" style="stroke:#F0F0F0;stroke-width:12.64"/>
	<line x1="1968.98" y1="1701.00" x2="2033.78" y2="1701.00" style="stroke:#F0F0F0;stroke-width:12.64"/>
	<line x1="2066.40" y1="1701.00" x2="2131.20" y2="1701.00" style="stroke:#F0F0F0;stroke-width:12.64"/>
	<line x1="2163.60" y1="1701.00" x2="2228.40" y2="1701.00" style="stroke:#F0F0F0;stroke-width:12.64"/>
	<line x1="2260.80" y1="1701.00" x2="2325.60" y2="1701.00" style="stroke:#F0F0F0;stroke-width:12.64"/>
	<line x1="2358.00" y1="1701.00" x2="2422.80" y2="1701.00" style="stroke:#F0F0F0;stroke-width:12.64"/>
	<line x1="2455.20" y1="1701.00" x2="2520.00" y2="1701.00" style="stroke:#F0F0F0;stroke-width:12.64"/>
	<line x1="2552.63" y1="1701.00" x2="2617.43" y2="1701.00" style="stroke:#F0F0F0;stroke-width:12.64"/>
	<line x1="2649.83" y1="1701.00" x2="2714.63" y2="1701.00" style="stroke:#F0F0F0;stroke-width:12.64"/>
	<line x1="2747.03" y1="1701.00" x2="2811.83" y2="1701.00" style="stroke:#F0F0F0;stroke-width:12.64"/>
	<line x1="2844.23" y1="1701.00" x2="2909.03" y2="1701.00" style="stroke:#F0F0F0;stroke-width:12.64"/>
	<line x1="2941.65" y1="1701.00" x2="3006.45" y2="1701.00" style="stroke:#F0F0F0;stroke-width:12.64"/>
	<line x1="3038.85" y1="1701.00" x2="3103.65" y2="1701.00" style="stroke:#F0F0F0;stroke-width:12.64"/>
	<line x1="3136.05" y1="1701.00" x2="3200.85" y2="1701.00" style="stroke:#F0F0F0;stroke-width:12.64"/>
	<line x1="3233.25" y1="1701.00" x2="3298.05" y2="1701.00" style="stroke:#F0F0F0;stroke-width:12.64"/>
	<line x1="3330.68" y1="1701.00" x2="3395.48" y2="1701.00" style="stroke:#F0F0F0;stroke-width:12.64"/>
	<line x1="3427.88" y1="1701.00" x2="3452.63" y2="1701.00" style="stroke:#F0F0F0;stroke-width:12.64"/>
	<line x1="607.50" y1="1157.85" x2="672.30" y2="1157.85" style="stroke:#F0F0F0;stroke-width:12.64"/>
	<line x1="704.70" y1="1157.85" x2="769.50" y2="1157.85" style="stroke:#F0F0F0;stroke-width:12.64"/>
	<line x1="801.90" y1="1157.85" x2="866.70" y2="1157.85" style="stroke:#F0F0F0;stroke-width:12.64"/>
	<line x1="899.33" y1="1157.85" x2="964.13" y2="1157.85" style="stroke:#F0F0F0;stroke-width:12.64"/>
	<line x1="996.53" y1="1157.85" x2="1061.33" y2="1157.85" style="stroke:#F0F0F0;stroke-width:12.64"/>
	<line x1="1093.72" y1="1157.85" x2="1158.53" y2="1157.85" style="stroke:#F0F0F0;stroke-width:12.64"/>
	<line x1="1190.93" y1="1157.85" x2="1255.72" y2="1157.85" style="stroke:#F0F0F0;stroke-width:12.64"/>
	<line x1="1288.35" y1="1157.85" x2="1353.15" y2="1157.85" style="stroke:#F0F0F0;stroke-width:12.64"/>
	<line x1="1385.55" y1="1157.85" x2="1450.35" y2="1157.85" style="stroke:#F0F0F0;stroke-width:12.64"/>
	<line x1="1482.75" y1="1157.85" x2="1547.55" y2="1157.85" style="stroke:#F0F0F0;stroke-width:12.64"/>
	<line x1="1579.95" y1="1157.85" x2="1644.75" y2="1157.85" style="stroke:#F0F0F0;stroke-width:12.64"/>
	<line x1="1677.38" y1="1157.85" x2="1742.18" y2="1157.85" style="stroke:#F0F0F0;stroke-width:12.64"/>
	<line x1="1774.58" y1="1157.85" x2="1839.38" y2="1157.85" style="stroke:#F0F0F0;stroke-width:12.64"/>
	<line x1="1871.78" y1="1157.85" x2="1936.58" y2="1157.85" style="stroke:#F0F0F0;stroke-width:12.64"/>
	<line x1="1968.98" y1="1157.85" x2="2033.78" y2="1157.85" style="stroke:#F0F0F0;stroke-width:12.64"/>
	<line x1="2066.40" y1="1157.85" x2="2131.20" y2="1157.85" style="stroke:#F0F0F0;stroke-width:12.64"/>
	<line x1="2163.60" y1="1157.85" x2="2228.40" y2="1157.85" style="stroke:#F0F0F0;stroke-width:12.64"/>
	<line x1="2260.80" y1="1157.85" x2="2325.60" y2="1157.85" style="stroke:#F0F0F0;stroke-width:12.64"/>
	<line x1="2358.00" y1="1157.85" x2="2422.80" y2="1157.85" style="stroke:#F0F0F0;stroke-width:12.64"/>
	<line x1="2455.20" y1="1157.85" x2="2520.00" y2="1157.85" style="stroke:#F0F0F0;stroke-width:12.64"/>
	<line x1="2552.63" y1="1157.85" x2="2617.43" y2="1157.85" style="stroke:#F0F0F0;stroke-width:12.64"/>
	<line x1="2649.83" y1="1157.85" x2="2714.63" y2="1157.85" style="stroke:#F0F0F0;stroke-width:12.64"/>
	<line x1="2747.03" y1="1157.85" x2="2811.83" y2="1157.85" style="stroke:#F0F0F0;stroke-width:12.64"/>
	<line x1="2844.23" y1="1157.85" x2="2909.03" y2="1157.85" style="stroke:#F0F0F0;stroke-width:12.64"/>
	<line x1="2941.65" y1="1157.85" x2="3006.45" y2="1157.85" style="stroke:#F0F0F0;stroke-width:12.64"/>
	<line x1="3038.85" y1="1157.85" x2="3103.65" y2="1157.85" style="stroke:#F0F0F0;stroke-width:12.64"/>
	<line x1="3136.05" y1="1157.85" x2="3200.85" y2="1157.85" style="stroke:#F0F0F0;stroke-width:12.64"/>
	<line x1="3233.25" y1="1157.85" x2="3298.05" y2="1157.85" style="stroke:#F0F0F0;stroke-width:12.64"/>
	<line x1="3330.68" y1="1157.85" x2="3395.48" y2="1157.85" style="stroke:#F0F0F0;stroke-width:12.64"/>
	<line x1="3427.88" y1="1157.85" x2="3452.63" y2="1157.85" style="stroke:#F0F0F0;stroke-width:12.64"/>
	<line x1="607.50" y1="614.93" x2="672.30" y2="614.93" style="stroke:#F0F0F0;stroke-width:12.64"/>
	<line x1="704.70" y1="614.93" x2="769.50" y2="614.93" style="stroke:#F0F0F0;stroke-width:12.64"/>
	<line x1="801.90" y1="614.93" x2="866.70" y2="614.93" style="stroke:#F0F0F0;stroke-width:12.64"/>
	<line x1="899.33" y1="614.93" x2="964.13" y2="614.93" style="stroke:#F0F0F0;stroke-width:12.64"/>
	<line x1="996.53" y1="614.93" x2="1061.33" y2="614.93" style="stroke:#F0F0F0;stroke-width:12.64"/>
	<line x1="1093.72" y1="614.93" x2="1158.53" y2="614.93" style="stroke:#F0F0F0;stroke-width:12.64"/>
	<line x1="1190.93" y1="614.93" x2="1255.72" y2="614.93" style="stroke:#F0F0F0;stroke-width:12.64"/>
	<line x1="1288.35" y1="614.93" x2="1353.15" y2="614.93" style="stroke:#F0F0F0;stroke-width:12.64"/>
	<line x1="1385.55" y1="614.93" x2="1450.35" y2="614.93" style="stroke:#F0F0F0;stroke-width:12.64"/>
	<line x1="1482.75" y1="614.93" x2="1547.55" y2="614.93" style="stroke:#F0F0F0;stroke-width:12.64"/>
	<line x1="1579.95" y1="614.93" x2="1644.75" y2="614.93" style="stroke:#F0F0F0;stroke-width:12.64"/>
	<line x1="1677.38" y1="614.93" x2="1742.18" y2="614.93" style="stroke:#F0F0F0;stroke-width:12.64"/>
	<line x1="1774.58" y1="614.93" x2="1839.38" y2="614.93" style="stroke:#F0F0F0;stroke-width:12.64"/>
	<line x1="1871.78" y1="614.93" x2="1936.58" y2="614.93" style="stroke:#F0F0F0;stroke-width:12.64"/>
	<line x1="1968.98" y1="614.93" x2="2033.78" y2="614.93" style="stroke:#F0F0F0;stroke-width:12.64"/>
	<line x1="2066.40" y1="614.93" x2="2131.20" y2="614.93" style="stroke:#F0F0F0;stroke-width:12.64"/>
	<line x1="2163.60" y1="614.93" x2="2228.40" y2="614.93" style="stroke:#F0F0F0;stroke-width:12.64"/>
	<line x1="2260.80" y1="614.93" x2="2325.60" y2="614.93" style="stroke:#F0F0F0;stroke-width:12.64"/>
	<line x1="2358.00" y1="614.93" x2="2422.80" y2="614.93" style="stroke:#F0F0F0;stroke-width:12.64"/>
	<line x1="2455.20" y1="614.93" x2="2520.00" y2="614.93" style="stroke:#F0F0F0;stroke-width:12.64"/>
	<line x1="2552.63" y1="614.93" x2="2617.43" y2="614.93" style="stroke:#F0F0F0;stroke-width:12.64"/>
	<line x1="2649.83" y1="614.93" x2="2714.63" y2="614.93" style="stroke:#F0F0F0;stroke-width:12.64"/>
	<line x1="2747.03" y1="614.93" x2="2811.83" y2="614.93" style="stroke:#F0F0F0;stroke-width:12.64"/>
	<line x1="2844.23" y1="614.93" x2="2909.03" y2="614.93" style="stroke:#F0F0F0;stroke-width:12.64"/>
	<line x1="2941.65" y1="614.93" x2="3006.45" y2="614.93" style="stroke:#F0F0F0;stroke-width:12.64"/>
	<line x1="3038.85" y1="614.93" x2="3103.65" y2="614.93" style="stroke:#F0F0F0;stroke-width:12.64"/>
	<line x1="3136.05" y1="614.93" x2="3200.85" y2="614.93" style="stroke:#F0F0F0;stroke-width:12.64"/>
	<line x1="3233.25" y1="614.93" x2="3298.05" y2="614.93" style="stroke:#F0F0F0;stroke-width:12.64"/>
	<line x1="3330.68" y1="614.93" x2="3395.48" y2="614.93" style="stroke:#F0F0F0;stroke-width:12.64"/>
	<line x1="3427.88" y1="614.93" x2="3452.63" y2="614.93" style="stroke:#F0F0F0;stroke-width:12.64"/>
	<rect x="862.43" y="861.53" width="538.20" height="1925.78" style="fill:#1A85FF"/>
	<rect x="866.64" y="865.74" width="529.78" height="1917.35" style="fill:none;stroke:#1A85FF;stroke-width:8.42"/>
	<rect x="1761.08" y="577.57" width="537.98" height="2209.73" style="fill:#1A85FF"/>
	<rect x="1765.29" y="581.79" width="529.55" height="2201.30" style="fill:none;stroke:#1A85FF;stroke-width:8.42"/>
	<rect x="2659.50" y="1491.75" width="537.97" height="1295.55" style="fill:#1A85FF"/>
	<rect x="2663.71" y="1495.96" width="529.55" height="1287.13" style="fill:none;stroke:#1A85FF;stroke-width:8.42"/>
	<line x1="607.50" y1="2787.30" x2="607.50" y2="430.20" style="stroke:#000000;stroke-width:8.42"/>
	<line x1="607.50" y1="2787.30" x2="549.00" y2="2787.30" style="stroke:#000000;stroke-width:8.42"/>
	<text x="519.75" y="2838.54" style="font-family:'Helvetica';font-size:146.25px;fill:#000000" text-anchor="end">0</text>
	<line x1="607.50" y1="2244.15" x2="549.00" y2="2244.15" style="stroke:#000000;stroke-width:8.42"/>
	<text x="519.75" y="2295.39" style="font-family:'Helvetica';font-size:146.25px;fill:#000000" text-anchor="end">10</text>
	<line x1="607.50" y1="1701.00" x2="549.00" y2="1701.00" style="stroke:#000000;stroke-width:8.42"/>
	<text x="519.75" y="1752.24" style="font-family:'Helvetica';font-size:146.25px;fill:#000000" text-anchor="end">20</text>
	<line x1="607.50" y1="1157.85" x2="549.00" y2="1157.85" style="stroke:#000000;stroke-width:8.42"/>
	<text x="519.75" y="1209.09" style="font-family:'Helvetica';font-size:146.25px;fill:#000000" text-anchor="end">30</text>
	<line x1="607.50" y1="614.93" x2="549.00" y2="614.93" style="stroke:#000000;stroke-width:8.42"/>
	<text x="519.75" y="666.17" style="font-family:'Helvetica';font-size:146.25px;fill:#000000" text-anchor="end">40</text>
	<line x1="607.50" y1="2787.30" x2="3452.63" y2="2787.30" style="stroke:#000000;stroke-width:8.42"/>
	<text x="1131.53" y="2948.06" style="font-family:'Helvetica';font-size:146.25px;fill:#000000" text-anchor="middle">Alt. 1</text>
	<text x="2029.95" y="2948.06" style="font-family:'Helvetica';font-size:146.25px;fill:#000000" text-anchor="middle">Alt. 2</text>
	<text x="2928.60" y="2948.06" style="font-family:'Helvetica';font-size:146.25px;fill:#000000" text-anchor="middle">Alt. 3</text>
	<text x="2029.95" y="380.81" style="font-family:'Helvetica';font-size:160.88px;fill:#000000" text-anchor="middle">Share choosing each alternative</text>
	<rect x="3600.00" y="71.32" width="3528.68" height="3097.35" style="fill:#FFFFFF"/>
	<rect x="3604.21" y="75.54" width="3520.25" height="3088.93" style="fill:none;stroke:#FFFFFF;stroke-width:8.42"/>
	<rect x="4112.10" y="430.20" width="2869.20" height="2357.10" style="fill:#FFFFFF"/>
	<rect x="4116.31" y="434.41" width="2860.78" height="2348.68" style="fill:none;stroke:#FFFFFF;stroke-width:8.42"/>
	<line x1="4112.10" y1="2787.30" x2="4176.90" y2="2787.30" style="stroke:#F0F0F0;stroke-width:12.64"/>
	<line x1="4209.30" y1="2787.30" x2="4274.10" y2="2787.30" style="stroke:#F0F0F0;stroke-width:12.64"/>
	<line x1="4306.50" y1="2787.30" x2="4371.30" y2="2787.30" style="stroke:#F0F0F0;stroke-width:12.64"/>
	<line x1="4403.93" y1="2787.30" x2="4468.73" y2="2787.30" style="stroke:#F0F0F0;stroke-width:12.64"/>
	<line x1="4501.13" y1="2787.30" x2="4565.93" y2="2787.30" style="stroke:#F0F0F0;stroke-width:12.64"/>
	<line x1="4598.33" y1="2787.30" x2="4663.13" y2="2787.30" style="stroke:#F0F0F0;stroke-width:12.64"/>
	<line x1="4695.52" y1="2787.30" x2="4760.33" y2="2787.30" style="stroke:#F0F0F0;stroke-width:12.64"/>
	<line x1="4792.95" y1="2787.30" x2="4857.75" y2="2787.30" style="stroke:#F0F0F0;stroke-width:12.64"/>
	<line x1="4890.15" y1="2787.30" x2="4954.95" y2="2787.30" style="stroke:#F0F0F0;stroke-width:12.64"/>
	<line x1="4987.35" y1="2787.30" x2="5052.15" y2="2787.30" style="stroke:#F0F0F0;stroke-width:12.64"/>
	<line x1="5084.55" y1="2787.30" x2="5149.35" y2="2787.30" style="stroke:#F0F0F0;stroke-width:12.64"/>
	<line x1="5181.98" y1="2787.30" x2="5246.78" y2="2787.30" style="stroke:#F0F0F0;stroke-width:12.64"/>
	<line x1="5279.18" y1="2787.30" x2="5343.98" y2="2787.30" style="stroke:#F0F0F0;stroke-width:12.64"/>
	<line x1="5376.38" y1="2787.30" x2="5441.18" y2="2787.30" style="stroke:#F0F0F0;stroke-width:12.64"/>
	<line x1="5473.58" y1="2787.30" x2="5538.38" y2="2787.30" style="stroke:#F0F0F0;stroke-width:12.64"/>
	<line x1="5571.00" y1="2787.30" x2="5635.80" y2="2787.30" style="stroke:#F0F0F0;stroke-width:12.64"/>
	<line x1="5668.20" y1="2787.30" x2="5733.00" y2="2787.30" style="stroke:#F0F0F0;stroke-width:12.64"/>
	<line x1="5765.40" y1="2787.30" x2="5830.20" y2="2787.30" style="stroke:#F0F0F0;stroke-width:12.64"/>
	<line x1="5862.60" y1="2787.30" x2="5927.40" y2="2787.30" style="stroke:#F0F0F0;stroke-width:12.64"/>
	<line x1="5960.03" y1="2787.30" x2="6024.83" y2="2787.30" style="stroke:#F0F0F0;stroke-width:12.64"/>
	<line x1="6057.23" y1="2787.30" x2="6122.03" y2="2787.30" style="stroke:#F0F0F0;stroke-width:12.64"/>
	<line x1="6154.43" y1="2787.30" x2="6219.23" y2="2787.30" style="stroke:#F0F0F0;stroke-width:12.64"/>
	<line x1="6251.63" y1="2787.30" x2="6316.43" y2="2787.30" style="stroke:#F0F0F0;stroke-width:12.64"/>
	<line x1="6349.05" y1="2787.30" x2="6413.85" y2="2787.30" style="stroke:#F0F0F0;stroke-width:12.64"/>
	<line x1="6446.25" y1="2787.30" x2="6511.05" y2="2787.30" style="stroke:#F0F0F0;stroke-width:12.64"/>
	<line x1="6543.45" y1="2787.30" x2="6608.25" y2="2787.30" style="stroke:#F0F0F0;stroke-width:12.64"/>
	<line x1="6640.65" y1="2787.30" x2="6705.45" y2="2787.30" style="stroke:#F0F0F0;stroke-width:12.64"/>
	<line x1="6738.08" y1="2787.30" x2="6802.88" y2="2787.30" style="stroke:#F0F0F0;stroke-width:12.64"/>
	<line x1="6835.28" y1="2787.30" x2="6900.08" y2="2787.30" style="stroke:#F0F0F0;stroke-width:12.64"/>
	<line x1="6932.48" y1="2787.30" x2="6981.30" y2="2787.30" style="stroke:#F0F0F0;stroke-width:12.64"/>
	<line x1="4112.10" y1="2368.80" x2="4176.90" y2="2368.80" style="stroke:#F0F0F0;stroke-width:12.64"/>
	<line x1="4209.30" y1="2368.80" x2="4274.10" y2="2368.80" style="stroke:#F0F0F0;stroke-width:12.64"/>
	<line x1="4306.50" y1="2368.80" x2="4371.30" y2="2368.80" style="stroke:#F0F0F0;stroke-width:12.64"/>
	<line x1="4403.93" y1="2368.80" x2="4468.73" y2="2368.80" style="stroke:#F0F0F0;stroke-width:12.64"/>
	<line x1="4501.13" y1="2368.80" x2="4565.93" y2="2368.80" style="stroke:#F0F0F0;stroke-width:12.64"/>
	<line x1="4598.33" y1="2368.80" x2="4663.13" y2="2368.80" style="stroke:#F0F0F0;stroke-width:12.64"/>
	<line x1="4695.52" y1="2368.80" x2="4760.33" y2="2368.80" style="stroke:#F0F0F0;stroke-width:12.64"/>
	<line x1="4792.95" y1="2368.80" x2="4857.75" y2="2368.80" style="stroke:#F0F0F0;stroke-width:12.64"/>
	<line x1="4890.15" y1="2368.80" x2="4954.95" y2="2368.80" style="stroke:#F0F0F0;stroke-width:12.64"/>
	<line x1="4987.35" y1="2368.80" x2="5052.15" y2="2368.80" style="stroke:#F0F0F0;stroke-width:12.64"/>
	<line x1="5084.55" y1="2368.80" x2="5149.35" y2="2368.80" style="stroke:#F0F0F0;stroke-width:12.64"/>
	<line x1="5181.98" y1="2368.80" x2="5246.78" y2="2368.80" style="stroke:#F0F0F0;stroke-width:12.64"/>
	<line x1="5279.18" y1="2368.80" x2="5343.98" y2="2368.80" style="stroke:#F0F0F0;stroke-width:12.64"/>
	<line x1="5376.38" y1="2368.80" x2="5441.18" y2="2368.80" style="stroke:#F0F0F0;stroke-width:12.64"/>
	<line x1="5473.58" y1="2368.80" x2="5538.38" y2="2368.80" style="stroke:#F0F0F0;stroke-width:12.64"/>
	<line x1="5571.00" y1="2368.80" x2="5635.80" y2="2368.80" style="stroke:#F0F0F0;stroke-width:12.64"/>
	<line x1="5668.20" y1="2368.80" x2="5733.00" y2="2368.80" style="stroke:#F0F0F0;stroke-width:12.64"/>
	<line x1="5765.40" y1="2368.80" x2="5830.20" y2="2368.80" style="stroke:#F0F0F0;stroke-width:12.64"/>
	<line x1="5862.60" y1="2368.80" x2="5927.40" y2="2368.80" style="stroke:#F0F0F0;stroke-width:12.64"/>
	<line x1="5960.03" y1="2368.80" x2="6024.83" y2="2368.80" style="stroke:#F0F0F0;stroke-width:12.64"/>
	<line x1="6057.23" y1="2368.80" x2="6122.03" y2="2368.80" style="stroke:#F0F0F0;stroke-width:12.64"/>
	<line x1="6154.43" y1="2368.80" x2="6219.23" y2="2368.80" style="stroke:#F0F0F0;stroke-width:12.64"/>
	<line x1="6251.63" y1="2368.80" x2="6316.43" y2="2368.80" style="stroke:#F0F0F0;stroke-width:12.64"/>
	<line x1="6349.05" y1="2368.80" x2="6413.85" y2="2368.80" style="stroke:#F0F0F0;stroke-width:12.64"/>
	<line x1="6446.25" y1="2368.80" x2="6511.05" y2="2368.80" style="stroke:#F0F0F0;stroke-width:12.64"/>
	<line x1="6543.45" y1="2368.80" x2="6608.25" y2="2368.80" style="stroke:#F0F0F0;stroke-width:12.64"/>
	<line x1="6640.65" y1="2368.80" x2="6705.45" y2="2368.80" style="stroke:#F0F0F0;stroke-width:12.64"/>
	<line x1="6738.08" y1="2368.80" x2="6802.88" y2="2368.80" style="stroke:#F0F0F0;stroke-width:12.64"/>
	<line x1="6835.28" y1="2368.80" x2="6900.08" y2="2368.80" style="stroke:#F0F0F0;stroke-width:12.64"/>
	<line x1="6932.48" y1="2368.80" x2="6981.30" y2="2368.80" style="stroke:#F0F0F0;stroke-width:12.64"/>
	<line x1="4112.10" y1="1950.30" x2="4176.90" y2="1950.30" style="stroke:#F0F0F0;stroke-width:12.64"/>
	<line x1="4209.30" y1="1950.30" x2="4274.10" y2="1950.30" style="stroke:#F0F0F0;stroke-width:12.64"/>
	<line x1="4306.50" y1="1950.30" x2="4371.30" y2="1950.30" style="stroke:#F0F0F0;stroke-width:12.64"/>
	<line x1="4403.93" y1="1950.30" x2="4468.73" y2="1950.30" style="stroke:#F0F0F0;stroke-width:12.64"/>
	<line x1="4501.13" y1="1950.30" x2="4565.93" y2="1950.30" style="stroke:#F0F0F0;stroke-width:12.64"/>
	<line x1="4598.33" y1="1950.30" x2="4663.13" y2="1950.30" style="stroke:#F0F0F0;stroke-width:12.64"/>
	<line x1="4695.52" y1="1950.30" x2="4760.33" y2="1950.30" style="stroke:#F0F0F0;stroke-width:12.64"/>
	<line x1="4792.95" y1="1950.30" x2="4857.75" y2="1950.30" style="stroke:#F0F0F0;stroke-width:12.64"/>
	<line x1="4890.15" y1="1950.30" x2="4954.95" y2="1950.30" style="stroke:#F0F0F0;stroke-width:12.64"/>
	<line x1="4987.35" y1="1950.30" x2="5052.15" y2="1950.30" style="stroke:#F0F0F0;stroke-width:12.64"/>
	<line x1="5084.55" y1="1950.30" x2="5149.35" y2="1950.30" style="stroke:#F0F0F0;stroke-width:12.64"/>
	<line x1="5181.98" y1="1950.30" x2="5246.78" y2="1950.30" style="stroke:#F0F0F0;stroke-width:12.64"/>
	<line x1="5279.18" y1="1950.30" x2="5343.98" y2="1950.30" style="stroke:#F0F0F0;stroke-width:12.64"/>
	<line x1="5376.38" y1="1950.30" x2="5441.18" y2="1950.30" style="stroke:#F0F0F0;stroke-width:12.64"/>
	<line x1="5473.58" y1="1950.30" x2="5538.38" y2="1950.30" style="stroke:#F0F0F0;stroke-width:12.64"/>
	<line x1="5571.00" y1="1950.30" x2="5635.80" y2="1950.30" style="stroke:#F0F0F0;stroke-width:12.64"/>
	<line x1="5668.20" y1="1950.30" x2="5733.00" y2="1950.30" style="stroke:#F0F0F0;stroke-width:12.64"/>
	<line x1="5765.40" y1="1950.30" x2="5830.20" y2="1950.30" style="stroke:#F0F0F0;stroke-width:12.64"/>
	<line x1="5862.60" y1="1950.30" x2="5927.40" y2="1950.30" style="stroke:#F0F0F0;stroke-width:12.64"/>
	<line x1="5960.03" y1="1950.30" x2="6024.83" y2="1950.30" style="stroke:#F0F0F0;stroke-width:12.64"/>
	<line x1="6057.23" y1="1950.30" x2="6122.03" y2="1950.30" style="stroke:#F0F0F0;stroke-width:12.64"/>
	<line x1="6154.43" y1="1950.30" x2="6219.23" y2="1950.30" style="stroke:#F0F0F0;stroke-width:12.64"/>
	<line x1="6251.63" y1="1950.30" x2="6316.43" y2="1950.30" style="stroke:#F0F0F0;stroke-width:12.64"/>
	<line x1="6349.05" y1="1950.30" x2="6413.85" y2="1950.30" style="stroke:#F0F0F0;stroke-width:12.64"/>
	<line x1="6446.25" y1="1950.30" x2="6511.05" y2="1950.30" style="stroke:#F0F0F0;stroke-width:12.64"/>
	<line x1="6543.45" y1="1950.30" x2="6608.25" y2="1950.30" style="stroke:#F0F0F0;stroke-width:12.64"/>
	<line x1="6640.65" y1="1950.30" x2="6705.45" y2="1950.30" style="stroke:#F0F0F0;stroke-width:12.64"/>
	<line x1="6738.08" y1="1950.30" x2="6802.88" y2="1950.30" style="stroke:#F0F0F0;stroke-width:12.64"/>
	<line x1="6835.28" y1="1950.30" x2="6900.08" y2="1950.30" style="stroke:#F0F0F0;stroke-width:12.64"/>
	<line x1="6932.48" y1="1950.30" x2="6981.30" y2="1950.30" style="stroke:#F0F0F0;stroke-width:12.64"/>
	<line x1="4112.10" y1="1532.03" x2="4176.90" y2="1532.03" style="stroke:#F0F0F0;stroke-width:12.64"/>
	<line x1="4209.30" y1="1532.03" x2="4274.10" y2="1532.03" style="stroke:#F0F0F0;stroke-width:12.64"/>
	<line x1="4306.50" y1="1532.03" x2="4371.30" y2="1532.03" style="stroke:#F0F0F0;stroke-width:12.64"/>
	<line x1="4403.93" y1="1532.03" x2="4468.73" y2="1532.03" style="stroke:#F0F0F0;stroke-width:12.64"/>
	<line x1="4501.13" y1="1532.03" x2="4565.93" y2="1532.03" style="stroke:#F0F0F0;stroke-width:12.64"/>
	<line x1="4598.33" y1="1532.03" x2="4663.13" y2="1532.03" style="stroke:#F0F0F0;stroke-width:12.64"/>
	<line x1="4695.52" y1="1532.03" x2="4760.33" y2="1532.03" style="stroke:#F0F0F0;stroke-width:12.64"/>
	<line x1="4792.95" y1="1532.03" x2="4857.75" y2="1532.03" style="stroke:#F0F0F0;stroke-width:12.64"/>
	<line x1="4890.15" y1="1532.03" x2="4954.95" y2="1532.03" style="stroke:#F0F0F0;stroke-width:12.64"/>
	<line x1="4987.35" y1="1532.03" x2="5052.15" y2="1532.03" style="stroke:#F0F0F0;stroke-width:12.64"/>
	<line x1="5084.55" y1="1532.03" x2="5149.35" y2="1532.03" style="stroke:#F0F0F0;stroke-width:12.64"/>
	<line x1="5181.98" y1="1532.03" x2="5246.78" y2="1532.03" style="stroke:#F0F0F0;stroke-width:12.64"/>
	<line x1="5279.18" y1="1532.03" x2="5343.98" y2="1532.03" style="stroke:#F0F0F0;stroke-width:12.64"/>
	<line x1="5376.38" y1="1532.03" x2="5441.18" y2="1532.03" style="stroke:#F0F0F0;stroke-width:12.64"/>
	<line x1="5473.58" y1="1532.03" x2="5538.38" y2="1532.03" style="stroke:#F0F0F0;stroke-width:12.64"/>
	<line x1="5571.00" y1="1532.03" x2="5635.80" y2="1532.03" style="stroke:#F0F0F0;stroke-width:12.64"/>
	<line x1="5668.20" y1="1532.03" x2="5733.00" y2="1532.03" style="stroke:#F0F0F0;stroke-width:12.64"/>
	<line x1="5765.40" y1="1532.03" x2="5830.20" y2="1532.03" style="stroke:#F0F0F0;stroke-width:12.64"/>
	<line x1="5862.60" y1="1532.03" x2="5927.40" y2="1532.03" style="stroke:#F0F0F0;stroke-width:12.64"/>
	<line x1="5960.03" y1="1532.03" x2="6024.83" y2="1532.03" style="stroke:#F0F0F0;stroke-width:12.64"/>
	<line x1="6057.23" y1="1532.03" x2="6122.03" y2="1532.03" style="stroke:#F0F0F0;stroke-width:12.64"/>
	<line x1="6154.43" y1="1532.03" x2="6219.23" y2="1532.03" style="stroke:#F0F0F0;stroke-width:12.64"/>
	<line x1="6251.63" y1="1532.03" x2="6316.43" y2="1532.03" style="stroke:#F0F0F0;stroke-width:12.64"/>
	<line x1="6349.05" y1="1532.03" x2="6413.85" y2="1532.03" style="stroke:#F0F0F0;stroke-width:12.64"/>
	<line x1="6446.25" y1="1532.03" x2="6511.05" y2="1532.03" style="stroke:#F0F0F0;stroke-width:12.64"/>
	<line x1="6543.45" y1="1532.03" x2="6608.25" y2="1532.03" style="stroke:#F0F0F0;stroke-width:12.64"/>
	<line x1="6640.65" y1="1532.03" x2="6705.45" y2="1532.03" style="stroke:#F0F0F0;stroke-width:12.64"/>
	<line x1="6738.08" y1="1532.03" x2="6802.88" y2="1532.03" style="stroke:#F0F0F0;stroke-width:12.64"/>
	<line x1="6835.28" y1="1532.03" x2="6900.08" y2="1532.03" style="stroke:#F0F0F0;stroke-width:12.64"/>
	<line x1="6932.48" y1="1532.03" x2="6981.30" y2="1532.03" style="stroke:#F0F0F0;stroke-width:12.64"/>
	<line x1="4112.10" y1="1113.53" x2="4176.90" y2="1113.53" style="stroke:#F0F0F0;stroke-width:12.64"/>
	<line x1="4209.30" y1="1113.53" x2="4274.10" y2="1113.53" style="stroke:#F0F0F0;stroke-width:12.64"/>
	<line x1="4306.50" y1="1113.53" x2="4371.30" y2="1113.53" style="stroke:#F0F0F0;stroke-width:12.64"/>
	<line x1="4403.93" y1="1113.53" x2="4468.73" y2="1113.53" style="stroke:#F0F0F0;stroke-width:12.64"/>
	<line x1="4501.13" y1="1113.53" x2="4565.93" y2="1113.53" style="stroke:#F0F0F0;stroke-width:12.64"/>
	<line x1="4598.33" y1="1113.53" x2="4663.13" y2="1113.53" style="stroke:#F0F0F0;stroke-width:12.64"/>
	<line x1="4695.52" y1="1113.53" x2="4760.33" y2="1113.53" style="stroke:#F0F0F0;stroke-width:12.64"/>
	<line x1="4792.95" y1="1113.53" x2="4857.75" y2="1113.53" style="stroke:#F0F0F0;stroke-width:12.64"/>
	<line x1="4890.15" y1="1113.53" x2="4954.95" y2="1113.53" style="stroke:#F0F0F0;stroke-width:12.64"/>
	<line x1="4987.35" y1="1113.53" x2="5052.15" y2="1113.53" style="stroke:#F0F0F0;stroke-width:12.64"/>
	<line x1="5084.55" y1="1113.53" x2="5149.35" y2="1113.53" style="stroke:#F0F0F0;stroke-width:12.64"/>
	<line x1="5181.98" y1="1113.53" x2="5246.78" y2="1113.53" style="stroke:#F0F0F0;stroke-width:12.64"/>
	<line x1="5279.18" y1="1113.53" x2="5343.98" y2="1113.53" style="stroke:#F0F0F0;stroke-width:12.64"/>
	<line x1="5376.38" y1="1113.53" x2="5441.18" y2="1113.53" style="stroke:#F0F0F0;stroke-width:12.64"/>
	<line x1="5473.58" y1="1113.53" x2="5538.38" y2="1113.53" style="stroke:#F0F0F0;stroke-width:12.64"/>
	<line x1="5571.00" y1="1113.53" x2="5635.80" y2="1113.53" style="stroke:#F0F0F0;stroke-width:12.64"/>
	<line x1="5668.20" y1="1113.53" x2="5733.00" y2="1113.53" style="stroke:#F0F0F0;stroke-width:12.64"/>
	<line x1="5765.40" y1="1113.53" x2="5830.20" y2="1113.53" style="stroke:#F0F0F0;stroke-width:12.64"/>
	<line x1="5862.60" y1="1113.53" x2="5927.40" y2="1113.53" style="stroke:#F0F0F0;stroke-width:12.64"/>
	<line x1="5960.03" y1="1113.53" x2="6024.83" y2="1113.53" style="stroke:#F0F0F0;stroke-width:12.64"/>
	<line x1="6057.23" y1="1113.53" x2="6122.03" y2="1113.53" style="stroke:#F0F0F0;stroke-width:12.64"/>
	<line x1="6154.43" y1="1113.53" x2="6219.23" y2="1113.53" style="stroke:#F0F0F0;stroke-width:12.64"/>
	<line x1="6251.63" y1="1113.53" x2="6316.43" y2="1113.53" style="stroke:#F0F0F0;stroke-width:12.64"/>
	<line x1="6349.05" y1="1113.53" x2="6413.85" y2="1113.53" style="stroke:#F0F0F0;stroke-width:12.64"/>
	<line x1="6446.25" y1="1113.53" x2="6511.05" y2="1113.53" style="stroke:#F0F0F0;stroke-width:12.64"/>
	<line x1="6543.45" y1="1113.53" x2="6608.25" y2="1113.53" style="stroke:#F0F0F0;stroke-width:12.64"/>
	<line x1="6640.65" y1="1113.53" x2="6705.45" y2="1113.53" style="stroke:#F0F0F0;stroke-width:12.64"/>
	<line x1="6738.08" y1="1113.53" x2="6802.88" y2="1113.53" style="stroke:#F0F0F0;stroke-width:12.64"/>
	<line x1="6835.28" y1="1113.53" x2="6900.08" y2="1113.53" style="stroke:#F0F0F0;stroke-width:12.64"/>
	<line x1="6932.48" y1="1113.53" x2="6981.30" y2="1113.53" style="stroke:#F0F0F0;stroke-width:12.64"/>
	<line x1="4112.10" y1="695.03" x2="4176.90" y2="695.03" style="stroke:#F0F0F0;stroke-width:12.64"/>
	<line x1="4209.30" y1="695.03" x2="4274.10" y2="695.03" style="stroke:#F0F0F0;stroke-width:12.64"/>
	<line x1="4306.50" y1="695.03" x2="4371.30" y2="695.03" style="stroke:#F0F0F0;stroke-width:12.64"/>
	<line x1="4403.93" y1="695.03" x2="4468.73" y2="695.03" style="stroke:#F0F0F0;stroke-width:12.64"/>
	<line x1="4501.13" y1="695.03" x2="4565.93" y2="695.03" style="stroke:#F0F0F0;stroke-width:12.64"/>
	<line x1="4598.33" y1="695.03" x2="4663.13" y2="695.03" style="stroke:#F0F0F0;stroke-width:12.64"/>
	<line x1="4695.52" y1="695.03" x2="4760.33" y2="695.03" style="stroke:#F0F0F0;stroke-width:12.64"/>
	<line x1="4792.95" y1="695.03" x2="4857.75" y2="695.03" style="stroke:#F0F0F0;stroke-width:12.64"/>
	<line x1="4890.15" y1="695.03" x2="4954.95" y2="695.03" style="stroke:#F0F0F0;stroke-width:12.64"/>
	<line x1="4987.35" y1="695.03" x2="5052.15" y2="695.03" style="stroke:#F0F0F0;stroke-width:12.64"/>
	<line x1="5084.55" y1="695.03" x2="5149.35" y2="695.03" style="stroke:#F0F0F0;stroke-width:12.64"/>
	<line x1="5181.98" y1="695.03" x2="5246.78" y2="695.03" style="stroke:#F0F0F0;stroke-width:12.64"/>
	<line x1="5279.18" y1="695.03" x2="5343.98" y2="695.03" style="stroke:#F0F0F0;stroke-width:12.64"/>
	<line x1="5376.38" y1="695.03" x2="5441.18" y2="695.03" style="stroke:#F0F0F0;stroke-width:12.64"/>
	<line x1="5473.58" y1="695.03" x2="5538.38" y2="695.03" style="stroke:#F0F0F0;stroke-width:12.64"/>
	<line x1="5571.00" y1="695.03" x2="5635.80" y2="695.03" style="stroke:#F0F0F0;stroke-width:12.64"/>
	<line x1="5668.20" y1="695.03" x2="5733.00" y2="695.03" style="stroke:#F0F0F0;stroke-width:12.64"/>
	<line x1="5765.40" y1="695.03" x2="5830.20" y2="695.03" style="stroke:#F0F0F0;stroke-width:12.64"/>
	<line x1="5862.60" y1="695.03" x2="5927.40" y2="695.03" style="stroke:#F0F0F0;stroke-width:12.64"/>
	<line x1="5960.03" y1="695.03" x2="6024.83" y2="695.03" style="stroke:#F0F0F0;stroke-width:12.64"/>
	<line x1="6057.23" y1="695.03" x2="6122.03" y2="695.03" style="stroke:#F0F0F0;stroke-width:12.64"/>
	<line x1="6154.43" y1="695.03" x2="6219.23" y2="695.03" style="stroke:#F0F0F0;stroke-width:12.64"/>
	<line x1="6251.63" y1="695.03" x2="6316.43" y2="695.03" style="stroke:#F0F0F0;stroke-width:12.64"/>
	<line x1="6349.05" y1="695.03" x2="6413.85" y2="695.03" style="stroke:#F0F0F0;stroke-width:12.64"/>
	<line x1="6446.25" y1="695.03" x2="6511.05" y2="695.03" style="stroke:#F0F0F0;stroke-width:12.64"/>
	<line x1="6543.45" y1="695.03" x2="6608.25" y2="695.03" style="stroke:#F0F0F0;stroke-width:12.64"/>
	<line x1="6640.65" y1="695.03" x2="6705.45" y2="695.03" style="stroke:#F0F0F0;stroke-width:12.64"/>
	<line x1="6738.08" y1="695.03" x2="6802.88" y2="695.03" style="stroke:#F0F0F0;stroke-width:12.64"/>
	<line x1="6835.28" y1="695.03" x2="6900.08" y2="695.03" style="stroke:#F0F0F0;stroke-width:12.64"/>
	<line x1="6932.48" y1="695.03" x2="6981.30" y2="695.03" style="stroke:#F0F0F0;stroke-width:12.64"/>
	<rect x="4323.38" y="1203.97" width="318.60" height="1583.33" style="fill:#1A85FF"/>
	<rect x="4327.59" y="1208.19" width="310.18" height="1574.90" style="fill:none;stroke:#1A85FF;stroke-width:8.42"/>
	<rect x="4855.27" y="577.57" width="318.60" height="2209.73" style="fill:#1A85FF"/>
	<rect x="4859.49" y="581.79" width="310.18" height="2201.30" style="fill:none;stroke:#1A85FF;stroke-width:8.42"/>
	<rect x="5387.40" y="2769.98" width="318.60" height="17.33" style="fill:#1A85FF"/>
	<rect x="5391.61" y="2774.19" width="310.18" height="8.90" style="fill:none;stroke:#1A85FF;stroke-width:8.42"/>
	<rect x="5919.53" y="2761.20" width="318.60" height="26.10" style="fill:#1A85FF"/>
	<rect x="5923.74" y="2765.41" width="310.18" height="17.68" style="fill:none;stroke:#1A85FF;stroke-width:8.42"/>
	<rect x="6451.65" y="2439.23" width="318.60" height="348.08" style="fill:#1A85FF"/>
	<rect x="6455.86" y="2443.44" width="310.18" height="339.65" style="fill:none;stroke:#1A85FF;stroke-width:8.42"/>
	<line x1="4112.10" y1="2787.30" x2="4112.10" y2="430.20" style="stroke:#000000;stroke-width:8.42"/>
	<line x1="4112.10" y1="2787.30" x2="4053.60" y2="2787.30" style="stroke:#000000;stroke-width:8.42"/>
	<text x="4024.35" y="2838.54" style="font-family:'Helvetica';font-size:146.25px;fill:#000000" text-anchor="end">0</text>
	<line x1="4112.10" y1="2368.80" x2="4053.60" y2="2368.80" style="stroke:#000000;stroke-width:8.42"/>
	<text x="4024.35" y="2420.04" style="font-family:'Helvetica';font-size:146.25px;fill:#000000" text-anchor="end">10</text>
	<line x1="4112.10" y1="1950.30" x2="4053.60" y2="1950.30" style="stroke:#000000;stroke-width:8.42"/>
	<text x="4024.35" y="2001.54" style="font-family:'Helvetica';font-size:146.25px;fill:#000000" text-anchor="end">20</text>
	<line x1="4112.10" y1="1532.03" x2="4053.60" y2="1532.03" style="stroke:#000000;stroke-width:8.42"/>
	<text x="4024.35" y="1583.27" style="font-family:'Helvetica';font-size:146.25px;fill:#000000" text-anchor="end">30</text>
	<line x1="4112.10" y1="1113.53" x2="4053.60" y2="1113.53" style="stroke:#000000;stroke-width:8.42"/>
	<text x="4024.35" y="1164.77" style="font-family:'Helvetica';font-size:146.25px;fill:#000000" text-anchor="end">40</text>
	<line x1="4112.10" y1="695.03" x2="4053.60" y2="695.03" style="stroke:#000000;stroke-width:8.42"/>
	<text x="4024.35" y="746.27" style="font-family:'Helvetica';font-size:146.25px;fill:#000000" text-anchor="end">50</text>
	<line x1="4112.10" y1="2787.30" x2="6981.30" y2="2787.30" style="stroke:#000000;stroke-width:8.42"/>
	<text x="4482.68" y="2948.06" style="font-family:'Helvetica';font-size:146.25px;fill:#000000" text-anchor="middle">No</text>
	<text x="5014.58" y="2948.06" style="font-family:'Helvetica';font-size:146.25px;fill:#000000" text-anchor="middle">Alt. 1 or 2</text>
	<text x="5546.70" y="2948.06" style="font-family:'Helvetica';font-size:146.25px;fill:#000000" text-anchor="middle">Alt. 1</text>
	<text x="6078.83" y="2948.06" style="font-family:'Helvetica';font-size:146.25px;fill:#000000" text-anchor="middle">Alt. 2</text>
	<text x="6610.95" y="2948.06" style="font-family:'Helvetica';font-size:146.25px;fill:#000000" text-anchor="middle">Alt. 3</text>
	<text x="5546.70" y="380.81" style="font-family:'Helvetica';font-size:160.88px;fill:#000000" text-anchor="middle">Share always choosing same alternative</text>
</svg>
