<?xml version="1.0" encoding="UTF-8" standalone="no"?>
<!-- This is a Stata 18.5 generated SVG file (http://www.stata.com) -->

<svg version="1.1" width="8.000in" height="4.500in" viewBox="0 0 5760 3240" xmlns="http://www.w3.org/2000/svg" xmlns:xlink="http://www.w3.org/1999/xlink">
	<desc>Stata Graph - Graph</desc>
	<rect x="0" y="0" width="5760" height="3240" style="fill:#FFFFFF;stroke:none"/>
	<rect x="0.00" y="0.00" width="5760.00" height="3240.00" style="fill:#FFFFFF"/>
	<rect x="3.24" y="3.24" width="5753.52" height="3233.52" style="fill:none;stroke:#FFFFFF;stroke-width:6.48"/>
	<rect x="524.88" y="113.40" width="3396.24" height="2945.70" style="fill:#FFFFFF"/>
	<rect x="528.12" y="116.64" width="3389.76" height="2939.22" style="fill:none;stroke:#FFFFFF;stroke-width:6.48"/>
	<line x1="524.88" y1="3059.10" x2="589.68" y2="3059.10" style="stroke:#F0F0F0;stroke-width:9.72"/>
	<line x1="622.08" y1="3059.10" x2="686.88" y2="3059.10" style="stroke:#F0F0F0;stroke-width:9.72"/>
	<line x1="719.28" y1="3059.10" x2="784.08" y2="3059.10" style="stroke:#F0F0F0;stroke-width:9.72"/>
	<line x1="816.48" y1="3059.10" x2="881.28" y2="3059.10" style="stroke:#F0F0F0;stroke-width:9.72"/>
	<line x1="913.68" y1="3059.10" x2="978.48" y2="3059.10" style="stroke:#F0F0F0;stroke-width:9.72"/>
	<line x1="1010.88" y1="3059.10" x2="1075.68" y2="3059.10" style="stroke:#F0F0F0;stroke-width:9.72"/>
	<line x1="1108.08" y1="3059.10" x2="1172.88" y2="3059.10" style="stroke:#F0F0F0;stroke-width:9.72"/>
	<line x1="1205.28" y1="3059.10" x2="1270.08" y2="3059.10" style="stroke:#F0F0F0;stroke-width:9.72"/>
	<line x1="1302.48" y1="3059.10" x2="1367.28" y2="3059.10" style="stroke:#F0F0F0;stroke-width:9.72"/>
	<line x1="1399.68" y1="3059.10" x2="1464.48" y2="3059.10" style="stroke:#F0F0F0;stroke-width:9.72"/>
	<line x1="1497.06" y1="3059.10" x2="1561.68" y2="3059.10" style="stroke:#F0F0F0;stroke-width:9.72"/>
	<line x1="1594.26" y1="3059.10" x2="1658.88" y2="3059.10" style="stroke:#F0F0F0;stroke-width:9.72"/>
	<line x1="1691.46" y1="3059.10" x2="1756.26" y2="3059.10" style="stroke:#F0F0F0;stroke-width:9.72"/>
	<line x1="1788.66" y1="3059.10" x2="1853.46" y2="3059.10" style="stroke:#F0F0F0;stroke-width:9.72"/>
	<line x1="1885.86" y1="3059.10" x2="1950.66" y2="3059.10" style="stroke:#F0F0F0;stroke-width:9.72"/>
	<line x1="1983.06" y1="3059.10" x2="2047.86" y2="3059.10" style="stroke:#F0F0F0;stroke-width:9.72"/>
	<line x1="2080.26" y1="3059.10" x2="2145.06" y2="3059.10" style="stroke:#F0F0F0;stroke-width:9.72"/>
	<line x1="2177.46" y1="3059.10" x2="2242.26" y2="3059.10" style="stroke:#F0F0F0;stroke-width:9.72"/>
	<line x1="2274.66" y1="3059.10" x2="2339.46" y2="3059.10" style="stroke:#F0F0F0;stroke-width:9.72"/>
	<line x1="2371.86" y1="3059.10" x2="2436.66" y2="3059.10" style="stroke:#F0F0F0;stroke-width:9.72"/>
	<line x1="2469.06" y1="3059.10" x2="2533.86" y2="3059.10" style="stroke:#F0F0F0;stroke-width:9.72"/>
	<line x1="2566.26" y1="3059.10" x2="2631.06" y2="3059.10" style="stroke:#F0F0F0;stroke-width:9.72"/>
	<line x1="2663.46" y1="3059.10" x2="2728.26" y2="3059.10" style="stroke:#F0F0F0;stroke-width:9.72"/>
	<line x1="2760.66" y1="3059.10" x2="2825.46" y2="3059.10" style="stroke:#F0F0F0;stroke-width:9.72"/>
	<line x1="2857.86" y1="3059.10" x2="2922.66" y2="3059.10" style="stroke:#F0F0F0;stroke-width:9.72"/>
	<line x1="2955.06" y1="3059.10" x2="3019.86" y2="3059.10" style="stroke:#F0F0F0;stroke-width:9.72"/>
	<line x1="3052.44" y1="3059.10" x2="3117.06" y2="3059.10" style="stroke:#F0F0F0;stroke-width:9.72"/>
	<line x1="3149.64" y1="3059.10" x2="3214.26" y2="3059.10" style="stroke:#F0F0F0;stroke-width:9.72"/>
	<line x1="3246.84" y1="3059.10" x2="3311.64" y2="3059.10" style="stroke:#F0F0F0;stroke-width:9.72"/>
	<line x1="3344.04" y1="3059.10" x2="3408.84" y2="3059.10" style="stroke:#F0F0F0;stroke-width:9.72"/>
	<line x1="3441.24" y1="3059.10" x2="3506.04" y2="3059.10" style="stroke:#F0F0F0;stroke-width:9.72"/>
	<line x1="3538.44" y1="3059.10" x2="3603.24" y2="3059.10" style="stroke:#F0F0F0;stroke-width:9.72"/>
	<line x1="3635.64" y1="3059.10" x2="3700.44" y2="3059.10" style="stroke:#F0F0F0;stroke-width:9.72"/>
	<line x1="3732.84" y1="3059.10" x2="3797.64" y2="3059.10" style="stroke:#F0F0F0;stroke-width:9.72"/>
	<line x1="3830.04" y1="3059.10" x2="3894.84" y2="3059.10" style="stroke:#F0F0F0;stroke-width:9.72"/>
	<line x1="524.88" y1="2500.74" x2="589.68" y2="2500.74" style="stroke:#F0F0F0;stroke-width:9.72"/>
	<line x1="622.08" y1="2500.74" x2="686.88" y2="2500.74" style="stroke:#F0F0F0;stroke-width:9.72"/>
	<line x1="719.28" y1="2500.74" x2="784.08" y2="2500.74" style="stroke:#F0F0F0;stroke-width:9.72"/>
	<line x1="816.48" y1="2500.74" x2="881.28" y2="2500.74" style="stroke:#F0F0F0;stroke-width:9.72"/>
	<line x1="913.68" y1="2500.74" x2="978.48" y2="2500.74" style="stroke:#F0F0F0;stroke-width:9.72"/>
	<line x1="1010.88" y1="2500.74" x2="1075.68" y2="2500.74" style="stroke:#F0F0F0;stroke-width:9.72"/>
	<line x1="1108.08" y1="2500.74" x2="1172.88" y2="2500.74" style="stroke:#F0F0F0;stroke-width:9.72"/>
	<line x1="1205.28" y1="2500.74" x2="1270.08" y2="2500.74" style="stroke:#F0F0F0;stroke-width:9.72"/>
	<line x1="1302.48" y1="2500.74" x2="1367.28" y2="2500.74" style="stroke:#F0F0F0;stroke-width:9.72"/>
	<line x1="1399.68" y1="2500.74" x2="1464.48" y2="2500.74" style="stroke:#F0F0F0;stroke-width:9.72"/>
	<line x1="1497.06" y1="2500.74" x2="1561.68" y2="2500.74" style="stroke:#F0F0F0;stroke-width:9.72"/>
	<line x1="1594.26" y1="2500.74" x2="1658.88" y2="2500.74" style="stroke:#F0F0F0;stroke-width:9.72"/>
	<line x1="1691.46" y1="2500.74" x2="1756.26" y2="2500.74" style="stroke:#F0F0F0;stroke-width:9.72"/>
	<line x1="1788.66" y1="2500.74" x2="1853.46" y2="2500.74" style="stroke:#F0F0F0;stroke-width:9.72"/>
	<line x1="1885.86" y1="2500.74" x2="1950.66" y2="2500.74" style="stroke:#F0F0F0;stroke-width:9.72"/>
	<line x1="1983.06" y1="2500.74" x2="2047.86" y2="2500.74" style="stroke:#F0F0F0;stroke-width:9.72"/>
	<line x1="2080.26" y1="2500.74" x2="2145.06" y2="2500.74" style="stroke:#F0F0F0;stroke-width:9.72"/>
	<line x1="2177.46" y1="2500.74" x2="2242.26" y2="2500.74" style="stroke:#F0F0F0;stroke-width:9.72"/>
	<line x1="2274.66" y1="2500.74" x2="2339.46" y2="2500.74" style="stroke:#F0F0F0;stroke-width:9.72"/>
	<line x1="2371.86" y1="2500.74" x2="2436.66" y2="2500.74" style="stroke:#F0F0F0;stroke-width:9.72"/>
	<line x1="2469.06" y1="2500.74" x2="2533.86" y2="2500.74" style="stroke:#F0F0F0;stroke-width:9.72"/>
	<line x1="2566.26" y1="2500.74" x2="2631.06" y2="2500.74" style="stroke:#F0F0F0;stroke-width:9.72"/>
	<line x1="2663.46" y1="2500.74" x2="2728.26" y2="2500.74" style="stroke:#F0F0F0;stroke-width:9.72"/>
	<line x1="2760.66" y1="2500.74" x2="2825.46" y2="2500.74" style="stroke:#F0F0F0;stroke-width:9.72"/>
	<line x1="2857.86" y1="2500.74" x2="2922.66" y2="2500.74" style="stroke:#F0F0F0;stroke-width:9.72"/>
	<line x1="2955.06" y1="2500.74" x2="3019.86" y2="2500.74" style="stroke:#F0F0F0;stroke-width:9.72"/>
	<line x1="3052.44" y1="2500.74" x2="3117.06" y2="2500.74" style="stroke:#F0F0F0;stroke-width:9.72"/>
	<line x1="3149.64" y1="2500.74" x2="3214.26" y2="2500.74" style="stroke:#F0F0F0;stroke-width:9.72"/>
	<line x1="3246.84" y1="2500.74" x2="3311.64" y2="2500.74" style="stroke:#F0F0F0;stroke-width:9.72"/>
	<line x1="3344.04" y1="2500.74" x2="3408.84" y2="2500.74" style="stroke:#F0F0F0;stroke-width:9.72"/>
	<line x1="3441.24" y1="2500.74" x2="3506.04" y2="2500.74" style="stroke:#F0F0F0;stroke-width:9.72"/>
	<line x1="3538.44" y1="2500.74" x2="3603.24" y2="2500.74" style="stroke:#F0F0F0;stroke-width:9.72"/>
	<line x1="3635.64" y1="2500.74" x2="3700.44" y2="2500.74" style="stroke:#F0F0F0;stroke-width:9.72"/>
	<line x1="3732.84" y1="2500.74" x2="3797.64" y2="2500.74" style="stroke:#F0F0F0;stroke-width:9.72"/>
	<line x1="3830.04" y1="2500.74" x2="3894.84" y2="2500.74" style="stroke:#F0F0F0;stroke-width:9.72"/>
	<line x1="524.88" y1="1942.38" x2="589.68" y2="1942.38" style="stroke:#F0F0F0;stroke-width:9.72"/>
	<line x1="622.08" y1="1942.38" x2="686.88" y2="1942.38" style="stroke:#F0F0F0;stroke-width:9.72"/>
	<line x1="719.28" y1="1942.38" x2="784.08" y2="1942.38" style="stroke:#F0F0F0;stroke-width:9.72"/>
	<line x1="816.48" y1="1942.38" x2="881.28" y2="1942.38" style="stroke:#F0F0F0;stroke-width:9.72"/>
	<line x1="913.68" y1="1942.38" x2="978.48" y2="1942.38" style="stroke:#F0F0F0;stroke-width:9.72"/>
	<line x1="1010.88" y1="1942.38" x2="1075.68" y2="1942.38" style="stroke:#F0F0F0;stroke-width:9.72"/>
	<line x1="1108.08" y1="1942.38" x2="1172.88" y2="1942.38" style="stroke:#F0F0F0;stroke-width:9.72"/>
	<line x1="1205.28" y1="1942.38" x2="1270.08" y2="1942.38" style="stroke:#F0F0F0;stroke-width:9.72"/>
	<line x1="1302.48" y1="1942.38" x2="1367.28" y2="1942.38" style="stroke:#F0F0F0;stroke-width:9.72"/>
	<line x1="1399.68" y1="1942.38" x2="1464.48" y2="1942.38" style="stroke:#F0F0F0;stroke-width:9.72"/>
	<line x1="1497.06" y1="1942.38" x2="1561.68" y2="1942.38" style="stroke:#F0F0F0;stroke-width:9.72"/>
	<line x1="1594.26" y1="1942.38" x2="1658.88" y2="1942.38" style="stroke:#F0F0F0;stroke-width:9.72"/>
	<line x1="1691.46" y1="1942.38" x2="1756.26" y2="1942.38" style="stroke:#F0F0F0;stroke-width:9.72"/>
	<line x1="1788.66" y1="1942.38" x2="1853.46" y2="1942.38" style="stroke:#F0F0F0;stroke-width:9.72"/>
	<line x1="1885.86" y1="1942.38" x2="1950.66" y2="1942.38" style="stroke:#F0F0F0;stroke-width:9.72"/>
	<line x1="1983.06" y1="1942.38" x2="2047.86" y2="1942.38" style="stroke:#F0F0F0;stroke-width:9.72"/>
	<line x1="2080.26" y1="1942.38" x2="2145.06" y2="1942.38" style="stroke:#F0F0F0;stroke-width:9.72"/>
	<line x1="2177.46" y1="1942.38" x2="2242.26" y2="1942.38" style="stroke:#F0F0F0;stroke-width:9.72"/>
	<line x1="2274.66" y1="1942.38" x2="2339.46" y2="1942.38" style="stroke:#F0F0F0;stroke-width:9.72"/>
	<line x1="2371.86" y1="1942.38" x2="2436.66" y2="1942.38" style="stroke:#F0F0F0;stroke-width:9.72"/>
	<line x1="2469.06" y1="1942.38" x2="2533.86" y2="1942.38" style="stroke:#F0F0F0;stroke-width:9.72"/>
	<line x1="2566.26" y1="1942.38" x2="2631.06" y2="1942.38" style="stroke:#F0F0F0;stroke-width:9.72"/>
	<line x1="2663.46" y1="1942.38" x2="2728.26" y2="1942.38" style="stroke:#F0F0F0;stroke-width:9.72"/>
	<line x1="2760.66" y1="1942.38" x2="2825.46" y2="1942.38" style="stroke:#F0F0F0;stroke-width:9.72"/>
	<line x1="2857.86" y1="1942.38" x2="2922.66" y2="1942.38" style="stroke:#F0F0F0;stroke-width:9.72"/>
	<line x1="2955.06" y1="1942.38" x2="3019.86" y2="1942.38" style="stroke:#F0F0F0;stroke-width:9.72"/>
	<line x1="3052.44" y1="1942.38" x2="3117.06" y2="1942.38" style="stroke:#F0F0F0;stroke-width:9.72"/>
	<line x1="3149.64" y1="1942.38" x2="3214.26" y2="1942.38" style="stroke:#F0F0F0;stroke-width:9.72"/>
	<line x1="3246.84" y1="1942.38" x2="3311.64" y2="1942.38" style="stroke:#F0F0F0;stroke-width:9.72"/>
	<line x1="3344.04" y1="1942.38" x2="3408.84" y2="1942.38" style="stroke:#F0F0F0;stroke-width:9.72"/>
	<line x1="3441.24" y1="1942.38" x2="3506.04" y2="1942.38" style="stroke:#F0F0F0;stroke-width:9.72"/>
	<line x1="3538.44" y1="1942.38" x2="3603.24" y2="1942.38" style="stroke:#F0F0F0;stroke-width:9.72"/>
	<line x1="3635.64" y1="1942.38" x2="3700.44" y2="1942.38" style="stroke:#F0F0F0;stroke-width:9.72"/>
	<line x1="3732.84" y1="1942.38" x2="3797.64" y2="1942.38" style="stroke:#F0F0F0;stroke-width:9.72"/>
	<line x1="3830.04" y1="1942.38" x2="3894.84" y2="1942.38" style="stroke:#F0F0F0;stroke-width:9.72"/>
	<line x1="524.88" y1="1384.02" x2="589.68" y2="1384.02" style="stroke:#F0F0F0;stroke-width:9.72"/>
	<line x1="622.08" y1="1384.02" x2="686.88" y2="1384.02" style="stroke:#F0F0F0;stroke-width:9.72"/>
	<line x1="719.28" y1="1384.02" x2="784.08" y2="1384.02" style="stroke:#F0F0F0;stroke-width:9.72"/>
	<line x1="816.48" y1="1384.02" x2="881.28" y2="1384.02" style="stroke:#F0F0F0;stroke-width:9.72"/>
	<line x1="913.68" y1="1384.02" x2="978.48" y2="1384.02" style="stroke:#F0F0F0;stroke-width:9.72"/>
	<line x1="1010.88" y1="1384.02" x2="1075.68" y2="1384.02" style="stroke:#F0F0F0;stroke-width:9.72"/>
	<line x1="1108.08" y1="1384.02" x2="1172.88" y2="1384.02" style="stroke:#F0F0F0;stroke-width:9.72"/>
	<line x1="1205.28" y1="1384.02" x2="1270.08" y2="1384.02" style="stroke:#F0F0F0;stroke-width:9.72"/>
	<line x1="1302.48" y1="1384.02" x2="1367.28" y2="1384.02" style="stroke:#F0F0F0;stroke-width:9.72"/>
	<line x1="1399.68" y1="1384.02" x2="1464.48" y2="1384.02" style="stroke:#F0F0F0;stroke-width:9.72"/>
	<line x1="1497.06" y1="1384.02" x2="1561.68" y2="1384.02" style="stroke:#F0F0F0;stroke-width:9.72"/>
	<line x1="1594.26" y1="1384.02" x2="1658.88" y2="1384.02" style="stroke:#F0F0F0;stroke-width:9.72"/>
	<line x1="1691.46" y1="1384.02" x2="1756.26" y2="1384.02" style="stroke:#F0F0F0;stroke-width:9.72"/>
	<line x1="1788.66" y1="1384.02" x2="1853.46" y2="1384.02" style="stroke:#F0F0F0;stroke-width:9.72"/>
	<line x1="1885.86" y1="1384.02" x2="1950.66" y2="1384.02" style="stroke:#F0F0F0;stroke-width:9.72"/>
	<line x1="1983.06" y1="1384.02" x2="2047.86" y2="1384.02" style="stroke:#F0F0F0;stroke-width:9.72"/>
	<line x1="2080.26" y1="1384.02" x2="2145.06" y2="1384.02" style="stroke:#F0F0F0;stroke-width:9.72"/>
	<line x1="2177.46" y1="1384.02" x2="2242.26" y2="1384.02" style="stroke:#F0F0F0;stroke-width:9.72"/>
	<line x1="2274.66" y1="1384.02" x2="2339.46" y2="1384.02" style="stroke:#F0F0F0;stroke-width:9.72"/>
	<line x1="2371.86" y1="1384.02" x2="2436.66" y2="1384.02" style="stroke:#F0F0F0;stroke-width:9.72"/>
	<line x1="2469.06" y1="1384.02" x2="2533.86" y2="1384.02" style="stroke:#F0F0F0;stroke-width:9.72"/>
	<line x1="2566.26" y1="1384.02" x2="2631.06" y2="1384.02" style="stroke:#F0F0F0;stroke-width:9.72"/>
	<line x1="2663.46" y1="1384.02" x2="2728.26" y2="1384.02" style="stroke:#F0F0F0;stroke-width:9.72"/>
	<line x1="2760.66" y1="1384.02" x2="2825.46" y2="1384.02" style="stroke:#F0F0F0;stroke-width:9.72"/>
	<line x1="2857.86" y1="1384.02" x2="2922.66" y2="1384.02" style="stroke:#F0F0F0;stroke-width:9.72"/>
	<line x1="2955.06" y1="1384.02" x2="3019.86" y2="1384.02" style="stroke:#F0F0F0;stroke-width:9.72"/>
	<line x1="3052.44" y1="1384.02" x2="3117.06" y2="1384.02" style="stroke:#F0F0F0;stroke-width:9.72"/>
	<line x1="3149.64" y1="1384.02" x2="3214.26" y2="1384.02" style="stroke:#F0F0F0;stroke-width:9.72"/>
	<line x1="3246.84" y1="1384.02" x2="3311.64" y2="1384.02" style="stroke:#F0F0F0;stroke-width:9.72"/>
	<line x1="3344.04" y1="1384.02" x2="3408.84" y2="1384.02" style="stroke:#F0F0F0;stroke-width:9.72"/>
	<line x1="3441.24" y1="1384.02" x2="3506.04" y2="1384.02" style="stroke:#F0F0F0;stroke-width:9.72"/>
	<line x1="3538.44" y1="1384.02" x2="3603.24" y2="1384.02" style="stroke:#F0F0F0;stroke-width:9.72"/>
	<line x1="3635.64" y1="1384.02" x2="3700.44" y2="1384.02" style="stroke:#F0F0F0;stroke-width:9.72"/>
	<line x1="3732.84" y1="1384.02" x2="3797.64" y2="1384.02" style="stroke:#F0F0F0;stroke-width:9.72"/>
	<line x1="3830.04" y1="1384.02" x2="3894.84" y2="1384.02" style="stroke:#F0F0F0;stroke-width:9.72"/>
	<line x1="524.88" y1="825.84" x2="589.68" y2="825.84" style="stroke:#F0F0F0;stroke-width:9.72"/>
	<line x1="622.08" y1="825.84" x2="686.88" y2="825.84" style="stroke:#F0F0F0;stroke-width:9.72"/>
	<line x1="719.28" y1="825.84" x2="784.08" y2="825.84" style="stroke:#F0F0F0;stroke-width:9.72"/>
	<line x1="816.48" y1="825.84" x2="881.28" y2="825.84" style="stroke:#F0F0F0;stroke-width:9.72"/>
	<line x1="913.68" y1="825.84" x2="978.48" y2="825.84" style="stroke:#F0F0F0;stroke-width:9.72"/>
	<line x1="1010.88" y1="825.84" x2="1075.68" y2="825.84" style="stroke:#F0F0F0;stroke-width:9.72"/>
	<line x1="1108.08" y1="825.84" x2="1172.88" y2="825.84" style="stroke:#F0F0F0;stroke-width:9.72"/>
	<line x1="1205.28" y1="825.84" x2="1270.08" y2="825.84" style="stroke:#F0F0F0;stroke-width:9.72"/>
	<line x1="1302.48" y1="825.84" x2="1367.28" y2="825.84" style="stroke:#F0F0F0;stroke-width:9.72"/>
	<line x1="1399.68" y1="825.84" x2="1464.48" y2="825.84" style="stroke:#F0F0F0;stroke-width:9.72"/>
	<line x1="1497.06" y1="825.84" x2="1561.68" y2="825.84" style="stroke:#F0F0F0;stroke-width:9.72"/>
	<line x1="1594.26" y1="825.84" x2="1658.88" y2="825.84" style="stroke:#F0F0F0;stroke-width:9.72"/>
	<line x1="1691.46" y1="825.84" x2="1756.26" y2="825.84" style="stroke:#F0F0F0;stroke-width:9.72"/>
	<line x1="1788.66" y1="825.84" x2="1853.46" y2="825.84" style="stroke:#F0F0F0;stroke-width:9.72"/>
	<line x1="1885.86" y1="825.84" x2="1950.66" y2="825.84" style="stroke:#F0F0F0;stroke-width:9.72"/>
	<line x1="1983.06" y1="825.84" x2="2047.86" y2="825.84" style="stroke:#F0F0F0;stroke-width:9.72"/>
	<line x1="2080.26" y1="825.84" x2="2145.06" y2="825.84" style="stroke:#F0F0F0;stroke-width:9.72"/>
	<line x1="2177.46" y1="825.84" x2="2242.26" y2="825.84" style="stroke:#F0F0F0;stroke-width:9.72"/>
	<line x1="2274.66" y1="825.84" x2="2339.46" y2="825.84" style="stroke:#F0F0F0;stroke-width:9.72"/>
	<line x1="2371.86" y1="825.84" x2="2436.66" y2="825.84" style="stroke:#F0F0F0;stroke-width:9.72"/>
	<line x1="2469.06" y1="825.84" x2="2533.86" y2="825.84" style="stroke:#F0F0F0;stroke-width:9.72"/>
	<line x1="2566.26" y1="825.84" x2="2631.06" y2="825.84" style="stroke:#F0F0F0;stroke-width:9.72"/>
	<line x1="2663.46" y1="825.84" x2="2728.26" y2="825.84" style="stroke:#F0F0F0;stroke-width:9.72"/>
	<line x1="2760.66" y1="825.84" x2="2825.46" y2="825.84" style="stroke:#F0F0F0;stroke-width:9.72"/>
	<line x1="2857.86" y1="825.84" x2="2922.66" y2="825.84" style="stroke:#F0F0F0;stroke-width:9.72"/>
	<line x1="2955.06" y1="825.84" x2="3019.86" y2="825.84" style="stroke:#F0F0F0;stroke-width:9.72"/>
	<line x1="3052.44" y1="825.84" x2="3117.06" y2="825.84" style="stroke:#F0F0F0;stroke-width:9.72"/>
	<line x1="3149.64" y1="825.84" x2="3214.26" y2="825.84" style="stroke:#F0F0F0;stroke-width:9.72"/>
	<line x1="3246.84" y1="825.84" x2="3311.64" y2="825.84" style="stroke:#F0F0F0;stroke-width:9.72"/>
	<line x1="3344.04" y1="825.84" x2="3408.84" y2="825.84" style="stroke:#F0F0F0;stroke-width:9.72"/>
	<line x1="3441.24" y1="825.84" x2="3506.04" y2="825.84" style="stroke:#F0F0F0;stroke-width:9.72"/>
	<line x1="3538.44" y1="825.84" x2="3603.24" y2="825.84" style="stroke:#F0F0F0;stroke-width:9.72"/>
	<line x1="3635.64" y1="825.84" x2="3700.44" y2="825.84" style="stroke:#F0F0F0;stroke-width:9.72"/>
	<line x1="3732.84" y1="825.84" x2="3797.64" y2="825.84" style="stroke:#F0F0F0;stroke-width:9.72"/>
	<line x1="3830.04" y1="825.84" x2="3894.84" y2="825.84" style="stroke:#F0F0F0;stroke-width:9.72"/>
	<line x1="524.88" y1="267.48" x2="589.68" y2="267.48" style="stroke:#F0F0F0;stroke-width:9.72"/>
	<line x1="622.08" y1="267.48" x2="686.88" y2="267.48" style="stroke:#F0F0F0;stroke-width:9.72"/>
	<line x1="719.28" y1="267.48" x2="784.08" y2="267.48" style="stroke:#F0F0F0;stroke-width:9.72"/>
	<line x1="816.48" y1="267.48" x2="881.28" y2="267.48" style="stroke:#F0F0F0;stroke-width:9.72"/>
	<line x1="913.68" y1="267.48" x2="978.48" y2="267.48" style="stroke:#F0F0F0;stroke-width:9.72"/>
	<line x1="1010.88" y1="267.48" x2="1075.68" y2="267.48" style="stroke:#F0F0F0;stroke-width:9.72"/>
	<line x1="1108.08" y1="267.48" x2="1172.88" y2="267.48" style="stroke:#F0F0F0;stroke-width:9.72"/>
	<line x1="1205.28" y1="267.48" x2="1270.08" y2="267.48" style="stroke:#F0F0F0;stroke-width:9.72"/>
	<line x1="1302.48" y1="267.48" x2="1367.28" y2="267.48" style="stroke:#F0F0F0;stroke-width:9.72"/>
	<line x1="1399.68" y1="267.48" x2="1464.48" y2="267.48" style="stroke:#F0F0F0;stroke-width:9.72"/>
	<line x1="1497.06" y1="267.48" x2="1561.68" y2="267.48" style="stroke:#F0F0F0;stroke-width:9.72"/>
	<line x1="1594.26" y1="267.48" x2="1658.88" y2="267.48" style="stroke:#F0F0F0;stroke-width:9.72"/>
	<line x1="1691.46" y1="267.48" x2="1756.26" y2="267.48" style="stroke:#F0F0F0;stroke-width:9.72"/>
	<line x1="1788.66" y1="267.48" x2="1853.46" y2="267.48" style="stroke:#F0F0F0;stroke-width:9.72"/>
	<line x1="1885.86" y1="267.48" x2="1950.66" y2="267.48" style="stroke:#F0F0F0;stroke-width:9.72"/>
	<line x1="1983.06" y1="267.48" x2="2047.86" y2="267.48" style="stroke:#F0F0F0;stroke-width:9.72"/>
	<line x1="2080.26" y1="267.48" x2="2145.06" y2="267.48" style="stroke:#F0F0F0;stroke-width:9.72"/>
	<line x1="2177.46" y1="267.48" x2="2242.26" y2="267.48" style="stroke:#F0F0F0;stroke-width:9.72"/>
	<line x1="2274.66" y1="267.48" x2="2339.46" y2="267.48" style="stroke:#F0F0F0;stroke-width:9.72"/>
	<line x1="2371.86" y1="267.48" x2="2436.66" y2="267.48" style="stroke:#F0F0F0;stroke-width:9.72"/>
	<line x1="2469.06" y1="267.48" x2="2533.86" y2="267.48" style="stroke:#F0F0F0;stroke-width:9.72"/>
	<line x1="2566.26" y1="267.48" x2="2631.06" y2="267.48" style="stroke:#F0F0F0;stroke-width:9.72"/>
	<line x1="2663.46" y1="267.48" x2="2728.26" y2="267.48" style="stroke:#F0F0F0;stroke-width:9.72"/>
	<line x1="2760.66" y1="267.48" x2="2825.46" y2="267.48" style="stroke:#F0F0F0;stroke-width:9.72"/>
	<line x1="2857.86" y1="267.48" x2="2922.66" y2="267.48" style="stroke:#F0F0F0;stroke-width:9.72"/>
	<line x1="2955.06" y1="267.48" x2="3019.86" y2="267.48" style="stroke:#F0F0F0;stroke-width:9.72"/>
	<line x1="3052.44" y1="267.48" x2="3117.06" y2="267.48" style="stroke:#F0F0F0;stroke-width:9.72"/>
	<line x1="3149.64" y1="267.48" x2="3214.26" y2="267.48" style="stroke:#F0F0F0;stroke-width:9.72"/>
	<line x1="3246.84" y1="267.48" x2="3311.64" y2="267.48" style="stroke:#F0F0F0;stroke-width:9.72"/>
	<line x1="3344.04" y1="267.48" x2="3408.84" y2="267.48" style="stroke:#F0F0F0;stroke-width:9.72"/>
	<line x1="3441.24" y1="267.48" x2="3506.04" y2="267.48" style="stroke:#F0F0F0;stroke-width:9.72"/>
	<line x1="3538.44" y1="267.48" x2="3603.24" y2="267.48" style="stroke:#F0F0F0;stroke-width:9.72"/>
	<line x1="3635.64" y1="267.48" x2="3700.44" y2="267.48" style="stroke:#F0F0F0;stroke-width:9.72"/>
	<line x1="3732.84" y1="267.48" x2="3797.64" y2="267.48" style="stroke:#F0F0F0;stroke-width:9.72"/>
	<line x1="3830.04" y1="267.48" x2="3894.84" y2="267.48" style="stroke:#F0F0F0;stroke-width:9.72"/>
	<rect x="705.78" y="575.10" width="337.14" height="2484.00" style="fill:#1A85FF"/>
	<rect x="709.02" y="578.34" width="330.66" height="2477.52" style="fill:none;stroke:#1A85FF;stroke-width:6.48"/>
	<rect x="1042.92" y="2850.12" width="337.14" height="208.98" style="fill:#D41159"/>
	<rect x="1046.16" y="2853.36" width="330.66" height="202.50" style="fill:none;stroke:#D41159;stroke-width:6.48"/>
	<rect x="1380.06" y="807.12" width="337.14" height="2251.98" style="fill:#00BF7F"/>
	<rect x="1383.30" y="810.36" width="330.66" height="2245.50" style="fill:none;stroke:#00BF7F;stroke-width:6.48"/>
	<rect x="1717.20" y="226.80" width="337.14" height="2832.30" style="fill:#FFD400"/>
	<rect x="1720.44" y="230.04" width="330.66" height="2825.82" style="fill:none;stroke:#FFD400;stroke-width:6.48"/>
	<rect x="2054.34" y="714.24" width="337.32" height="2344.86" style="fill:#4F2C99"/>
	<rect x="2057.58" y="717.48" width="330.84" height="2338.38" style="fill:none;stroke:#4F2C99;stroke-width:6.48"/>
	<rect x="2391.66" y="2316.24" width="337.14" height="742.86" style="fill:#FF6333"/>
	<rect x="2394.90" y="2319.48" width="330.66" height="736.38" style="fill:none;stroke:#FF6333;stroke-width:6.48"/>
	<rect x="2728.80" y="2966.22" width="337.14" height="92.88" style="fill:#4DB7FF"/>
	<rect x="2732.04" y="2969.46" width="330.66" height="86.40" style="fill:none;stroke:#4DB7FF;stroke-width:6.48"/>
	<rect x="3065.94" y="2873.34" width="337.14" height="185.76" style="fill:#7C0015"/>
	<rect x="3069.18" y="2876.58" width="330.66" height="179.28" style="fill:none;stroke:#7C0015;stroke-width:6.48"/>
	<rect x="3403.08" y="3035.88" width="337.14" height="23.22" style="fill:#0FEFAF"/>
	<rect x="3406.32" y="3039.12" width="330.66" height="16.74" style="fill:none;stroke:#0FEFAF;stroke-width:6.48"/>
	<line x1="524.88" y1="3059.10" x2="524.88" y2="113.40" style="stroke:#000000;stroke-width:6.48"/>
	<line x1="524.88" y1="3059.10" x2="479.88" y2="3059.10" style="stroke:#000000;stroke-width:6.48"/>
	<text x="457.38" y="3098.52" style="font-family:'Helvetica';font-size:112.50px;fill:#000000" text-anchor="end">0</text>
	<line x1="524.88" y1="2500.74" x2="479.88" y2="2500.74" style="stroke:#000000;stroke-width:6.48"/>
	<text x="457.38" y="2540.16" style="font-family:'Helvetica';font-size:112.50px;fill:#000000" text-anchor="end">5</text>
	<line x1="524.88" y1="1942.38" x2="479.88" y2="1942.38" style="stroke:#000000;stroke-width:6.48"/>
	<text x="457.38" y="1981.80" style="font-family:'Helvetica';font-size:112.50px;fill:#000000" text-anchor="end">10</text>
	<line x1="524.88" y1="1384.02" x2="479.88" y2="1384.02" style="stroke:#000000;stroke-width:6.48"/>
	<text x="457.38" y="1423.44" style="font-family:'Helvetica';font-size:112.50px;fill:#000000" text-anchor="end">15</text>
	<line x1="524.88" y1="825.84" x2="479.88" y2="825.84" style="stroke:#000000;stroke-width:6.48"/>
	<text x="457.38" y="865.26" style="font-family:'Helvetica';font-size:112.50px;fill:#000000" text-anchor="end">20</text>
	<line x1="524.88" y1="267.48" x2="479.88" y2="267.48" style="stroke:#000000;stroke-width:6.48"/>
	<text x="457.38" y="306.90" style="font-family:'Helvetica';font-size:112.50px;fill:#000000" text-anchor="end">25</text>
	<text x="214.56" y="1586.34" style="font-family:'Helvetica';font-size:112.50px;fill:#000000" transform="rotate(-90 214.56,1586.34)" text-anchor="middle">percent</text>
	<line x1="524.88" y1="3059.10" x2="3921.12" y2="3059.10" style="stroke:#000000;stroke-width:6.48"/>
	<rect x="3960.00" y="851.40" width="1647.72" height="1469.70" style="fill:#FFFFFF"/>
	<rect x="3963.24" y="854.64" width="1641.24" height="1463.22" style="fill:none;stroke:#FFFFFF;stroke-width:6.48"/>
	<rect x="4008.60" y="900.00" width="259.20" height="112.50" style="fill:#1A85FF"/>
	<rect x="4011.84" y="903.24" width="252.72" height="106.02" style="fill:none;stroke:#1A85FF;stroke-width:6.48"/>
	<rect x="4008.60" y="1057.50" width="259.20" height="112.50" style="fill:#D41159"/>
	<rect x="4011.84" y="1060.74" width="252.72" height="106.02" style="fill:none;stroke:#D41159;stroke-width:6.48"/>
	<rect x="4008.60" y="1215.00" width="259.20" height="112.50" style="fill:#00BF7F"/>
	<rect x="4011.84" y="1218.24" width="252.72" height="106.02" style="fill:none;stroke:#00BF7F;stroke-width:6.48"/>
	<rect x="4008.60" y="1372.50" width="259.20" height="112.50" style="fill:#FFD400"/>
	<rect x="4011.84" y="1375.74" width="252.72" height="106.02" style="fill:none;stroke:#FFD400;stroke-width:6.48"/>
	<rect x="4008.60" y="1530.00" width="259.20" height="112.50" style="fill:#4F2C99"/>
	<rect x="4011.84" y="1533.24" width="252.72" height="106.02" style="fill:none;stroke:#4F2C99;stroke-width:6.48"/>
	<rect x="4008.60" y="1687.50" width="259.20" height="112.50" style="fill:#FF6333"/>
	<rect x="4011.84" y="1690.74" width="252.72" height="106.02" style="fill:none;stroke:#FF6333;stroke-width:6.48"/>
	<rect x="4008.60" y="1845.00" width="259.20" height="112.50" style="fill:#4DB7FF"/>
	<rect x="4011.84" y="1848.24" width="252.72" height="106.02" style="fill:none;stroke:#4DB7FF;stroke-width:6.48"/>
	<rect x="4008.60" y="2002.50" width="259.20" height="112.50" style="fill:#7C0015"/>
	<rect x="4011.84" y="2005.74" width="252.72" height="106.02" style="fill:none;stroke:#7C0015;stroke-width:6.48"/>
	<rect x="4008.60" y="2160.00" width="259.20" height="112.50" style="fill:#0FEFAF"/>
	<rect x="4011.84" y="2163.24" width="252.72" height="106.02" style="fill:none;stroke:#0FEFAF;stroke-width:6.48"/>
	<text x="4335.30" y="995.76" style="font-family:'Helvetica';font-size:112.50px;fill:#000000">Private car (driver)</text>
	<text x="4335.30" y="1153.26" style="font-family:'Helvetica';font-size:112.50px;fill:#000000">Private car (passenger)</text>
	<text x="4335.30" y="1310.76" style="font-family:'Helvetica';font-size:112.50px;fill:#000000">Bus</text>
	<text x="4335.30" y="1468.26" style="font-family:'Helvetica';font-size:112.50px;fill:#000000">Metro/tram/light rail</text>
	<text x="4335.30" y="1625.76" style="font-family:'Helvetica';font-size:112.50px;fill:#000000">Train</text>
	<text x="4335.30" y="1783.08" style="font-family:'Helvetica';font-size:112.50px;fill:#000000">Walk</text>
	<text x="4335.30" y="1940.58" style="font-family:'Helvetica';font-size:112.50px;fill:#000000">Bike</text>
	<text x="4335.30" y="2098.08" style="font-family:'Helvetica';font-size:112.50px;fill:#000000">Motorcycle</text>
	<text x="4335.30" y="2255.58" style="font-family:'Helvetica';font-size:112.50px;fill:#000000">Other</text>
</svg>
